<?xml version="1.0" encoding="UTF-8" standalone="no"?>
<!-- Created with Inkscape (http://www.inkscape.org/) -->

<svg
   width="110mm"
   height="130mm"
   viewBox="0 0 110 130"
   version="1.1"
   id="svg1"
   inkscape:version="1.3.2 (091e20ef0f, 2023-11-25, custom)"
   sodipodi:docname="a2.svg"
   xmlns:inkscape="http://www.inkscape.org/namespaces/inkscape"
   xmlns:sodipodi="http://sodipodi.sourceforge.net/DTD/sodipodi-0.dtd"
   xmlns="http://www.w3.org/2000/svg"
   xmlns:svg="http://www.w3.org/2000/svg">
  <sodipodi:namedview
     id="namedview1"
     pagecolor="#505050"
     bordercolor="#eeeeee"
     borderopacity="1"
     inkscape:showpageshadow="0"
     inkscape:pageopacity="0"
     inkscape:pagecheckerboard="0"
     inkscape:deskcolor="#505050"
     inkscape:document-units="mm"
     showgrid="true"
     inkscape:zoom="1.0956059"
     inkscape:cx="218.14413"
     inkscape:cy="205.82219"
     inkscape:window-width="1354"
     inkscape:window-height="733"
     inkscape:window-x="5"
     inkscape:window-y="5"
     inkscape:window-maximized="1"
     inkscape:current-layer="layer1">
    <inkscape:grid
       id="grid1"
       units="mm"
       originx="0"
       originy="0"
       spacingx="2.5"
       spacingy="2.5"
       empcolor="#ffffff"
       empopacity="0.30196078"
       color="#ffffff"
       opacity="0.14901961"
       empspacing="4"
       dotted="false"
       gridanglex="30"
       gridanglez="30"
       visible="true" />
  </sodipodi:namedview>
  <defs
     id="defs1" />
  <g
     inkscape:label="Layer 1"
     inkscape:groupmode="layer"
     id="layer1">
    <path
       id="path1"
       style="font-variation-settings:'wght' 700;fill:#000000;stroke-width:0.264582"
       d="M 54.999777,79.999811 A 14.999982,14.999982 0 0 0 40.000195,94.999909 14.999982,14.999982 0 0 0 54.999777,110 14.999982,14.999982 0 0 0 64.03875,106.96743 l 0.961231,3.03247 h 9.999997 l -5.600115,-19.200195 -0.0029,8.01e-4 A 14.999982,14.999982 0 0 0 54.999854,79.999811 Z m 0,9.999894 a 4.9999933,4.9999933 0 0 1 5.000205,5.000204 4.9999933,4.9999933 0 0 1 -5.000205,5.000211 4.9999933,4.9999933 0 0 1 -4.999688,-5.000211 4.9999933,4.9999933 0 0 1 4.999688,-5.000204 z" />
    <path
       id="rect2"
       style="vector-effect:non-scaling-stroke;fill:#000000;fill-rule:evenodd;stroke:none;stroke-width:0.269823;stroke-miterlimit:100;stroke-opacity:1;-inkscape-stroke:hairline"
       inkscape:transform-center-x="-10.525059"
       inkscape:transform-center-y="-28.534599"
       d="M 62.682477 8.4198681 L 62.682599 61.863898 L 72.682551 59.959145 L 72.682937 6.5150185 L 62.682477 8.4198681 z "
       transform="rotate(10.784299)" />
  </g>
</svg>
