<?xml version="1.0" encoding="UTF-8" standalone="no"?>
<!-- Created with Inkscape (http://www.inkscape.org/) -->

<svg
   width="110mm"
   height="130mm"
   viewBox="0 0 110 130"
   version="1.1"
   id="svg1"
   inkscape:version="1.3.2 (091e20ef0f, 2023-11-25, custom)"
   sodipodi:docname="aaa.svg"
   xmlns:inkscape="http://www.inkscape.org/namespaces/inkscape"
   xmlns:sodipodi="http://sodipodi.sourceforge.net/DTD/sodipodi-0.dtd"
   xmlns="http://www.w3.org/2000/svg"
   xmlns:svg="http://www.w3.org/2000/svg">
  <sodipodi:namedview
     id="namedview1"
     pagecolor="#505050"
     bordercolor="#eeeeee"
     borderopacity="1"
     inkscape:showpageshadow="0"
     inkscape:pageopacity="0"
     inkscape:pagecheckerboard="0"
     inkscape:deskcolor="#505050"
     inkscape:document-units="mm"
     showgrid="true"
     inkscape:zoom="1.3200835"
     inkscape:cx="160.5959"
     inkscape:cy="244.68148"
     inkscape:window-width="1366"
     inkscape:window-height="768"
     inkscape:window-x="0"
     inkscape:window-y="0"
     inkscape:window-maximized="1"
     inkscape:current-layer="layer1">
    <inkscape:grid
       id="grid1"
       units="mm"
       originx="0"
       originy="0"
       spacingx="2.5"
       spacingy="2.5"
       empcolor="#ffffff"
       empopacity="0.30196078"
       color="#ffffff"
       opacity="0.14901961"
       empspacing="4"
       dotted="false"
       gridanglex="30"
       gridanglez="30"
       visible="true" />
  </sodipodi:namedview>
  <defs
     id="defs1" />
  <g
     inkscape:label="Layer 1"
     inkscape:groupmode="layer"
     id="layer1">
    <path
       id="path1"
       style="font-variation-settings:'wght' 700;fill:#000000;stroke-width:0.264582"
       d="M 54.999777,79.999811 A 14.999982,14.999982 0 0 0 40.000195,94.999909 14.999982,14.999982 0 0 0 54.999777,110 14.999982,14.999982 0 0 0 64.03875,106.96743 l 0.961231,3.03247 h 9.999997 l -5.600115,-19.200195 -0.0029,8.01e-4 A 14.999982,14.999982 0 0 0 54.999854,79.999811 Z m 0,9.999894 a 4.9999933,4.9999933 0 0 1 5.000205,5.000204 4.9999933,4.9999933 0 0 1 -5.000205,5.000211 4.9999933,4.9999933 0 0 1 -4.999688,-5.000211 4.9999933,4.9999933 0 0 1 4.999688,-5.000204 z" />
    <path
       id="rect2"
       style="vector-effect:non-scaling-stroke;fill:#000000;stroke:none;stroke-width:0.264583;stroke-miterlimit:40;-inkscape-stroke:hairline;paint-order:stroke fill markers"
       inkscape:transform-center-x="13.779728"
       inkscape:transform-center-y="32.55947"
       d="m 79.656442,20 -14.540197,55.00026 10.343037,10e-7 L 89.999997,20 Z" />
    <path
       id="rect2-2"
       style="vector-effect:non-scaling-stroke;fill:#000000;stroke:none;stroke-width:0.264583;stroke-miterlimit:40;-inkscape-stroke:hairline;paint-order:stroke fill markers"
       inkscape:transform-center-x="-13.779728"
       inkscape:transform-center-y="32.55947"
       d="m 30.343554,20 14.540197,55.00026 -10.343037,10e-7 L 19.999999,20 Z" />
    <rect
       style="vector-effect:non-scaling-stroke;fill:#000000;stroke:none;stroke-width:0.264583;stroke-miterlimit:40;-inkscape-stroke:hairline;paint-order:stroke fill markers"
       id="rect3"
       width="9.999999"
       height="55"
       x="49.999996"
       y="20" />
  </g>
</svg>
