<?xml version="1.0" encoding="UTF-8" standalone="no"?>
<!-- Created with Inkscape (http://www.inkscape.org/) -->

<svg
   width="110mm"
   height="130mm"
   viewBox="0 0 110 130"
   version="1.1"
   id="svg1"
   sodipodi:docname="akesi.svg"
   inkscape:version="1.3.2 (091e20ef0f, 2023-11-25, custom)"
   xmlns:inkscape="http://www.inkscape.org/namespaces/inkscape"
   xmlns:sodipodi="http://sodipodi.sourceforge.net/DTD/sodipodi-0.dtd"
   xmlns="http://www.w3.org/2000/svg"
   xmlns:svg="http://www.w3.org/2000/svg">
  <sodipodi:namedview
     id="namedview1"
     pagecolor="#505050"
     bordercolor="#eeeeee"
     borderopacity="1"
     inkscape:showpageshadow="0"
     inkscape:pageopacity="0"
     inkscape:pagecheckerboard="0"
     inkscape:deskcolor="#505050"
     inkscape:document-units="mm"
     showgrid="true"
     inkscape:zoom="1.3273999"
     inkscape:cx="221.86231"
     inkscape:cy="282.13051"
     inkscape:window-width="1354"
     inkscape:window-height="733"
     inkscape:window-x="5"
     inkscape:window-y="5"
     inkscape:window-maximized="1"
     inkscape:current-layer="svg1">
    <inkscape:grid
       id="grid2"
       units="mm"
       originx="0"
       originy="0"
       spacingx="2.5"
       spacingy="2.5"
       empcolor="#ffffff"
       empopacity="0.30196078"
       color="#ffffff"
       opacity="0.14901961"
       empspacing="4"
       dotted="false"
       gridanglex="30"
       gridanglez="30"
       visible="true" />
  </sodipodi:namedview>
  <defs
     id="defs1" />
  <g
     id="layer1"
     transform="matrix(0.10000113,0,0,0.10000113,-6.2550274e-4,-0.001238)">
    <circle
       style="font-variation-settings:'wght' 700;fill:#000000;stroke-width:3.74177"
       id="path3"
       cx="-270.70538"
       cy="675.00214"
       transform="rotate(-90)"
       r="70.710548" />
    <circle
       style="font-variation-settings:'wght' 700;fill:#000000;stroke-width:3.74177"
       id="path3-6"
       cx="-270.70538"
       cy="425.00232"
       transform="rotate(-90)"
       r="70.710548" />
    <rect
       style="font-variation-settings:'wght' 700;fill:#000000;fill-opacity:1;stroke-width:2.77497"
       id="rect6"
       width="549.99945"
       height="99.999908"
       x="275.0025"
       y="562.49463" />
    <rect
       style="font-variation-settings:'wght' 700;fill:#000000;fill-opacity:1;stroke-width:2.77497"
       id="rect6-1"
       width="549.99957"
       height="99.999908"
       x="275.0025"
       y="787.49445" />
    <path
       id="path1"
       style="vector-effect:non-scaling-stroke;fill:#000000;stroke:none;stroke-width:2.64583;stroke-miterlimit:100;-inkscape-stroke:hairline"
       d="M 550.00002,349.99516 A 174.99985,174.99985 0 0 0 375.00306,524.99722 h 99.99902 a 74.999951,74.999951 0 0 1 74.99794,-75.00304 74.999951,74.999951 0 0 1 75.00313,75.00304 h 99.99892 A 174.99985,174.99985 0 0 0 550.00002,349.99516 Z" />
    <path
       id="path1-4"
       style="vector-effect:non-scaling-stroke;fill:#000000;stroke:none;stroke-width:2.64583;stroke-miterlimit:100;-inkscape-stroke:hairline"
       d="m 375.00306,924.99322 a 174.99985,174.99985 0 0 0 0,0.01 A 174.99985,174.99985 0 0 0 550.00002,1100 174.99985,174.99985 0 0 0 725.00207,925.00322 a 174.99985,174.99985 0 0 0 0,-0.01 h -99.99892 a 74.999951,74.999951 0 0 1 0,0.01 74.999951,74.999951 0 0 1 -75.00313,74.99788 74.999951,74.999951 0 0 1 -74.99794,-74.99788 74.999951,74.999951 0 0 1 0,-0.01 z" />
    <rect
       style="vector-effect:non-scaling-stroke;fill:#000000;stroke:none;stroke-width:2.64583;stroke-miterlimit:100;-inkscape-stroke:hairline"
       id="rect2"
       width="99.999908"
       height="399.99963"
       x="375.00241"
       y="524.99463" />
    <rect
       style="vector-effect:non-scaling-stroke;fill:#000000;stroke:none;stroke-width:2.64583;stroke-miterlimit:100;-inkscape-stroke:hairline"
       id="rect3"
       width="99.999603"
       height="399.99719"
       x="625.0022"
       y="524.99707" />
  </g>
</svg>
