<?xml version="1.0" encoding="UTF-8" standalone="no"?>
<!-- Created with Inkscape (http://www.inkscape.org/) -->

<svg
   width="110mm"
   height="130mm"
   viewBox="0 0 110 130"
   version="1.1"
   id="svg1"
   sodipodi:docname="akesi2.svg"
   inkscape:version="1.3.2 (091e20ef0f, 2023-11-25, custom)"
   xmlns:inkscape="http://www.inkscape.org/namespaces/inkscape"
   xmlns:sodipodi="http://sodipodi.sourceforge.net/DTD/sodipodi-0.dtd"
   xmlns="http://www.w3.org/2000/svg"
   xmlns:svg="http://www.w3.org/2000/svg">
  <sodipodi:namedview
     id="namedview1"
     pagecolor="#505050"
     bordercolor="#eeeeee"
     borderopacity="1"
     inkscape:showpageshadow="0"
     inkscape:pageopacity="0"
     inkscape:pagecheckerboard="0"
     inkscape:deskcolor="#505050"
     inkscape:document-units="mm"
     showgrid="true"
     inkscape:zoom="1.205194"
     inkscape:cx="176.73503"
     inkscape:cy="263.0282"
     inkscape:window-width="1366"
     inkscape:window-height="768"
     inkscape:window-x="0"
     inkscape:window-y="0"
     inkscape:window-maximized="1"
     inkscape:current-layer="layer1">
    <inkscape:grid
       id="grid2"
       units="mm"
       originx="0"
       originy="0"
       spacingx="2.5"
       spacingy="2.5"
       empcolor="#ffffff"
       empopacity="0.30196078"
       color="#ffffff"
       opacity="0.14901961"
       empspacing="4"
       dotted="false"
       gridanglex="30"
       gridanglez="30"
       visible="true" />
  </sodipodi:namedview>
  <defs
     id="defs1" />
  <g
     id="layer1"
     transform="matrix(0.10000113,0,0,0.10000113,-6.2550274e-4,-0.001238)">
    <path
       id="path3"
       style="font-variation-settings:'wght' 700;fill:#000000;stroke-width:3.74177"
       d="M -199.99275 425.00393 A 70.710548 70.710548 0 0 0 -270.70598 354.2907 A 70.710548 70.710548 0 0 0 -341.41404 425.00393 A 70.710548 70.710548 0 0 0 -270.70598 495.712 A 70.710548 70.710548 0 0 0 -199.99275 425.00393 z M -199.99275 675.00135 A 70.710548 70.710548 0 0 0 -270.70598 604.29329 A 70.710548 70.710548 0 0 0 -341.41404 675.00135 A 70.710548 70.710548 0 0 0 -270.70598 745.71458 A 70.710548 70.710548 0 0 0 -199.99275 675.00135 z M -349.9974 549.99748 A 174.99985 174.99985 0 0 0 -524.99766 375.00238 L -525.00799 375.00238 L -525.00799 275.00445 L -625.00593 275.00445 L -625.00593 375.00238 L -675.00231 375.00238 L -675.00231 274.99928 L -775.00541 274.99928 L -775.00541 375.00238 L -825.0018 375.00238 L -825.0018 274.99928 L -924.99973 274.99928 L -924.99973 375.00238 A 174.99985 174.99985 0 0 0 -925.0049 375.00238 A 174.99985 174.99985 0 0 0 -1100 549.99748 A 174.99985 174.99985 0 0 0 -925.0049 725.0029 A 174.99985 174.99985 0 0 0 -924.99973 725.0029 L -924.99973 824.99567 L -825.0018 824.99567 L -825.0018 725.0029 L -775.00541 725.0029 L -775.00541 825.00084 L -675.00231 825.00084 L -675.00231 725.0029 L -625.00593 725.0029 L -625.00593 825.00084 L -525.00799 825.00084 L -525.00799 725.0029 L -524.99766 725.0029 A 174.99985 174.99985 0 0 0 -349.9974 549.99748 z M -449.99533 549.99748 A 74.999951 74.999951 0 0 1 -524.99766 625.00497 L -524.99766 624.9998 L -525.00799 624.9998 L -525.00799 475.00032 L -524.99249 475.00032 A 74.999951 74.999951 0 0 1 -449.99533 549.99748 z M -625.00593 475.00032 L -625.00593 624.9998 L -675.00231 624.9998 L -675.00231 475.00032 L -625.00593 475.00032 z M -775.00541 475.00032 L -775.00541 624.9998 L -825.0018 624.9998 L -825.0018 475.00032 L -775.00541 475.00032 z M -924.99973 475.00032 L -924.99973 625.00497 A 74.999951 74.999951 0 0 1 -925.0049 625.00497 A 74.999951 74.999951 0 0 1 -1000.0021 549.99748 A 74.999951 74.999951 0 0 1 -925.0049 475.00032 A 74.999951 74.999951 0 0 1 -924.99973 475.00032 z "
       transform="rotate(-90)" />
  </g>
</svg>
