<?xml version="1.0" encoding="UTF-8" standalone="no"?>
<!-- Created with Inkscape (http://www.inkscape.org/) -->

<svg
   width="110mm"
   height="130mm"
   viewBox="0 0 110 130"
   version="1.1"
   id="svg1"
   sodipodi:docname="akesi2.svg"
   inkscape:version="1.3.2 (091e20ef0f, 2023-11-25, custom)"
   xmlns:inkscape="http://www.inkscape.org/namespaces/inkscape"
   xmlns:sodipodi="http://sodipodi.sourceforge.net/DTD/sodipodi-0.dtd"
   xmlns="http://www.w3.org/2000/svg"
   xmlns:svg="http://www.w3.org/2000/svg">
  <sodipodi:namedview
     id="namedview1"
     pagecolor="#505050"
     bordercolor="#eeeeee"
     borderopacity="1"
     inkscape:showpageshadow="0"
     inkscape:pageopacity="0"
     inkscape:pagecheckerboard="0"
     inkscape:deskcolor="#505050"
     inkscape:document-units="mm"
     showgrid="true"
     inkscape:zoom="0.88464241"
     inkscape:cx="87.606019"
     inkscape:cy="281.46966"
     inkscape:window-width="1366"
     inkscape:window-height="768"
     inkscape:window-x="0"
     inkscape:window-y="0"
     inkscape:window-maximized="1"
     inkscape:current-layer="layer1">
    <inkscape:grid
       id="grid2"
       units="mm"
       originx="0"
       originy="0"
       spacingx="2.5"
       spacingy="2.5"
       empcolor="#ffffff"
       empopacity="0.30196078"
       color="#ffffff"
       opacity="0.14901961"
       empspacing="4"
       dotted="false"
       gridanglex="30"
       gridanglez="30"
       visible="true" />
  </sodipodi:namedview>
  <defs
     id="defs1" />
  <g
     id="layer1"
     transform="matrix(0.10000113,0,0,0.10000113,-6.2550274e-4,-0.001238)">
    <circle
       style="font-variation-settings:'wght' 700;fill:#000000;stroke-width:3.74177"
       id="path3"
       cx="1029.2894"
       cy="675.00214"
       transform="matrix(0,1,1,0,0,0)"
       r="70.710548" />
    <circle
       style="font-variation-settings:'wght' 700;fill:#000000;stroke-width:3.74177"
       id="path3-6"
       cx="1029.2894"
       cy="425.00232"
       transform="matrix(0,1,1,0,0,0)"
       r="70.710548" />
    <path
       id="rect6"
       style="font-variation-settings:'wght' 700;fill:#000000;fill-opacity:1;stroke-width:2.77497"
       d="M 549.99748 -199.99275 A 174.99985 174.99985 0 0 1 375.00238 -374.99301 A 174.99985 174.99985 0 0 0 375.00238 -374.99817 A 174.99985 174.99985 0 0 0 375.00238 -375.00334 L 375.00238 -412.49934 L 275.00445 -412.49934 L 275.00445 -512.50244 L 375.00238 -512.50244 L 375.00238 -637.50115 L 275.00445 -637.50115 L 275.00445 -737.49908 L 375.00238 -737.49908 L 375.00238 -775.00025 A 174.99985 174.99985 0 0 1 549.99748 -950.00051 A 174.99985 174.99985 0 0 1 725.0029 -775.00025 A 174.99985 174.99985 0 0 1 725.0029 -774.99508 L 725.0029 -737.49908 L 825.00084 -737.49908 L 825.00084 -637.50115 L 725.0029 -637.50115 L 725.0029 -512.50244 L 825.00084 -512.50244 L 825.00084 -412.49934 L 725.0029 -412.49934 L 725.0029 -375.00334 L 725.0029 -374.99817 A 174.99985 174.99985 0 0 0 725.0029 -374.99301 A 174.99985 174.99985 0 0 1 549.99748 -199.99275 z M 549.99748 -299.99585 A 74.999951 74.999951 0 0 0 625.00497 -374.99301 A 74.999951 74.999951 0 0 1 625.00497 -374.99817 L 624.9998 -374.99817 L 624.9998 -412.49934 L 475.00032 -412.49934 L 475.00032 -374.99817 A 74.999951 74.999951 0 0 1 475.00032 -374.99301 A 74.999951 74.999951 0 0 0 549.99748 -299.99585 z M 475.00032 -512.50244 L 624.9998 -512.50244 L 624.9998 -637.50115 L 475.00032 -637.50115 L 475.00032 -512.50244 z M 475.00032 -737.49908 L 624.9998 -737.49908 L 624.9998 -775.00025 L 625.00497 -775.00025 A 74.999951 74.999951 0 0 0 549.99748 -850.00257 A 74.999951 74.999951 0 0 0 475.00032 -774.99508 L 475.00032 -737.49908 z "
       transform="scale(1,-1)" />
  </g>
</svg>
