<?xml version="1.0" encoding="UTF-8" standalone="no"?>
<!-- Created with Inkscape (http://www.inkscape.org/) -->

<svg
   width="110mm"
   height="130mm"
   viewBox="0 0 110 130"
   version="1.1"
   id="svg1"
   sodipodi:docname="akesi4.svg"
   inkscape:version="1.3.2 (091e20ef0f, 2023-11-25, custom)"
   xmlns:inkscape="http://www.inkscape.org/namespaces/inkscape"
   xmlns:sodipodi="http://sodipodi.sourceforge.net/DTD/sodipodi-0.dtd"
   xmlns="http://www.w3.org/2000/svg"
   xmlns:svg="http://www.w3.org/2000/svg">
  <sodipodi:namedview
     id="namedview1"
     pagecolor="#505050"
     bordercolor="#eeeeee"
     borderopacity="1"
     inkscape:showpageshadow="0"
     inkscape:pageopacity="0"
     inkscape:pagecheckerboard="0"
     inkscape:deskcolor="#505050"
     inkscape:document-units="mm"
     showgrid="true"
     inkscape:zoom="1.0046219"
     inkscape:cx="88.590539"
     inkscape:cy="146.3237"
     inkscape:window-width="1366"
     inkscape:window-height="768"
     inkscape:window-x="0"
     inkscape:window-y="0"
     inkscape:window-maximized="1"
     inkscape:current-layer="layer1">
    <inkscape:grid
       id="grid2"
       units="mm"
       originx="0"
       originy="0"
       spacingx="2.5"
       spacingy="2.5"
       empcolor="#ffffff"
       empopacity="0.30196078"
       color="#ffffff"
       opacity="0.14901961"
       empspacing="4"
       dotted="false"
       gridanglex="30"
       gridanglez="30"
       visible="true" />
  </sodipodi:namedview>
  <defs
     id="defs1" />
  <g
     id="layer1"
     transform="matrix(0.10000113,0,0,0.10000113,-6.2550274e-4,-0.001238)">
    <path
       id="path3"
       style="font-variation-settings:'wght' 700;fill:#000000;stroke-width:3.74177"
       d="M 425.00393,1100 A 70.710548,70.710548 0 0 1 354.2907,1029.2868 70.710548,70.710548 0 0 1 425.00393,958.57871 70.710548,70.710548 0 0 1 495.712,1029.2868 70.710548,70.710548 0 0 1 425.00393,1100 Z m 249.99742,0 a 70.710548,70.710548 0 0 1 -70.70806,-70.7132 70.710548,70.710548 0 0 1 70.70806,-70.70809 70.710548,70.710548 0 0 1 70.71323,70.70809 A 70.710548,70.710548 0 0 1 675.00135,1100 Z M 549.99748,949.99535 A 174.99985,174.99985 0 0 1 375.00238,774.99509 v -0.0103 h -100.0031 v -99.99794 h 100.0031 v -49.99638 h -100.0031 v -100.0031 h 100.0031 v -49.99639 h -100.0031 v -99.99793 h 100.0031 a 174.99985,174.99985 0 0 1 0,-0.005 174.99985,174.99985 0 0 1 174.9951,-174.9951 174.99985,174.99985 0 0 1 175.00542,174.9951 174.99985,174.99985 0 0 1 0,0.005 h 99.99277 v 99.99793 H 725.0029 v 49.99639 h 99.99794 v 100.0031 H 725.0029 v 49.99638 h 99.99277 v 99.99794 H 725.0029 v 0.0103 A 174.99985,174.99985 0 0 1 549.99748,949.99535 Z m 0,-99.99793 a 74.999951,74.999951 0 0 0 75.00749,-75.00233 h -0.005 v -0.0103 H 475.00032 v 0.0155 a 74.999951,74.999951 0 0 0 74.99716,74.99716 z M 475.00032,674.98682 H 624.9998 V 624.99044 H 475.00032 Z m 0,-149.99948 H 624.9998 V 474.99095 H 475.00032 Z m 0,-149.99432 h 150.00465 a 74.999951,74.999951 0 0 0 0,-0.005 74.999951,74.999951 0 0 0 -75.00749,-74.9972 74.999951,74.999951 0 0 0 -74.99716,74.9972 74.999951,74.999951 0 0 0 0,0.005 z" />
  </g>
</svg>
