<?xml version="1.0" encoding="UTF-8" standalone="no"?>
<!-- Created with Inkscape (http://www.inkscape.org/) -->

<svg
   width="1100mm"
   height="1300mm"
   viewBox="0 0 1100 1300"
   version="1.1"
   id="svg1"
   inkscape:version="1.3.2 (091e20ef0f, 2023-11-25, custom)"
   sodipodi:docname="apeja.svg"
   xmlns:inkscape="http://www.inkscape.org/namespaces/inkscape"
   xmlns:sodipodi="http://sodipodi.sourceforge.net/DTD/sodipodi-0.dtd"
   xmlns="http://www.w3.org/2000/svg"
   xmlns:svg="http://www.w3.org/2000/svg">
  <sodipodi:namedview
     id="namedview1"
     pagecolor="#505050"
     bordercolor="#eeeeee"
     borderopacity="1"
     inkscape:showpageshadow="0"
     inkscape:pageopacity="0"
     inkscape:pagecheckerboard="0"
     inkscape:deskcolor="#505050"
     inkscape:document-units="mm"
     showgrid="true"
     inkscape:zoom="0.112194"
     inkscape:cx="1773.7133"
     inkscape:cy="2428.8286"
     inkscape:window-width="1354"
     inkscape:window-height="733"
     inkscape:window-x="5"
     inkscape:window-y="5"
     inkscape:window-maximized="1"
     inkscape:current-layer="layer1">
    <inkscape:grid
       id="grid1"
       units="mm"
       originx="0"
       originy="0"
       spacingx="24.999999"
       spacingy="25"
       empcolor="#ffffff"
       empopacity="0.30196078"
       color="#ffffff"
       opacity="0.14901961"
       empspacing="4"
       dotted="false"
       gridanglex="30"
       gridanglez="30"
       visible="true" />
  </sodipodi:namedview>
  <defs
     id="defs1">
    <inkscape:perspective
       sodipodi:type="inkscape:persp3d"
       inkscape:vp_x="0 : 1245 : 1"
       inkscape:vp_y="0 : 999.99998 : 0"
       inkscape:vp_z="109.99999 : 1245 : 1"
       inkscape:persp3d-origin="54.999996 : 1226.6667 : 1"
       id="perspective27" />
    <inkscape:path-effect
       effect="spiro"
       id="path-effect26"
       is_visible="true"
       lpeversion="1" />
    <inkscape:path-effect
       effect="spiro"
       id="path-effect25"
       is_visible="true"
       lpeversion="1" />
    <inkscape:path-effect
       effect="spiro"
       id="path-effect22"
       is_visible="true"
       lpeversion="1" />
    <inkscape:path-effect
       effect="spiro"
       id="path-effect11"
       is_visible="true"
       lpeversion="1" />
    <inkscape:path-effect
       effect="spiro"
       id="path-effect11-1"
       is_visible="true"
       lpeversion="1" />
  </defs>
  <g
     inkscape:label="Layer 1"
     inkscape:groupmode="layer"
     id="layer1">
    <path
       id="rect32-5"
       style="font-variation-settings:'wght' 700;fill:#000000;fill-opacity:1;stroke:none;stroke-width:463.737;stroke-miterlimit:100;stroke-dasharray:none;stroke-opacity:1"
       d="M 155.64719,900.00098 99.99685,816.88468 549.99998,499.99999 999.99785,816.88468 944.34757,900.00098 549.99998,622.30766 Z"
       sodipodi:nodetypes="ccccccc" />
    <path
       id="path1"
       style="font-variation-settings:'wght' 400;vector-effect:non-scaling-stroke;fill:#000000;stroke-width:0.264583;-inkscape-stroke:hairline;paint-order:stroke fill markers"
       d="M 549.99998,724.99999 A 174.99994,174.99994 0 0 0 375.00032,899.99964 174.99994,174.99994 0 0 0 549.99998,1074.9998 174.99994,174.99994 0 0 0 725.00015,899.99964 174.99994,174.99994 0 0 0 549.99998,724.99999 Z m 0,99.99958 a 74.999992,74.999992 0 0 1 75.00007,75.00007 74.999992,74.999992 0 0 1 -75.00007,75.00007 74.999992,74.999992 0 0 1 -75.00008,-75.00007 74.999992,74.999992 0 0 1 75.00008,-75.00007 z" />
    <path
       id="path1-0"
       style="font-variation-settings:'wght' 400;vector-effect:non-scaling-stroke;fill:#000000;stroke-width:0.264583;-inkscape-stroke:hairline;paint-order:stroke fill markers"
       d="M 824.9997,225 A 174.99994,174.99994 0 0 0 650.00004,399.99965 174.99994,174.99994 0 0 0 824.9997,574.99981 174.99994,174.99994 0 0 0 999.9999,399.99965 174.99994,174.99994 0 0 0 824.9997,225 Z m 0,99.99958 a 74.999992,74.999992 0 0 1 75.00007,75.00007 74.999992,74.999992 0 0 1 -75.00007,75.00007 74.999992,74.999992 0 0 1 -75.00008,-75.00007 74.999992,74.999992 0 0 1 75.00008,-75.00007 z" />
    <path
       id="path1-0-8"
       style="font-variation-settings:'wght' 400;vector-effect:non-scaling-stroke;fill:#000000;stroke-width:0.264583;-inkscape-stroke:hairline;paint-order:stroke fill markers"
       d="M 274.99999,225.00041 A 174.99994,174.99994 0 0 0 100.00033,400.00006 174.99994,174.99994 0 0 0 274.99999,575.00022 174.99994,174.99994 0 0 0 450.00019,400.00006 174.99994,174.99994 0 0 0 274.99999,225.00041 Z m 0,99.99958 a 74.999992,74.999992 0 0 1 75.00007,75.00007 74.999992,74.999992 0 0 1 -75.00007,75.00007 74.999992,74.999992 0 0 1 -75.00008,-75.00007 74.999992,74.999992 0 0 1 75.00008,-75.00007 z" />
  </g>
</svg>
