<?xml version="1.0" encoding="UTF-8" standalone="no"?>
<!-- Created with Inkscape (http://www.inkscape.org/) -->

<svg
   width="110mm"
   height="130mm"
   viewBox="0 0 110 130"
   version="1.1"
   id="svg1"
   inkscape:version="1.3.2 (091e20ef0f, 2023-11-25, custom)"
   sodipodi:docname="esun2.svg"
   xmlns:inkscape="http://www.inkscape.org/namespaces/inkscape"
   xmlns:sodipodi="http://sodipodi.sourceforge.net/DTD/sodipodi-0.dtd"
   xmlns="http://www.w3.org/2000/svg"
   xmlns:svg="http://www.w3.org/2000/svg">
  <sodipodi:namedview
     id="namedview1"
     pagecolor="#505050"
     bordercolor="#eeeeee"
     borderopacity="1"
     inkscape:showpageshadow="0"
     inkscape:pageopacity="0"
     inkscape:pagecheckerboard="0"
     inkscape:deskcolor="#505050"
     inkscape:document-units="mm"
     showgrid="true"
     inkscape:zoom="0.85144919"
     inkscape:cx="212.57875"
     inkscape:cy="305.94897"
     inkscape:window-width="1354"
     inkscape:window-height="733"
     inkscape:window-x="5"
     inkscape:window-y="5"
     inkscape:window-maximized="1"
     inkscape:current-layer="layer1">
    <inkscape:grid
       id="grid1"
       units="mm"
       originx="0"
       originy="0"
       spacingx="2.5000001"
       spacingy="2.5000001"
       empcolor="#ffffff"
       empopacity="0.30196078"
       color="#ffffff"
       opacity="0.14901961"
       empspacing="4"
       dotted="false"
       gridanglex="30"
       gridanglez="30"
       visible="true" />
  </sodipodi:namedview>
  <defs
     id="defs1" />
  <g
     inkscape:label="Layer 1"
     inkscape:groupmode="layer"
     id="layer1">
    <path
       id="path2"
       style="vector-effect:non-scaling-stroke;fill:#000000;stroke-width:0.264583;stroke-miterlimit:40;-inkscape-stroke:hairline;paint-order:stroke fill markers"
       d="m 59.999998,50.000001 -4.3e-5,-10.000375 c 5.3e-5,-5.522961 4.477465,-10.000139 10.000423,-9.999907 l 9.99939,5.17e-4 c 5.52296,-2.32e-4 10.000369,4.476949 10.000423,9.999906 -5.3e-5,5.522961 -4.477462,10.000139 -10.000423,9.999907 z m 19.99977,9.999954 C 91.045486,60.000137 99.99999,51.04586 100.0001,40.000142 100.00028,28.954222 91.045688,19.999631 79.999768,19.999813 h -9.99939 C 58.954661,19.999632 50.000153,28.953909 50.000049,39.999626 V 50.000049 C 33.431525,49.999893 20.000201,36.568337 20.00033,19.999813 H 9.9999064 C 9.9998258,42.091315 27.908547,60.000036 50.000049,59.999955 v 9.999907 H 30.000236 C 18.954518,69.99968 10.000011,78.953959 9.9999064,89.999674 9.9997264,101.0456 18.954316,110.00018 30.000236,110 h 9.99939 c 11.045717,1.8e-4 20.000225,-8.95409 20.000329,-19.999809 V 79.999768 C 76.568462,79.999924 89.999801,93.431498 89.999674,110 H 100.0001 c 8e-5,-22.091475 -17.908666,-40.00022 -40.000145,-40.000138 l 4.3e-5,-9.999861 z M 30.000236,79.999768 h 19.999813 v 10.000423 c -5.3e-5,5.522961 -4.477465,10.000139 -10.000423,9.999909 l -9.99939,-5.19e-4 c -5.522957,2.32e-4 -10.000369,-4.476947 -10.000423,-9.999907 5.3e-5,-5.522958 4.477465,-10.000138 10.000423,-9.999906 z"
       sodipodi:nodetypes="ccccccccccccccccccccccccccccccccccc" />
  </g>
</svg>
