<?xml version="1.0" encoding="UTF-8" standalone="no"?>
<!-- Created with Inkscape (http://www.inkscape.org/) -->

<svg
   width="110mm"
   height="130mm"
   viewBox="0 0 110 130"
   version="1.1"
   id="svg1"
   inkscape:version="1.3.2 (091e20ef0f, 2023-11-25, custom)"
   sodipodi:docname="jaki.svg"
   xmlns:inkscape="http://www.inkscape.org/namespaces/inkscape"
   xmlns:sodipodi="http://sodipodi.sourceforge.net/DTD/sodipodi-0.dtd"
   xmlns="http://www.w3.org/2000/svg"
   xmlns:svg="http://www.w3.org/2000/svg">
  <sodipodi:namedview
     id="namedview1"
     pagecolor="#505050"
     bordercolor="#eeeeee"
     borderopacity="1"
     inkscape:showpageshadow="0"
     inkscape:pageopacity="0"
     inkscape:pagecheckerboard="0"
     inkscape:deskcolor="#505050"
     inkscape:document-units="mm"
     showgrid="true"
     inkscape:zoom="0.96604474"
     inkscape:cx="188.91465"
     inkscape:cy="278.45501"
     inkscape:window-width="1366"
     inkscape:window-height="768"
     inkscape:window-x="0"
     inkscape:window-y="0"
     inkscape:window-maximized="1"
     inkscape:current-layer="layer1">
    <inkscape:grid
       id="grid1"
       units="mm"
       originx="0"
       originy="0"
       spacingx="2.5000001"
       spacingy="2.5000001"
       empcolor="#ffffff"
       empopacity="0.30196078"
       color="#ffffff"
       opacity="0.14901961"
       empspacing="4"
       dotted="false"
       gridanglex="30"
       gridanglez="30"
       visible="true" />
  </sodipodi:namedview>
  <defs
     id="defs1">
    <inkscape:path-effect
       effect="spiro"
       id="path-effect4"
       is_visible="true"
       lpeversion="1" />
    <inkscape:path-effect
       effect="spiro"
       id="path-effect3"
       is_visible="true"
       lpeversion="1" />
    <inkscape:path-effect
       effect="spiro"
       id="path-effect2"
       is_visible="true"
       lpeversion="1" />
    <inkscape:path-effect
       effect="spiro"
       id="path-effect26"
       is_visible="true"
       lpeversion="1" />
    <inkscape:path-effect
       effect="spiro"
       id="path-effect25"
       is_visible="true"
       lpeversion="1" />
    <inkscape:path-effect
       effect="spiro"
       id="path-effect22"
       is_visible="true"
       lpeversion="1" />
    <inkscape:path-effect
       effect="spiro"
       id="path-effect11"
       is_visible="true"
       lpeversion="1" />
    <inkscape:path-effect
       effect="spiro"
       id="path-effect11-1"
       is_visible="true"
       lpeversion="1" />
    <inkscape:path-effect
       effect="spiro"
       id="path-effect2-7"
       is_visible="true"
       lpeversion="1" />
    <inkscape:path-effect
       effect="spiro"
       id="path-effect2-0"
       is_visible="true"
       lpeversion="1" />
  </defs>
  <g
     inkscape:label="Layer 1"
     inkscape:groupmode="layer"
     id="layer1">
    <path
       style="color:#000000;fill:#000000;stroke-miterlimit:100;-inkscape-stroke:none"
       d="M 63.193359,9.5253906 41.25,14.820313 c -4.127489,0.995919 -8.662584,2.104153 -13.111328,4.371093 -4.471673,2.278624 -8.559305,5.637866 -11.416016,10.125 -2.862238,4.495817 -4.244879,9.762449 -4.066406,15.029297 0.177528,5.238945 1.854403,10.122216 4.228516,14.382813 1.530786,2.747157 3.270548,5.112805 5.03125,7.353515 -3.102957,3.545369 -5.723418,7.638173 -7.056641,12.511719 -1.252461,4.578321 -1.390469,9.897209 1.054688,14.78125 1.229143,2.455135 3.070433,4.664153 5.527343,6.263672 2.478305,1.613448 5.440518,2.506198 8.574219,2.312498 3.513058,-0.21715 6.624388,-1.75396 8.990234,-4.033201 2.337764,-2.252184 3.800774,-5.072108 4.517578,-7.994141 C 44.943487,84.135042 43.417921,78.554049 41.080078,74.033203 39.757892,71.476402 38.227367,69.24155 36.648437,67.136719 40.970527,63.999557 45.889956,61.183966 51,57.876953 c 4.151481,-2.686669 7.914217,-5.460838 11.673828,-7.724609 3.750642,-2.25837 7.546757,-4.022458 11.304688,-4.769532 1.065749,-0.21187 2.110942,-0.139695 3.169921,-0.175781 0.245813,0.523618 0.481214,1.051181 0.603516,1.576172 0.303603,1.303233 0.210648,2.693276 -0.210937,3.763672 -0.477816,1.213162 -1.576222,2.527149 -3.076172,3.585937 -1.533993,1.082819 -3.525365,1.972881 -5.810547,2.804688 -2.290102,0.833597 -4.898436,1.619204 -7.660156,2.783203 -2.772943,1.168729 -5.712089,2.735607 -8.28125,5.197266 -3.169823,3.037186 -5.257977,6.996005 -6.035157,11.271484 -0.775963,4.268789 -0.212107,8.650448 1.541016,12.570313 1.750572,3.914161 4.610733,7.204991 8.167969,9.517578 3.552444,2.309476 7.667178,3.559066 11.857422,3.681636 5.690925,0.16648 11.092198,-1.73754 15.521484,-4.837886 4.399398,-3.079425 7.739454,-7.226399 10.136719,-11.699219 4.77129,-8.902278 5.77841,-18.651373 6.414066,-27.541016 0.12116,-1.694456 0.28595,-3.746239 -0.0352,-6.101562 C 99.82426,48.427339 98.443832,45.354373 96.449219,42.789062 94.462479,40.233879 91.931562,38.259899 89.15625,36.875 87.021889,35.80994 84.79087,35.207977 82.544922,34.816406 78.541808,30.874596 73.461628,28.700178 68.519531,27.699219 61.370565,26.251286 53.889252,26.882443 47.083984,29.507812 40.278717,32.133182 34.312511,36.690334 29.988281,42.564453 l 8.582031,6.318359 c 3.096695,-4.20661 7.476179,-7.551544 12.34961,-9.43164 3.939235,-1.519697 8.274273,-2.06322 12.498047,-1.6875 -2.181689,0.987102 -4.284753,2.079184 -6.242188,3.257812 -4.334792,2.610105 -8.185968,5.461405 -11.966797,7.908203 -4.755896,3.077823 -10.101194,6.082539 -15.269531,9.904297 -1.434521,-1.773193 -2.755451,-3.520613 -3.744141,-5.294922 -1.716641,-3.080694 -2.779627,-6.394357 -2.886718,-9.554687 -0.106146,-3.132426 0.753163,-6.349867 2.404297,-8.943359 1.65666,-2.602175 4.249324,-4.816504 7.265625,-6.353516 C 36.017745,27.138804 39.70785,26.155016 43.75,25.179687 L 65.693359,19.886719 Z M 88.435547,50.007812 c 0.649491,1.015234 1.134548,2.122531 1.283203,3.212891 0.130022,0.95369 0.08187,2.261775 -0.03516,3.898438 -0.612876,8.571114 -1.675744,16.740847 -5.173828,23.267578 -1.737423,3.241684 -4.084283,6.06222 -6.855469,8.001953 -2.741298,1.918813 -6.039655,3.007422 -9.097656,2.917969 -2.245029,-0.06567 -4.516118,-0.765258 -6.361329,-1.964844 -1.840418,-1.196471 -3.36822,-2.970729 -4.246093,-4.933594 -0.875323,-1.957162 -1.160603,-4.247063 -0.785157,-6.3125 0.374231,-2.058746 1.445062,-4.065532 2.923829,-5.482422 1.226944,-1.175605 2.975158,-2.197133 5.046875,-3.070312 2.082939,-0.877909 4.515837,-1.625179 7.166015,-2.589844 2.655098,-0.966456 5.549424,-2.164253 8.310547,-4.113281 2.795165,-1.973059 5.398849,-4.708231 6.847656,-8.386719 0.571572,-1.451208 0.832381,-2.949874 0.976563,-4.445313 z m -59.72461,24.482422 c 1.125001,1.478372 2.127035,2.940185 2.902344,4.439453 1.522505,2.944171 2.140791,6.081772 1.558594,8.455079 -0.284318,1.159014 -0.872141,2.194217 -1.560547,2.857421 -0.660323,0.63615 -1.57097,1.030173 -2.251953,1.072266 -0.612677,0.03787 -1.436178,-0.172966 -2.103516,-0.607422 -0.688733,-0.448385 -1.359337,-1.202254 -1.810547,-2.103515 -0.915549,-1.828751 -1.033098,-4.534588 -0.304687,-7.197266 0.658482,-2.407056 1.909436,-4.733461 3.570312,-6.916016 z"
       id="path4"
       transform="matrix(0.90277623,0,0,0.9750428,3.9466244,10.712957)" />
  </g>
</svg>
