<?xml version="1.0" encoding="UTF-8" standalone="no"?>
<!-- Created with Inkscape (http://www.inkscape.org/) -->

<svg
   width="110mm"
   height="130mm"
   viewBox="0 0 110 130"
   version="1.1"
   id="svg1"
   inkscape:version="1.3.2 (091e20ef0f, 2023-11-25, custom)"
   sodipodi:docname="ko.svg"
   xmlns:inkscape="http://www.inkscape.org/namespaces/inkscape"
   xmlns:sodipodi="http://sodipodi.sourceforge.net/DTD/sodipodi-0.dtd"
   xmlns="http://www.w3.org/2000/svg"
   xmlns:svg="http://www.w3.org/2000/svg">
  <sodipodi:namedview
     id="namedview1"
     pagecolor="#505050"
     bordercolor="#eeeeee"
     borderopacity="1"
     inkscape:showpageshadow="0"
     inkscape:pageopacity="0"
     inkscape:pagecheckerboard="0"
     inkscape:deskcolor="#505050"
     inkscape:document-units="mm"
     showgrid="true"
     inkscape:zoom="1.0541579"
     inkscape:cx="186.40472"
     inkscape:cy="203.00565"
     inkscape:window-width="1366"
     inkscape:window-height="768"
     inkscape:window-x="0"
     inkscape:window-y="0"
     inkscape:window-maximized="1"
     inkscape:current-layer="layer1">
    <inkscape:grid
       id="grid1"
       units="mm"
       originx="0"
       originy="0"
       spacingx="2.5000001"
       spacingy="2.5000001"
       empcolor="#ffffff"
       empopacity="0.30196078"
       color="#ffffff"
       opacity="0.14901961"
       empspacing="4"
       dotted="false"
       gridanglex="30"
       gridanglez="30"
       visible="true" />
  </sodipodi:namedview>
  <defs
     id="defs1">
    <inkscape:path-effect
       effect="spiro"
       id="path-effect6"
       is_visible="true"
       lpeversion="1" />
    <inkscape:path-effect
       effect="spiro"
       id="path-effect5"
       is_visible="true"
       lpeversion="1" />
    <inkscape:path-effect
       effect="spiro"
       id="path-effect4"
       is_visible="true"
       lpeversion="1" />
    <inkscape:path-effect
       effect="spiro"
       id="path-effect3"
       is_visible="true"
       lpeversion="1" />
    <inkscape:path-effect
       effect="spiro"
       id="path-effect2"
       is_visible="true"
       lpeversion="1" />
    <inkscape:path-effect
       effect="spiro"
       id="path-effect26"
       is_visible="true"
       lpeversion="1" />
    <inkscape:path-effect
       effect="spiro"
       id="path-effect25"
       is_visible="true"
       lpeversion="1" />
    <inkscape:path-effect
       effect="spiro"
       id="path-effect22"
       is_visible="true"
       lpeversion="1" />
    <inkscape:path-effect
       effect="spiro"
       id="path-effect11"
       is_visible="true"
       lpeversion="1" />
    <inkscape:path-effect
       effect="spiro"
       id="path-effect11-1"
       is_visible="true"
       lpeversion="1" />
    <inkscape:path-effect
       effect="spiro"
       id="path-effect2-7"
       is_visible="true"
       lpeversion="1" />
    <inkscape:path-effect
       effect="spiro"
       id="path-effect2-0"
       is_visible="true"
       lpeversion="1" />
  </defs>
  <g
     inkscape:label="Layer 1"
     inkscape:groupmode="layer"
     id="layer1">
    <path
       style="color:#000000;fill:#000000;stroke-miterlimit:100;-inkscape-stroke:none"
       d="m 43.192837,20.544734 c -2.368791,0.0492 -4.791022,0.528259 -7.130859,1.632812 -2.356102,1.112232 -4.494983,2.821728 -6.044922,5.150391 -1.565462,2.351985 -2.426833,5.19094 -2.199219,8.195312 0.275079,3.630881 1.791656,6.053845 2.453125,7.675781 0.326537,0.800676 0.49605,1.417315 0.539063,1.804688 0.03915,0.352564 -0.04325,0.539811 0.002,0.447265 0.06008,-0.123004 -0.145289,0.186302 -0.677735,0.414063 -0.602578,0.257761 -1.628574,0.477731 -3.033203,0.699219 -1.412527,0.222733 -3.234141,0.454823 -5.28125,1.255859 -2.110321,0.825773 -4.387353,2.258583 -5.863281,4.855469 -1.35977,2.3925 -1.579561,5.01344 -1.042969,7.412109 0.525587,2.349473 1.72922,4.284755 3.185547,5.800781 2.863814,2.981211 6.344477,4.148957 9.13086,4.980469 2.744243,0.818936 4.922085,1.398682 6.292968,2.222656 0.67073,0.403145 1.161117,0.857689 1.433594,1.242188 0.253652,0.357934 0.346051,0.734552 0.347656,0.871094 0.0018,0.151889 -0.09886,0.62253 -0.439453,1.148437 -0.361882,0.558774 -0.997275,1.23648 -1.876953,1.992188 -1.77852,1.527881 -4.803567,3.344814 -6.994141,7.054687 -1.27995,2.167677 -1.929337,4.586566 -1.984375,7.023438 -0.05486,2.429238 0.481281,4.782907 1.478516,6.910155 2.001212,4.268875 5.652745,7.275735 9.78125,8.830065 4.074754,1.5341 8.371689,1.60112 12.318359,0.74805 3.917804,-0.84683 7.416806,-2.56351 10.484375,-4.60156 2.845877,-1.89076 5.178951,-3.92441 7.382813,-5.568355 2.195289,-1.637548 4.303533,-2.908551 6.296875,-3.513668 1.979183,-0.600819 5.00591,-0.683232 8.705078,-1.792969 1.863645,-0.559087 3.874722,-1.425815 5.707031,-2.951171 1.871871,-1.558293 3.452386,-3.731674 4.03125,-6.527344 0.404389,-1.953025 0.231463,-3.837257 -0.27539,-5.53125 -0.502049,-1.677938 -1.312436,-3.110486 -2.226563,-4.326172 -1.815672,-2.414638 -3.936612,-3.928117 -5.615234,-5.179688 -1.667291,-1.243121 -2.939778,-2.269925 -3.638672,-3.185546 -0.34326,-0.449704 -0.558634,-0.87324 -0.658203,-1.19336 -0.09467,-0.304357 -0.08969,-0.563565 -0.07227,-0.654297 0.03048,-0.158705 0.363,-0.778026 1.064453,-1.285156 0.773074,-0.55891 2.016038,-1.092326 3.634766,-1.650391 1.627211,-0.560989 3.664763,-1.161566 5.847656,-2.351562 2.230964,-1.216201 4.571973,-3.063131 5.972656,-6.011719 0.994928,-2.094414 1.29311,-4.332901 1.046875,-6.482422 -0.244372,-2.133251 -1.011339,-4.07333 -2.091796,-5.74414 -2.15043,-3.325343 -5.323705,-5.343714 -8.445356,-6.552735 -6.139672,-2.377903 -11.694902,-2.035619 -15.529297,-3.162109 -5.290076,-1.554149 -10.845988,-6.722234 -19.203125,-9.150391 -2.129149,-0.618621 -4.443708,-1.000374 -6.8125,-0.951171 z m 0.273438,10.027343 c 1.182906,-0.0209 2.468468,0.154997 3.75,0.527344 5.285581,1.53572 10.831113,6.690228 19.171875,9.140625 6.057181,1.779513 11.264199,1.549014 14.738281,2.894531 1.685227,0.652692 3.011386,1.65495 3.660156,2.658203 0.319123,0.49349 0.503773,1.021813 0.552735,1.449219 0.0471,0.411137 -0.03353,0.822977 -0.144532,1.056641 -0.165693,0.348801 -0.752335,0.990389 -1.726562,1.521484 -1.022298,0.557302 -2.496343,1.046958 -4.320313,1.675781 -1.832452,0.631748 -4.049097,1.422061 -6.234375,3.001953 -2.256896,1.63167 -4.367363,4.075654 -5.02539,7.501954 -0.374975,1.95246 -0.177559,3.829424 0.345703,5.511718 0.518352,1.666533 1.336766,3.08496 2.255859,4.289063 1.82581,2.391995 3.940773,3.890666 5.609375,5.134765 1.65727,1.235651 2.916462,2.262722 3.601563,3.173829 0.33626,0.447188 0.542384,0.868309 0.636718,1.183593 0.08953,0.299231 0.08191,0.552426 0.06445,0.636719 -0.02344,0.113211 -0.225564,0.526863 -0.636719,0.869141 -0.450717,0.375211 -1.199979,0.764098 -2.181641,1.058593 -1.991442,0.597426 -5.032474,0.675813 -8.738281,1.800782 -3.733518,1.133381 -6.767159,3.12939 -9.369141,5.070312 -2.593409,1.934528 -4.80033,3.830751 -6.939453,5.251953 -2.290093,1.521507 -4.691202,2.646065 -7.060547,3.158205 -2.340477,0.50589 -4.738512,0.39831 -6.683593,-0.33399 -1.891333,-0.71206 -3.520917,-2.159598 -4.25,-3.71484 -0.367913,-0.784813 -0.552911,-1.653342 -0.535157,-2.439453 0.01758,-0.778479 0.240394,-1.562322 0.595703,-2.164062 0.641815,-1.086953 2.453407,-2.452547 4.900391,-4.554688 1.233076,-1.059302 2.601709,-2.3635 3.753906,-4.142578 1.173484,-1.811945 2.077826,-4.067937 2.046875,-6.701172 -0.02954,-2.51269 -0.911236,-4.731433 -2.189453,-6.535156 -1.259391,-1.77716 -2.839384,-3.069523 -4.439453,-4.03125 -3.17071,-1.905767 -6.252621,-2.538068 -8.585937,-3.234375 -2.291177,-0.683733 -3.972271,-1.486062 -4.779297,-2.326172 -0.379093,-0.394633 -0.58587,-0.820604 -0.638672,-1.056641 -0.0418,-0.18684 0.03112,-0.376223 -0.01953,-0.287109 -0.04032,0.07094 0.217183,-0.251426 0.8125,-0.484375 0.658529,-0.257683 1.737899,-0.461595 3.195312,-0.691406 1.465312,-0.231056 3.339515,-0.495951 5.408203,-1.38086 2.13882,-0.914909 4.393259,-2.487089 5.728516,-5.220703 1.002664,-2.05271 1.154727,-4.123835 0.953125,-5.939453 -0.197737,-1.780806 -0.721486,-3.257258 -1.21875,-4.476562 -0.986135,-2.418024 -1.685712,-3.936586 -1.740235,-4.65625 -0.0407,-0.537205 0.148302,-1.293742 0.550782,-1.898438 0.418003,-0.628016 1.134497,-1.242521 1.990234,-1.646484 0.872002,-0.411641 1.951859,-0.629489 3.134766,-0.650391 z"
       id="path6" />
  </g>
</svg>
