<?xml version="1.0" encoding="UTF-8" standalone="no"?>
<!-- Created with Inkscape (http://www.inkscape.org/) -->

<svg
   width="110mm"
   height="130mm"
   viewBox="0 0 110 130"
   version="1.1"
   id="svg1"
   inkscape:version="1.3.2 (091e20ef0f, 2023-11-25, custom)"
   sodipodi:docname="mama.svg"
   xmlns:inkscape="http://www.inkscape.org/namespaces/inkscape"
   xmlns:sodipodi="http://sodipodi.sourceforge.net/DTD/sodipodi-0.dtd"
   xmlns="http://www.w3.org/2000/svg"
   xmlns:svg="http://www.w3.org/2000/svg">
  <sodipodi:namedview
     id="namedview1"
     pagecolor="#505050"
     bordercolor="#eeeeee"
     borderopacity="1"
     inkscape:showpageshadow="0"
     inkscape:pageopacity="0"
     inkscape:pagecheckerboard="0"
     inkscape:deskcolor="#505050"
     inkscape:document-units="mm"
     showgrid="true"
     inkscape:zoom="1.1296053"
     inkscape:cx="169.52824"
     inkscape:cy="229.72626"
     inkscape:window-width="1354"
     inkscape:window-height="733"
     inkscape:window-x="5"
     inkscape:window-y="5"
     inkscape:window-maximized="1"
     inkscape:current-layer="layer1">
    <inkscape:grid
       id="grid1"
       units="mm"
       originx="0"
       originy="0"
       spacingx="2.5000001"
       spacingy="2.5000001"
       empcolor="#ffffff"
       empopacity="0.30196078"
       color="#ffffff"
       opacity="0.14901961"
       empspacing="4"
       dotted="false"
       gridanglex="30"
       gridanglez="30"
       visible="true" />
  </sodipodi:namedview>
  <defs
     id="defs1" />
  <g
     inkscape:label="Layer 1"
     inkscape:groupmode="layer"
     id="layer1">
    <path
       id="path5"
       style="vector-effect:non-scaling-stroke;fill:#000000;stroke-width:0.264583;stroke-miterlimit:100;-inkscape-stroke:hairline"
       d="M 55.000256,20 A 32.5,32.5 0 0 0 22.499914,52.500342 32.5,32.5 0 0 0 55.000256,85.000167 32.5,32.5 0 0 0 87.500081,52.500342 32.5,32.5 0 0 0 55.000256,20 Z m 0,9.999907 A 22.5,22.5 0 0 1 77.500175,52.500342 22.5,22.5 0 0 1 55.000256,75.000261 22.5,22.5 0 0 1 32.499821,52.500342 22.5,22.5 0 0 1 55.000256,29.999907 Z" />
    <path
       id="path6"
       style="vector-effect:non-scaling-stroke;fill:#000000;stroke-width:0.264583;stroke-miterlimit:100;-inkscape-stroke:hairline"
       d="M 55.000205,75.000384 A 17.5,17.5 0 0 0 37.500498,92.500091 17.5,17.5 0 0 0 55.000205,110.00031 17.5,17.5 0 0 0 72.500429,92.500091 17.5,17.5 0 0 0 55.000205,75.000384 Z m 0,9.999906 a 7.5,7.5 0 0 1 7.499801,7.499801 7.5,7.5 0 0 1 -7.499801,7.500319 7.5,7.5 0 0 1 -7.499801,-7.500319 7.5,7.5 0 0 1 7.499801,-7.499801 z" />
  </g>
</svg>
