<?xml version="1.0" encoding="UTF-8" standalone="no"?>
<!-- Created with Inkscape (http://www.inkscape.org/) -->

<svg
   width="110mm"
   height="130mm"
   viewBox="0 0 110 130"
   version="1.1"
   id="svg1"
   inkscape:version="1.3.2 (091e20ef0f, 2023-11-25, custom)"
   sodipodi:docname="mani.svg"
   xmlns:inkscape="http://www.inkscape.org/namespaces/inkscape"
   xmlns:sodipodi="http://sodipodi.sourceforge.net/DTD/sodipodi-0.dtd"
   xmlns="http://www.w3.org/2000/svg"
   xmlns:svg="http://www.w3.org/2000/svg">
  <sodipodi:namedview
     id="namedview1"
     pagecolor="#505050"
     bordercolor="#eeeeee"
     borderopacity="1"
     inkscape:showpageshadow="0"
     inkscape:pageopacity="0"
     inkscape:pagecheckerboard="0"
     inkscape:deskcolor="#505050"
     inkscape:document-units="mm"
     showgrid="true"
     inkscape:zoom="1.0785064"
     inkscape:cx="257.30028"
     inkscape:cy="245.71018"
     inkscape:window-width="1366"
     inkscape:window-height="768"
     inkscape:window-x="0"
     inkscape:window-y="0"
     inkscape:window-maximized="1"
     inkscape:current-layer="layer1">
    <inkscape:grid
       id="grid1"
       units="mm"
       originx="0"
       originy="0"
       spacingx="2.5000001"
       spacingy="2.5000001"
       empcolor="#ffffff"
       empopacity="0.30196078"
       color="#ffffff"
       opacity="0.14901961"
       empspacing="4"
       dotted="false"
       gridanglex="30"
       gridanglez="30"
       visible="true" />
  </sodipodi:namedview>
  <defs
     id="defs1" />
  <g
     inkscape:label="Layer 1"
     inkscape:groupmode="layer"
     id="layer1">
    <path
       id="path8"
       style="vector-effect:non-scaling-stroke;fill:#000000;stroke-width:0.264583;stroke-miterlimit:100;-inkscape-stroke:hairline"
       d="m 10.000033,29.999963 c -1.2e-5,10.280568 6.205381,19.11179 15.074895,22.952384 l 9.925128,-7.952266 c -8.284363,6.5e-5 -15.000183,-6.715755 -15.000118,-15.000118 z"
       sodipodi:nodetypes="ccccc" />
    <path
       id="path8-1"
       style="vector-effect:non-scaling-stroke;fill:#000000;stroke-width:0.264583;stroke-miterlimit:100;-inkscape-stroke:hairline"
       d="m 99.999996,29.999976 c 1.4e-5,10.280568 -6.205383,19.11179 -15.074897,22.952384 l -9.925128,-7.952266 c 8.284363,6.5e-5 15.000183,-6.715755 15.000118,-15.000118 z"
       sodipodi:nodetypes="ccccc" />
    <path
       id="path9"
       style="vector-effect:non-scaling-stroke;fill:#000000;stroke-width:0.264583;stroke-miterlimit:100;-inkscape-stroke:hairline"
       d="M 55.000111,30.000044 A 35,35 0 0 0 20.00018,64.999975 35,35 0 0 0 55.000111,99.999908 35,35 0 0 0 90.000042,64.999975 35,35 0 0 0 55.000111,30.000044 Z m 0,9.999906 A 24.999998,24.999998 0 0 1 80.000136,64.999975 24.999998,24.999998 0 0 1 55.000111,89.999999 24.999998,24.999998 0 0 1 30.000087,64.999975 24.999998,24.999998 0 0 1 55.000111,39.99995 Z" />
  </g>
</svg>
