<?xml version="1.0" encoding="UTF-8" standalone="no"?>
<!-- Created with Inkscape (http://www.inkscape.org/) -->

<svg
   width="110mm"
   height="130mm"
   viewBox="0 0 110 130"
   version="1.1"
   id="svg1"
   inkscape:version="1.3.2 (091e20ef0f, 2023-11-25, custom)"
   sodipodi:docname="mije.svg"
   xmlns:inkscape="http://www.inkscape.org/namespaces/inkscape"
   xmlns:sodipodi="http://sodipodi.sourceforge.net/DTD/sodipodi-0.dtd"
   xmlns="http://www.w3.org/2000/svg"
   xmlns:svg="http://www.w3.org/2000/svg">
  <sodipodi:namedview
     id="namedview1"
     pagecolor="#505050"
     bordercolor="#eeeeee"
     borderopacity="1"
     inkscape:showpageshadow="0"
     inkscape:pageopacity="0"
     inkscape:pagecheckerboard="0"
     inkscape:deskcolor="#505050"
     inkscape:document-units="mm"
     showgrid="true"
     inkscape:zoom="0.9630095"
     inkscape:cx="166.66502"
     inkscape:cy="187.43325"
     inkscape:window-width="1354"
     inkscape:window-height="733"
     inkscape:window-x="5"
     inkscape:window-y="5"
     inkscape:window-maximized="1"
     inkscape:current-layer="layer1">
    <inkscape:grid
       id="grid1"
       units="mm"
       originx="0"
       originy="0"
       spacingx="2.5000001"
       spacingy="2.5000001"
       empcolor="#ffffff"
       empopacity="0.30196078"
       color="#ffffff"
       opacity="0.14901961"
       empspacing="4"
       dotted="false"
       gridanglex="30"
       gridanglez="30"
       visible="true" />
  </sodipodi:namedview>
  <defs
     id="defs1" />
  <g
     inkscape:label="Layer 1"
     inkscape:groupmode="layer"
     id="layer1">
    <path
       id="rect2"
       style="vector-effect:non-scaling-stroke;fill:#000000;fill-rule:evenodd;stroke-width:0.264583;stroke-miterlimit:100;-inkscape-stroke:hairline"
       d="M 9.9997574,79.999764 V 89.99967 110 H 19.999664 V 89.99967 H 90.000042 V 110 h 9.999909 V 79.999764 H 70.714914 A 27.499996,27.499996 0 0 1 54.999595,84.999975 27.499996,27.499996 0 0 1 39.284792,79.999764 H 19.999664 Z" />
    <path
       id="path4-6"
       style="vector-effect:non-scaling-stroke;fill:#000000;fill-rule:evenodd;stroke-width:0.283482;stroke-miterlimit:100;-inkscape-stroke:hairline"
       d="M 54.999595,19.999809 A 37.5,37.5 0 0 0 17.500075,57.499845 37.5,37.5 0 0 0 54.999595,94.999882 37.5,37.5 0 0 0 92.499631,57.499845 37.5,37.5 0 0 0 54.999595,19.999809 Z m 0,9.999906 a 27.5,27.5 0 0 1 27.50013,27.50013 27.5,27.5 0 0 1 -27.50013,27.50013 27.5,27.5 0 0 1 -27.499614,-27.50013 27.5,27.5 0 0 1 27.499614,-27.50013 z" />
  </g>
</svg>
