<?xml version="1.0" encoding="UTF-8" standalone="no"?>
<!-- Created with Inkscape (http://www.inkscape.org/) -->

<svg
   width="110mm"
   height="130mm"
   viewBox="0 0 110 130"
   version="1.1"
   id="svg1"
   inkscape:version="1.3.2 (091e20ef0f, 2023-11-25, custom)"
   sodipodi:docname="moli.svg"
   xmlns:inkscape="http://www.inkscape.org/namespaces/inkscape"
   xmlns:sodipodi="http://sodipodi.sourceforge.net/DTD/sodipodi-0.dtd"
   xmlns="http://www.w3.org/2000/svg"
   xmlns:svg="http://www.w3.org/2000/svg">
  <sodipodi:namedview
     id="namedview1"
     pagecolor="#505050"
     bordercolor="#eeeeee"
     borderopacity="1"
     inkscape:showpageshadow="0"
     inkscape:pageopacity="0"
     inkscape:pagecheckerboard="0"
     inkscape:deskcolor="#505050"
     inkscape:document-units="mm"
     showgrid="true"
     inkscape:zoom="0.91226406"
     inkscape:cx="309.66911"
     inkscape:cy="170.45503"
     inkscape:window-width="1354"
     inkscape:window-height="733"
     inkscape:window-x="5"
     inkscape:window-y="5"
     inkscape:window-maximized="1"
     inkscape:current-layer="layer1">
    <inkscape:grid
       id="grid1"
       units="mm"
       originx="0"
       originy="0"
       spacingx="2.5000001"
       spacingy="2.5000001"
       empcolor="#ffffff"
       empopacity="0.30196078"
       color="#ffffff"
       opacity="0.14901961"
       empspacing="4"
       dotted="false"
       gridanglex="30"
       gridanglez="30"
       visible="true" />
  </sodipodi:namedview>
  <defs
     id="defs1" />
  <g
     inkscape:label="Layer 1"
     inkscape:groupmode="layer"
     id="layer1">
    <path
       id="path1"
       style="fill:#0a0a0a;fill-opacity:1;stroke:none;stroke-width:0.264999;stroke-miterlimit:100;stroke-opacity:1"
       d="M 54.999739,19.999809 A 45,45 0 0 0 9.9999012,64.999646 45,45 0 0 0 54.999739,110 45,45 0 0 0 100.00009,64.999646 45,45 0 0 0 54.999739,19.999809 Z m 0,9.999906 A 35,35 0 0 1 90.000186,64.999646 35,35 0 0 1 54.999739,100.00009 35,35 0 0 1 19.999808,64.999646 35,35 0 0 1 54.999739,29.999715 Z" />
    <path
       id="rect2"
       style="fill:#0a0a0a;fill-opacity:1;stroke:none;stroke-width:0.264999;stroke-miterlimit:100;stroke-opacity:1"
       d="m 32.499299,48.357869 -7.070886,7.070887 7.071403,7.071403 -7.071403,7.070886 7.070886,7.070886 7.071403,-7.070886 7.070886,7.070886 7.071403,-7.070886 -7.071403,-7.070886 7.071403,-7.071403 -7.071403,-7.070887 -7.070886,7.070887 z m 30.858582,0 -7.070886,7.070887 7.071403,7.071403 -7.071403,7.070886 7.070886,7.070886 7.071403,-7.070886 7.070886,7.070886 7.071403,-7.070886 -7.071403,-7.070886 7.071403,-7.071403 -7.071403,-7.070887 -7.070886,7.070887 z" />
  </g>
</svg>
