<?xml version="1.0" encoding="UTF-8" standalone="no"?>
<!-- Created with Inkscape (http://www.inkscape.org/) -->

<svg
   width="110mm"
   height="130mm"
   viewBox="0 0 110 130"
   version="1.1"
   id="svg1"
   inkscape:version="1.3.2 (091e20ef0f, 2023-11-25, custom)"
   sodipodi:docname="oko.svg"
   xmlns:inkscape="http://www.inkscape.org/namespaces/inkscape"
   xmlns:sodipodi="http://sodipodi.sourceforge.net/DTD/sodipodi-0.dtd"
   xmlns="http://www.w3.org/2000/svg"
   xmlns:svg="http://www.w3.org/2000/svg">
  <sodipodi:namedview
     id="namedview1"
     pagecolor="#505050"
     bordercolor="#eeeeee"
     borderopacity="1"
     inkscape:showpageshadow="0"
     inkscape:pageopacity="0"
     inkscape:pagecheckerboard="0"
     inkscape:deskcolor="#505050"
     inkscape:document-units="mm"
     showgrid="true"
     inkscape:zoom="2.4643717"
     inkscape:cx="333.75647"
     inkscape:cy="319.35118"
     inkscape:window-width="1366"
     inkscape:window-height="768"
     inkscape:window-x="0"
     inkscape:window-y="0"
     inkscape:window-maximized="1"
     inkscape:current-layer="layer1">
    <inkscape:grid
       id="grid1"
       units="mm"
       originx="0"
       originy="0"
       spacingx="2.5"
       spacingy="2.5"
       empcolor="#ffffff"
       empopacity="0.30196078"
       color="#ffffff"
       opacity="0.14901961"
       empspacing="4"
       dotted="false"
       gridanglex="30"
       gridanglez="30"
       visible="true" />
  </sodipodi:namedview>
  <defs
     id="defs1" />
  <g
     inkscape:label="Layer 1"
     inkscape:groupmode="layer"
     id="layer1">
    <path
       id="path10"
       style="vector-effect:non-scaling-stroke;fill:#000000;stroke:none;stroke-width:0.264583;stroke-opacity:1;-inkscape-stroke:hairline"
       d="M 95.395211,21.210075 9.9999064,65.000167 95.395211,108.78974 100.0001,100.0001 89.071566,94.384937 C 96.118963,86.216693 99.997361,75.788401 100.0001,65.000167 99.995305,54.212162 96.115083,43.784813 89.066398,35.617981 L 100.0001,30.000236 Z M 79.840088,40.358777 c 0.958041,0.965138 1.846144,1.985802 2.677873,3.044775 -7.725138,4.451466 -12.494909,12.680227 -12.518099,21.596098 0.02322,8.916032 4.793283,17.14472 12.518615,21.596098 -0.831925,1.059295 -1.720079,2.080399 -2.678389,3.045809 l -47.95883,-24.64139 z m 7.649145,11.65872 c 1.636945,4.091458 2.508924,8.491382 2.510958,12.98267 -0.002,4.491287 -0.874015,8.891212 -2.510958,12.98267 C 82.854726,75.301908 80.00068,70.35374 80.000285,64.99965 80.000942,59.645889 82.85502,54.698321 87.489233,52.017497 Z"
       sodipodi:nodetypes="ccccccccccccccccccccc" />
  </g>
</svg>
