<?xml version="1.0" encoding="UTF-8" standalone="no"?>
<!-- Created with Inkscape (http://www.inkscape.org/) -->

<svg
   width="110mm"
   height="130mm"
   viewBox="0 0 110 130"
   version="1.1"
   id="svg1"
   inkscape:version="1.3.2 (091e20ef0f, 2023-11-25, custom)"
   sodipodi:docname="semea2.svg"
   xmlns:inkscape="http://www.inkscape.org/namespaces/inkscape"
   xmlns:sodipodi="http://sodipodi.sourceforge.net/DTD/sodipodi-0.dtd"
   xmlns="http://www.w3.org/2000/svg"
   xmlns:svg="http://www.w3.org/2000/svg">
  <sodipodi:namedview
     id="namedview1"
     pagecolor="#505050"
     bordercolor="#eeeeee"
     borderopacity="1"
     inkscape:showpageshadow="0"
     inkscape:pageopacity="0"
     inkscape:pagecheckerboard="0"
     inkscape:deskcolor="#505050"
     inkscape:document-units="mm"
     showgrid="true"
     inkscape:zoom="1.5315829"
     inkscape:cx="319.93044"
     inkscape:cy="238.31553"
     inkscape:window-width="1366"
     inkscape:window-height="768"
     inkscape:window-x="0"
     inkscape:window-y="0"
     inkscape:window-maximized="1"
     inkscape:current-layer="layer1">
    <inkscape:grid
       id="grid1"
       units="mm"
       originx="0"
       originy="0"
       spacingx="2.5"
       spacingy="2.5"
       empcolor="#ffffff"
       empopacity="0.30196078"
       color="#ffffff"
       opacity="0.14901961"
       empspacing="4"
       dotted="false"
       gridanglex="30"
       gridanglez="30"
       visible="true" />
  </sodipodi:namedview>
  <defs
     id="defs1">
    <inkscape:path-effect
       effect="spiro"
       id="path-effect15"
       is_visible="true"
       lpeversion="1" />
    <inkscape:path-effect
       effect="spiro"
       id="path-effect14"
       is_visible="true"
       lpeversion="1" />
    <inkscape:path-effect
       effect="spiro"
       id="path-effect13"
       is_visible="true"
       lpeversion="1" />
    <inkscape:path-effect
       effect="spiro"
       id="path-effect9"
       is_visible="true"
       lpeversion="1" />
    <inkscape:path-effect
       effect="spiro"
       id="path-effect13-9"
       is_visible="true"
       lpeversion="1" />
    <inkscape:path-effect
       effect="spiro"
       id="path-effect15-2"
       is_visible="true"
       lpeversion="1" />
  </defs>
  <g
     inkscape:label="Layer 1"
     inkscape:groupmode="layer"
     id="layer1">
    <path
       id="path1"
       style="font-variation-settings:'wght' 700;fill:#000000;stroke-width:0.264582"
       d="M 54.999777,79.999811 A 14.999982,14.999982 0 0 0 40.000195,94.999909 14.999982,14.999982 0 0 0 54.999777,110 14.999982,14.999982 0 0 0 64.03875,106.96743 l 0.961231,3.03247 h 9.999997 l -5.600115,-19.200195 -0.0029,8.01e-4 A 14.999982,14.999982 0 0 0 54.999854,79.999811 Z m 0,9.999894 a 4.9999933,4.9999933 0 0 1 5.000205,5.000204 4.9999933,4.9999933 0 0 1 -5.000205,5.000211 4.9999933,4.9999933 0 0 1 -4.999688,-5.000211 4.9999933,4.9999933 0 0 1 4.999688,-5.000204 z" />
    <path
       id="path8"
       style="vector-effect:non-scaling-stroke;fill:#000000;stroke:none;stroke-width:0.264583;stroke-miterlimit:40;-inkscape-stroke:hairline;paint-order:stroke fill markers"
       d="M 50.000049 19.999813 L 50.000049 25.557096 C 39.979262 27.831629 32.496219 36.787236 32.496208 47.496326 L 32.496724 47.499943 C 32.496724 47.499943 42.500248 47.49996 42.500248 47.499943 C 42.500243 42.375436 45.587029 37.972764 50.000049 36.041211 L 50.000049 75.000073 L 59.999955 75.000073 C 60.004655 73.522966 60.662161 72.123499 61.796228 71.177051 L 69.439172 64.726282 C 74.542184 60.457502 77.49474 54.14939 77.503796 47.496326 C 77.503785 36.787278 70.020632 27.832207 59.999955 25.557613 L 59.999955 19.999813 L 50.000049 19.999813 z M 59.999955 36.040694 C 64.412781 37.970413 67.499761 42.368834 67.499756 47.493225 C 67.476776 51.182215 65.825443 54.672685 62.987887 57.030111 L 59.999955 59.575692 L 59.999955 36.040694 z " />
    <path
       style="vector-effect:non-scaling-stroke;fill:none;stroke:none;stroke-width:0.264583;stroke-miterlimit:40;-inkscape-stroke:hairline;paint-order:stroke fill markers"
       d="m 52.999941,65.99996 11.99978,-16.000169 8.004873,6.003655 -11.999997,16.000005 z"
       id="path16" />
  </g>
</svg>
