<?xml version="1.0" encoding="UTF-8" standalone="no"?>
<!-- Created with Inkscape (http://www.inkscape.org/) -->

<svg
   width="110mm"
   height="130mm"
   viewBox="0 0 110 130"
   version="1.1"
   id="svg1"
   inkscape:version="1.3.2 (091e20ef0f, 2023-11-25, custom)"
   sodipodi:docname="seme.svg"
   xmlns:inkscape="http://www.inkscape.org/namespaces/inkscape"
   xmlns:sodipodi="http://sodipodi.sourceforge.net/DTD/sodipodi-0.dtd"
   xmlns="http://www.w3.org/2000/svg"
   xmlns:svg="http://www.w3.org/2000/svg">
  <sodipodi:namedview
     id="namedview1"
     pagecolor="#505050"
     bordercolor="#eeeeee"
     borderopacity="1"
     inkscape:showpageshadow="0"
     inkscape:pageopacity="0"
     inkscape:pagecheckerboard="0"
     inkscape:deskcolor="#505050"
     inkscape:document-units="mm"
     showgrid="true"
     inkscape:zoom="1.1504672"
     inkscape:cx="162.54266"
     inkscape:cy="288.57842"
     inkscape:window-width="1366"
     inkscape:window-height="768"
     inkscape:window-x="0"
     inkscape:window-y="0"
     inkscape:window-maximized="1"
     inkscape:current-layer="layer1"
     showguides="true">
    <inkscape:grid
       id="grid1"
       units="mm"
       originx="0"
       originy="0"
       spacingx="2.5000001"
       spacingy="2.5000001"
       empcolor="#ffffff"
       empopacity="0.30196078"
       color="#ffffff"
       opacity="0.14901961"
       empspacing="4"
       dotted="false"
       gridanglex="30"
       gridanglez="30"
       visible="true" />
  </sodipodi:namedview>
  <defs
     id="defs1">
    <inkscape:path-effect
       effect="spiro"
       id="path-effect39"
       is_visible="true"
       lpeversion="1" />
    <inkscape:path-effect
       effect="spiro"
       id="path-effect48"
       is_visible="true"
       lpeversion="1" />
    <inkscape:path-effect
       effect="spiro"
       id="path-effect46"
       is_visible="true"
       lpeversion="1" />
    <inkscape:path-effect
       effect="spiro"
       id="path-effect45"
       is_visible="true"
       lpeversion="1" />
    <inkscape:path-effect
       effect="spiro"
       id="path-effect38"
       is_visible="true"
       lpeversion="1" />
    <inkscape:path-effect
       effect="spiro"
       id="path-effect33"
       is_visible="true"
       lpeversion="1" />
    <inkscape:path-effect
       effect="spiro"
       id="path-effect32"
       is_visible="true"
       lpeversion="1" />
    <inkscape:path-effect
       effect="spiro"
       id="path-effect31"
       is_visible="true"
       lpeversion="1" />
    <inkscape:path-effect
       effect="spiro"
       id="path-effect37"
       is_visible="true"
       lpeversion="1" />
    <inkscape:path-effect
       effect="spiro"
       id="path-effect36"
       is_visible="true"
       lpeversion="1" />
    <inkscape:path-effect
       effect="spiro"
       id="path-effect35"
       is_visible="true"
       lpeversion="1" />
    <inkscape:path-effect
       effect="spiro"
       id="path-effect34"
       is_visible="true"
       lpeversion="1" />
    <inkscape:path-effect
       effect="spiro"
       id="path-effect30"
       is_visible="true"
       lpeversion="1" />
    <inkscape:path-effect
       effect="spiro"
       id="path-effect15"
       is_visible="true"
       lpeversion="1" />
    <inkscape:path-effect
       effect="spiro"
       id="path-effect14"
       is_visible="true"
       lpeversion="1" />
    <inkscape:path-effect
       effect="spiro"
       id="path-effect9"
       is_visible="true"
       lpeversion="1" />
    <inkscape:path-effect
       effect="spiro"
       id="path-effect29"
       is_visible="true"
       lpeversion="1" />
    <inkscape:path-effect
       effect="spiro"
       id="path-effect28"
       is_visible="true"
       lpeversion="1" />
    <inkscape:path-effect
       effect="spiro"
       id="path-effect27"
       is_visible="true"
       lpeversion="1" />
    <inkscape:path-effect
       effect="spiro"
       id="path-effect24"
       is_visible="true"
       lpeversion="1" />
    <inkscape:path-effect
       effect="spiro"
       id="path-effect23"
       is_visible="true"
       lpeversion="1" />
    <inkscape:path-effect
       effect="spiro"
       id="path-effect8"
       is_visible="true"
       lpeversion="1" />
    <inkscape:path-effect
       effect="spiro"
       id="path-effect1"
       is_visible="true"
       lpeversion="1" />
    <inkscape:path-effect
       effect="spiro"
       id="path-effect21"
       is_visible="true"
       lpeversion="1" />
    <inkscape:path-effect
       effect="spiro"
       id="path-effect20"
       is_visible="true"
       lpeversion="1" />
    <inkscape:path-effect
       effect="spiro"
       id="path-effect19"
       is_visible="true"
       lpeversion="1" />
    <inkscape:path-effect
       effect="spiro"
       id="path-effect18"
       is_visible="true"
       lpeversion="1" />
    <inkscape:path-effect
       effect="spiro"
       id="path-effect17"
       is_visible="true"
       lpeversion="1" />
    <inkscape:path-effect
       effect="spiro"
       id="path-effect16"
       is_visible="true"
       lpeversion="1" />
    <inkscape:path-effect
       effect="spiro"
       id="path-effect13"
       is_visible="true"
       lpeversion="1" />
    <inkscape:path-effect
       effect="spiro"
       id="path-effect12"
       is_visible="true"
       lpeversion="1" />
    <inkscape:path-effect
       effect="spiro"
       id="path-effect10"
       is_visible="true"
       lpeversion="1" />
    <inkscape:path-effect
       effect="spiro"
       id="path-effect7"
       is_visible="true"
       lpeversion="1" />
    <inkscape:path-effect
       effect="spiro"
       id="path-effect6"
       is_visible="true"
       lpeversion="1" />
    <inkscape:path-effect
       effect="spiro"
       id="path-effect5"
       is_visible="true"
       lpeversion="1" />
    <inkscape:path-effect
       effect="spiro"
       id="path-effect4"
       is_visible="true"
       lpeversion="1" />
    <inkscape:path-effect
       effect="spiro"
       id="path-effect3"
       is_visible="true"
       lpeversion="1" />
    <inkscape:path-effect
       effect="spiro"
       id="path-effect2"
       is_visible="true"
       lpeversion="1" />
    <inkscape:path-effect
       effect="spiro"
       id="path-effect26"
       is_visible="true"
       lpeversion="1" />
    <inkscape:path-effect
       effect="spiro"
       id="path-effect25"
       is_visible="true"
       lpeversion="1" />
    <inkscape:path-effect
       effect="spiro"
       id="path-effect22"
       is_visible="true"
       lpeversion="1" />
    <inkscape:path-effect
       effect="spiro"
       id="path-effect11"
       is_visible="true"
       lpeversion="1" />
    <inkscape:path-effect
       effect="spiro"
       id="path-effect11-1"
       is_visible="true"
       lpeversion="1" />
    <inkscape:path-effect
       effect="spiro"
       id="path-effect2-7"
       is_visible="true"
       lpeversion="1" />
    <inkscape:path-effect
       effect="spiro"
       id="path-effect2-0"
       is_visible="true"
       lpeversion="1" />
    <inkscape:path-effect
       effect="spiro"
       id="path-effect17-0"
       is_visible="true"
       lpeversion="1" />
    <inkscape:path-effect
       effect="spiro"
       id="path-effect17-0-3"
       is_visible="true"
       lpeversion="1" />
    <inkscape:path-effect
       effect="spiro"
       id="path-effect23-8"
       is_visible="true"
       lpeversion="1" />
    <inkscape:path-effect
       effect="spiro"
       id="path-effect24-1"
       is_visible="true"
       lpeversion="1" />
    <inkscape:path-effect
       effect="spiro"
       id="path-effect9-8"
       is_visible="true"
       lpeversion="1" />
    <inkscape:path-effect
       effect="spiro"
       id="path-effect14-7"
       is_visible="true"
       lpeversion="1" />
    <inkscape:path-effect
       effect="spiro"
       id="path-effect30-4"
       is_visible="true"
       lpeversion="1" />
    <inkscape:path-effect
       effect="spiro"
       id="path-effect37-7"
       is_visible="true"
       lpeversion="1" />
    <inkscape:path-effect
       effect="spiro"
       id="path-effect31-9"
       is_visible="true"
       lpeversion="1" />
    <inkscape:path-effect
       effect="spiro"
       id="path-effect33-9"
       is_visible="true"
       lpeversion="1" />
    <inkscape:path-effect
       effect="spiro"
       id="path-effect33-4"
       is_visible="true"
       lpeversion="1" />
    <inkscape:path-effect
       effect="spiro"
       id="path-effect38-0"
       is_visible="true"
       lpeversion="1" />
    <inkscape:path-effect
       effect="spiro"
       id="path-effect38-1"
       is_visible="true"
       lpeversion="1" />
    <inkscape:path-effect
       effect="spiro"
       id="path-effect48-6"
       is_visible="true"
       lpeversion="1" />
  </defs>
  <g
     inkscape:label="Layer 1"
     inkscape:groupmode="layer"
     id="layer1">
    <path
       id="path42"
       style="vector-effect:non-scaling-stroke;fill:#000000;fill-rule:evenodd;stroke:#080808;stroke-width:0.264583;stroke-miterlimit:100;stroke-opacity:1;-inkscape-stroke:hairline"
       d="m 54.999745,19.999912 c -1.104897,0.0047 -2.202782,0.08686 -3.288172,0.235645 -0.184262,0.02482 -0.368242,0.05169 -0.551904,0.08062 -0.852507,0.136306 -1.692931,0.325854 -2.524394,0.548804 -0.446384,0.11776 -0.889421,0.247862 -1.328601,0.390157 -0.607024,0.199392 -1.204943,0.424286 -1.795239,0.669727 -0.645786,0.267503 -1.280069,0.561973 -1.901176,0.882633 -0.384295,0.199065 -0.766218,0.40343 -1.140499,0.622701 -0.838759,0.490893 -1.648179,1.030276 -2.424141,1.615405 -0.0024,0.0018 -0.0049,0.0034 -0.0072,0.0052 -6.295235,4.702643 -10.013167,12.091421 -10.038147,19.94917 h 9.999906 c 0.01911,-4.712755 2.251989,-9.142529 6.02909,-11.961027 0.01942,-0.0147 0.04046,-0.02675 0.05994,-0.04134 0.617539,-0.462662 1.266208,-0.875633 1.940967,-1.235067 0.436443,-0.230361 0.883989,-0.439043 1.341004,-0.625285 0.281504,-0.11595 0.56425,-0.229064 0.852144,-0.327628 0.592716,-0.199147 1.197304,-0.361038 1.810225,-0.484725 0.178337,-0.03705 0.355059,-0.08158 0.534852,-0.112138 0.80333,-0.136896 1.61648,-0.208101 2.431376,-0.212907 0.456537,-4e-6 0.906223,0.02829 1.352372,0.06821 0.106731,0.009 0.213363,0.01919 0.319877,0.03049 0.417032,0.04631 0.829069,0.108832 1.235067,0.188619 0.120906,0.02538 0.241493,0.05226 0.361735,0.08062 0.310331,0.06906 0.616565,0.148719 0.919323,0.236678 0.131945,0.03627 0.263388,0.07434 0.394292,0.114205 0.367597,0.117877 0.727986,0.251502 1.082621,0.396358 0.139566,0.05802 0.278247,0.118142 0.415995,0.180351 0.287189,0.127647 0.569634,0.263423 0.846977,0.408244 0.09473,0.04689 0.188955,0.09478 0.28267,0.14366 0.350491,0.192575 0.689953,0.402088 1.022677,0.621151 0.105278,0.06965 0.209673,0.140623 0.313159,0.212907 0.322541,0.224222 0.63916,0.456654 0.942578,0.704866 0.02106,0.01614 0.04208,0.03233 0.06305,0.04858 0.326846,0.270271 0.637828,0.558663 0.940511,0.855245 0.07309,0.0716 0.145436,0.143956 0.217041,0.217041 0.296583,0.302683 0.584975,0.613666 0.855245,0.940511 0.01625,0.02097 0.03244,0.04199 0.04858,0.06305 0.248212,0.303417 0.480644,0.620036 0.704867,0.942578 0.07228,0.103486 0.143258,0.207881 0.212906,0.313159 0.219064,0.332724 0.428576,0.672185 0.621151,1.022676 0.04888,0.09371 0.09677,0.187944 0.143661,0.282671 0.144821,0.277343 0.280596,0.559787 0.408243,0.846976 0.06221,0.137749 0.122333,0.27643 0.180351,0.415996 0.144856,0.354635 0.278482,0.715024 0.396358,1.082621 0.03987,0.130903 0.07794,0.262346 0.114205,0.394291 0.08796,0.302758 0.167619,0.608993 0.236678,0.919324 0.02836,0.120242 0.05524,0.240829 0.08062,0.361735 0.07979,0.405998 0.14231,0.818035 0.188619,1.235066 0.0113,0.106514 0.02147,0.213146 0.03049,0.319878 0.03993,0.446148 0.06822,0.895834 0.06821,1.352372 -0.0021,4.720396 -2.226167,9.164436 -6.003251,11.99565 l -3.958415,3.055111 C 53.742968,64.753336 50.02503,72.142127 50.00005,79.999868 l 4.2e-5,7.500134 h 9.999906 l -4.2e-5,-7.500134 c 0.0194,-4.71266 2.252459,-9.142232 6.029606,-11.960511 l 3.96875,-3.041674 c 4.97e-4,-3.73e-4 0.0011,-6.61e-4 0.0016,-10e-4 0.0011,-8.1e-4 0.002,-0.0018 0.0031,-0.0026 0.860394,-0.645514 1.667536,-1.345384 2.428276,-2.085661 0.06165,-0.06169 0.12297,-0.123703 0.183968,-0.186035 0.711522,-0.707058 1.37616,-1.452891 1.99316,-2.233972 0.06231,-0.07835 0.124152,-0.15707 0.185518,-0.236161 0.622694,-0.808071 1.195422,-1.650279 1.713074,-2.524911 0.03031,-0.04916 0.06046,-0.09842 0.09043,-0.147794 0.535743,-0.919673 1.012424,-1.872168 1.426786,-2.852539 0.02102,-0.05247 0.04187,-0.105005 0.06253,-0.157613 0.389128,-0.938353 0.719208,-1.901629 0.992187,-2.884062 0.02714,-0.09888 0.05366,-0.197931 0.07958,-0.29714 0.255036,-0.96371 0.453462,-1.944347 0.592212,-2.939355 0.01246,-0.08193 0.02452,-0.163927 0.03617,-0.24598 0.13649,-1.055595 0.212763,-2.124295 0.212907,-3.202905 -3.14e-4,-0.40878 -0.01065,-0.817492 -0.03101,-1.225765 -0.01056,-0.218635 -0.03037,-0.434515 -0.04651,-0.65164 -0.01207,-0.184808 -0.0262,-0.369477 -0.04237,-0.553971 -0.02772,-0.287062 -0.06446,-0.571106 -0.101803,-0.855245 -0.01292,-0.106712 -0.02653,-0.21334 -0.04082,-0.319877 -0.04798,-0.331636 -0.105106,-0.660283 -0.165926,-0.987555 -0.0103,-0.05826 -0.02081,-0.116481 -0.03152,-0.174666 -0.07013,-0.362977 -0.149477,-0.722325 -0.235128,-1.079521 -0.0046,-0.02068 -0.0093,-0.04135 -0.01395,-0.06201 -0.09164,-0.377903 -0.192678,-0.751956 -0.301273,-1.122929 -9.96e-4,-0.0034 -0.0016,-0.0069 -0.0026,-0.01033 l -0.0015,-0.0047 c -0.110288,-0.37588 -0.229321,-0.747906 -0.356568,-1.116211 -0.0014,-0.0041 -0.0027,-0.0083 -0.0041,-0.0124 l -0.0026,-0.0067 c -0.124939,-0.360672 -0.258166,-0.717257 -0.398942,-1.070219 -0.0079,-0.02034 -0.01582,-0.04066 -0.02377,-0.06098 -0.137912,-0.343153 -0.283652,-0.682085 -0.436149,-1.017509 -0.01355,-0.03034 -0.02715,-0.06066 -0.04082,-0.09095 -0.146916,-0.319741 -0.300596,-0.635441 -0.460437,-0.947745 -0.02567,-0.05039 -0.0515,-0.100685 -0.07751,-0.150896 -0.149506,-0.28712 -0.304515,-0.570609 -0.464638,-0.851087 -0.04436,-0.07827 -0.08915,-0.156306 -0.134359,-0.234095 -0.149586,-0.255566 -0.30369,-0.507901 -0.461987,-0.757576 -0.05983,-0.0948 -0.120288,-0.189199 -0.181384,-0.283187 -0.146648,-0.224569 -0.297022,-0.446108 -0.450619,-0.665592 -0.08538,-0.122384 -0.171857,-0.244001 -0.259416,-0.364836 -0.13791,-0.189763 -0.278614,-0.377075 -0.421679,-0.562756 -0.105551,-0.137362 -0.212527,-0.273623 -0.320911,-0.408761 -0.1347,-0.167537 -0.27142,-0.333177 -0.410311,-0.497127 -0.126418,-0.149294 -0.254584,-0.297099 -0.384472,-0.443384 -0.12783,-0.143941 -0.257017,-0.286425 -0.38809,-0.427364 -0.144122,-0.154983 -0.290206,-0.30813 -0.438217,-0.459404 -0.129164,-0.132041 -0.259666,-0.262543 -0.391707,-0.391707 -0.151273,-0.148011 -0.30442,-0.294094 -0.459403,-0.438216 -0.14094,-0.131074 -0.283424,-0.260261 -0.427365,-0.38809 -0.146285,-0.129888 -0.294089,-0.258055 -0.443383,-0.384473 -0.163951,-0.13889 -0.329591,-0.27561 -0.497128,-0.410311 -0.135138,-0.108383 -0.271399,-0.215359 -0.40876,-0.32091 -0.185682,-0.143066 -0.372993,-0.28377 -0.562757,-0.42168 -0.120835,-0.08756 -0.242452,-0.174035 -0.364835,-0.259416 -0.219485,-0.153596 -0.441024,-0.303971 -0.665593,-0.450618 -0.09399,-0.0611 -0.188385,-0.121558 -0.283186,-0.181384 -0.249675,-0.158298 -0.502011,-0.312402 -0.757577,-0.461988 -0.07779,-0.04521 -0.155821,-0.08999 -0.234094,-0.134358 -0.280478,-0.160124 -0.563967,-0.315133 -0.851111,-0.464572 -0.05021,-0.02601 -0.100509,-0.05184 -0.150895,-0.07751 -0.312305,-0.159846 -0.628004,-0.313525 -0.947746,-0.460441 -0.03029,-0.01367 -0.06061,-0.02727 -0.09095,-0.04082 -0.335425,-0.152497 -0.674356,-0.298236 -1.017509,-0.436149 -0.02032,-0.008 -0.04064,-0.01587 -0.06098,-0.02377 -0.352961,-0.140782 -0.709546,-0.274009 -1.070218,-0.398948 -0.0023,-7.84e-4 -0.0045,-0.0018 -0.0067,-0.0026 l -0.0124,-0.0041 c -0.368304,-0.127247 -0.74033,-0.24628 -1.116211,-0.356567 -0.0016,-4.59e-4 -0.0031,-0.0011 -0.0047,-0.0016 l -0.01034,-0.0026 c -0.370973,-0.108596 -0.745025,-0.209635 -1.122929,-0.301274 -0.02066,-0.0047 -0.04133,-0.0093 -0.06201,-0.01395 -0.357196,-0.08565 -0.716544,-0.164995 -1.07952,-0.235127 -0.05819,-0.01071 -0.116408,-0.02122 -0.174667,-0.03152 -0.327271,-0.06082 -0.655918,-0.117946 -0.987536,-0.165881 -0.106537,-0.01429 -0.213165,-0.0279 -0.319877,-0.04082 -0.284139,-0.03734 -0.568184,-0.07409 -0.855245,-0.101802 -0.184495,-0.01618 -0.369163,-0.0303 -0.553972,-0.04237 -0.217125,-0.01614 -0.433005,-0.03595 -0.651639,-0.04651 -0.408273,-0.02036 -0.816985,-0.0307 -1.225765,-0.03101 z"
       sodipodi:nodetypes="ccccccccscccccccccccccccccccccccccsccccccccccccccccccccccccccccccccccccccccccccccccsccsccccccccccccccccccsccsccccccccccccccccsccsccccccccccccc" />
    <circle
       style="font-variation-settings:'opsz' 144;fill:#000000;stroke-width:10;stroke-linejoin:bevel;stroke-miterlimit:100;paint-order:stroke fill markers"
       id="path1"
       cx="54.999996"
       cy="102.5"
       r="7.5" />
  </g>
</svg>
