<?xml version="1.0" encoding="UTF-8" standalone="no"?>
<!-- Created with Inkscape (http://www.inkscape.org/) -->

<svg
   width="110mm"
   height="130mm"
   viewBox="0 0 110 130"
   version="1.1"
   id="svg1"
   inkscape:version="1.3.2 (091e20ef0f, 2023-11-25, custom)"
   sodipodi:docname="ijo.svg"
   xmlns:inkscape="http://www.inkscape.org/namespaces/inkscape"
   xmlns:sodipodi="http://sodipodi.sourceforge.net/DTD/sodipodi-0.dtd"
   xmlns="http://www.w3.org/2000/svg"
   xmlns:svg="http://www.w3.org/2000/svg">
  <sodipodi:namedview
     id="namedview1"
     pagecolor="#505050"
     bordercolor="#eeeeee"
     borderopacity="1"
     inkscape:showpageshadow="0"
     inkscape:pageopacity="0"
     inkscape:pagecheckerboard="0"
     inkscape:deskcolor="#505050"
     inkscape:document-units="mm"
     showgrid="true"
     inkscape:zoom="0.69598332"
     inkscape:cx="-31.609953"
     inkscape:cy="303.16819"
     inkscape:window-width="1366"
     inkscape:window-height="768"
     inkscape:window-x="0"
     inkscape:window-y="0"
     inkscape:window-maximized="1"
     inkscape:current-layer="layer1">
    <inkscape:grid
       id="grid1"
       units="mm"
       originx="0"
       originy="0"
       spacingx="2.5000001"
       spacingy="2.5000001"
       empcolor="#ffffff"
       empopacity="0.30196078"
       color="#ffffff"
       opacity="0.14901961"
       empspacing="4"
       dotted="false"
       gridanglex="30"
       gridanglez="30"
       visible="true" />
  </sodipodi:namedview>
  <defs
     id="defs1" />
  <g
     inkscape:label="Layer 1"
     inkscape:groupmode="layer"
     id="layer1">
    <path
       id="path1-5"
       style="font-variation-settings:'wght' 292;vector-effect:non-scaling-stroke;fill:#000000;stroke-width:0.264583;-inkscape-stroke:hairline;paint-order:stroke fill markers"
       d="M 54.999744,67.499754 A 35,21.25 0 0 0 19.999813,88.750136 35,21.25 0 0 0 54.999744,110 35,21.25 0 0 0 90.000191,88.750136 35,21.25 0 0 0 54.999744,67.499754 Z m 0,10.000423 c 7.573599,0 15.065125,2.042853 19.559013,4.771285 4.493887,2.728432 5.441011,5.227071 5.441011,6.478674 0,1.251604 -0.947124,3.749726 -5.441011,6.478158 -4.493888,2.728432 -11.985414,4.771806 -19.559013,4.771806 -7.5736,0 -15.064609,-2.043374 -19.558496,-4.771806 -4.493888,-2.728432 -5.441012,-5.226554 -5.441012,-6.478158 0,-1.251603 0.947124,-3.750242 5.441012,-6.478674 4.493887,-2.728432 11.984896,-4.771285 19.558496,-4.771285 z" />
  </g>
</svg>
