<?xml version="1.0" encoding="UTF-8" standalone="no"?>
<!-- Created with Inkscape (http://www.inkscape.org/) -->

<svg
   width="110mm"
   height="130mm"
   viewBox="0 0 110 130"
   version="1.1"
   id="svg1"
   inkscape:version="1.3.2 (091e20ef0f, 2023-11-25, custom)"
   sodipodi:docname="ma.svg"
   xmlns:inkscape="http://www.inkscape.org/namespaces/inkscape"
   xmlns:sodipodi="http://sodipodi.sourceforge.net/DTD/sodipodi-0.dtd"
   xmlns="http://www.w3.org/2000/svg"
   xmlns:svg="http://www.w3.org/2000/svg">
  <sodipodi:namedview
     id="namedview1"
     pagecolor="#505050"
     bordercolor="#eeeeee"
     borderopacity="1"
     inkscape:showpageshadow="0"
     inkscape:pageopacity="0"
     inkscape:pagecheckerboard="0"
     inkscape:deskcolor="#505050"
     inkscape:document-units="mm"
     showgrid="true"
     inkscape:zoom="1.2732044"
     inkscape:cx="206.56542"
     inkscape:cy="278.43134"
     inkscape:window-width="674"
     inkscape:window-height="733"
     inkscape:window-x="685"
     inkscape:window-y="5"
     inkscape:window-maximized="1"
     inkscape:current-layer="layer1">
    <inkscape:grid
       id="grid1"
       units="mm"
       originx="0"
       originy="0"
       spacingx="2.5000001"
       spacingy="2.5000001"
       empcolor="#ffffff"
       empopacity="0.30196078"
       color="#ffffff"
       opacity="0.14901961"
       empspacing="4"
       dotted="false"
       gridanglex="30"
       gridanglez="30"
       visible="true" />
  </sodipodi:namedview>
  <defs
     id="defs1" />
  <g
     inkscape:label="Layer 1"
     inkscape:groupmode="layer"
     id="layer1">
    <path
       id="path1-5"
       style="vector-effect:non-scaling-stroke;fill:#000000;stroke-width:0.272726;-inkscape-stroke:hairline"
       d="M 54.999744 67.499756 A 35 21.25 0 0 0 19.999813 88.750138 A 35 21.25 0 0 0 54.999744 110 A 35 21.25 0 0 0 90.000191 88.750138 A 35 21.25 0 0 0 54.999744 67.499756 z M 50.000049 77.719804 L 50.000049 83.749927 L 33.218644 83.749927 C 33.840915 83.248229 34.539548 82.735873 35.404041 82.211003 C 38.912418 80.080915 44.236908 78.374173 50.000049 77.719804 z M 59.999955 77.719804 C 65.7629 78.374217 71.087172 80.080978 74.595447 82.211003 C 75.459939 82.735873 76.158542 83.248229 76.780843 83.749927 L 59.999955 83.749927 L 59.999955 77.719804 z M 33.217611 93.749833 L 50.000049 93.749833 L 50.000049 99.780473 C 44.236908 99.126104 38.912418 97.41936 35.404041 95.289274 C 34.539143 94.764158 33.840068 94.251752 33.217611 93.749833 z M 59.999955 93.749833 L 76.781877 93.749833 C 76.159389 94.251752 75.460344 94.764158 74.595447 95.289274 C 71.087172 97.419298 65.7629 99.126061 59.999955 99.780473 L 59.999955 93.749833 z " />
  </g>
</svg>
