<?xml version="1.0" encoding="UTF-8" standalone="no"?>
<!-- Created with Inkscape (http://www.inkscape.org/) -->

<svg
   width="110mm"
   height="130mm"
   viewBox="0 0 110 130"
   version="1.1"
   id="svg1"
   inkscape:version="1.3.2 (091e20ef0f, 2023-11-25, custom)"
   sodipodi:docname="mani.svg"
   xmlns:inkscape="http://www.inkscape.org/namespaces/inkscape"
   xmlns:sodipodi="http://sodipodi.sourceforge.net/DTD/sodipodi-0.dtd"
   xmlns="http://www.w3.org/2000/svg"
   xmlns:svg="http://www.w3.org/2000/svg">
  <sodipodi:namedview
     id="namedview1"
     pagecolor="#505050"
     bordercolor="#eeeeee"
     borderopacity="1"
     inkscape:showpageshadow="0"
     inkscape:pageopacity="0"
     inkscape:pagecheckerboard="0"
     inkscape:deskcolor="#505050"
     inkscape:document-units="mm"
     showgrid="true"
     inkscape:zoom="1.9423081"
     inkscape:cx="210.05937"
     inkscape:cy="306.07915"
     inkscape:window-width="674"
     inkscape:window-height="733"
     inkscape:window-x="685"
     inkscape:window-y="5"
     inkscape:window-maximized="1"
     inkscape:current-layer="layer1">
    <inkscape:grid
       id="grid1"
       units="mm"
       originx="0"
       originy="0"
       spacingx="2.5000001"
       spacingy="2.5000001"
       empcolor="#ffffff"
       empopacity="0.30196078"
       color="#ffffff"
       opacity="0.14901961"
       empspacing="4"
       dotted="false"
       gridanglex="30"
       gridanglez="30"
       visible="true" />
  </sodipodi:namedview>
  <defs
     id="defs1" />
  <g
     inkscape:label="Layer 1"
     inkscape:groupmode="layer"
     id="layer1">
    <path
       id="path1"
       style="vector-effect:non-scaling-stroke;fill:#000000;stroke-width:0.230495;-inkscape-stroke:hairline"
       d="M 15.000118 67.499756 A 19.999998 20 0 0 0 30.157332 86.879451 A 24.999998 21.250004 0 0 0 30.000236 88.750138 A 24.999998 21.250004 0 0 0 54.999744 110 A 24.999998 21.250004 0 0 0 79.947058 89.37749 A 19.999998 20 0 0 0 94.999886 69.999862 L 84.99998 69.999862 A 9.999999 10 0 0 1 77.588546 79.656637 A 24.999998 21.250004 0 0 0 54.999744 67.499756 A 24.999998 21.250004 0 0 0 33.867183 77.419047 A 9.999999 10 0 0 1 25.000024 67.499756 L 15.000118 67.499756 z M 54.999744 77.484159 C 63.645733 77.484159 70.01588 83.774473 70.015881 88.750138 C 70.01588 93.725804 63.645733 100.0156 54.999744 100.0156 C 46.353753 100.0156 39.984124 93.725804 39.984123 88.750138 C 39.984124 83.774473 46.353753 77.484159 54.999744 77.484159 z " />
  </g>
</svg>
