<?xml version="1.0" encoding="UTF-8" standalone="no"?>
<!-- Created with Inkscape (http://www.inkscape.org/) -->

<svg
   width="110mm"
   height="130mm"
   viewBox="0 0 110 130"
   version="1.1"
   id="svg1"
   inkscape:version="1.3.2 (091e20ef0f, 2023-11-25, custom)"
   sodipodi:docname="meli.svg"
   xmlns:inkscape="http://www.inkscape.org/namespaces/inkscape"
   xmlns:sodipodi="http://sodipodi.sourceforge.net/DTD/sodipodi-0.dtd"
   xmlns="http://www.w3.org/2000/svg"
   xmlns:svg="http://www.w3.org/2000/svg">
  <sodipodi:namedview
     id="namedview1"
     pagecolor="#505050"
     bordercolor="#eeeeee"
     borderopacity="1"
     inkscape:showpageshadow="0"
     inkscape:pageopacity="0"
     inkscape:pagecheckerboard="0"
     inkscape:deskcolor="#505050"
     inkscape:document-units="mm"
     showgrid="true"
     inkscape:zoom="0.56964191"
     inkscape:cx="603.88816"
     inkscape:cy="190.47054"
     inkscape:window-width="674"
     inkscape:window-height="733"
     inkscape:window-x="685"
     inkscape:window-y="5"
     inkscape:window-maximized="1"
     inkscape:current-layer="layer1">
    <inkscape:grid
       id="grid1"
       units="mm"
       originx="0"
       originy="0"
       spacingx="2.5000001"
       spacingy="2.5000001"
       empcolor="#ffffff"
       empopacity="0.30196078"
       color="#ffffff"
       opacity="0.14901961"
       empspacing="4"
       dotted="false"
       gridanglex="30"
       gridanglez="30"
       visible="true" />
  </sodipodi:namedview>
  <defs
     id="defs1" />
  <g
     inkscape:label="Layer 1"
     inkscape:groupmode="layer"
     id="layer1">
    <path
       id="path2"
       style="vector-effect:non-scaling-stroke;fill:#000000;stroke-width:0.264583;-inkscape-stroke:hairline"
       d="M 54.999744 79.999768 A 15 15 0 0 0 40.000142 94.999886 A 15 15 0 0 0 54.999744 110 A 15 15 0 0 0 69.999862 94.999886 A 15 15 0 0 0 54.999744 79.999768 z M 54.999744 90.000191 A 4.9999995 4.9999995 0 0 1 59.999955 94.999886 A 4.9999995 4.9999995 0 0 1 54.999744 100.0001 A 4.9999995 4.9999995 0 0 1 50.000049 94.999886 A 4.9999995 4.9999995 0 0 1 54.999744 90.000191 z " />
    <path
       id="path4"
       style="vector-effect:non-scaling-stroke;fill:#000000;stroke-width:0.264583;-inkscape-stroke:hairline"
       d="M 54.999744 67.499756 A 27.499996 27.499996 0 0 0 27.50013 94.999886 L 27.50013 110 L 37.500037 110 L 37.500037 94.999886 A 17.5 17.5 0 0 1 54.999744 77.500179 A 17.5 17.5 0 0 1 72.499967 94.999886 L 72.499967 110 L 82.499874 110 L 82.499874 94.999886 A 27.499996 27.499996 0 0 0 54.999744 67.499756 z " />
  </g>
</svg>
