<?xml version="1.0" encoding="UTF-8" standalone="no"?>
<!-- Created with Inkscape (http://www.inkscape.org/) -->

<svg
   width="110mm"
   height="130mm"
   viewBox="0 0 110 130"
   version="1.1"
   id="svg1"
   inkscape:version="1.3.2 (091e20ef0f, 2023-11-25, custom)"
   sodipodi:docname="mije.svg"
   xmlns:inkscape="http://www.inkscape.org/namespaces/inkscape"
   xmlns:sodipodi="http://sodipodi.sourceforge.net/DTD/sodipodi-0.dtd"
   xmlns="http://www.w3.org/2000/svg"
   xmlns:svg="http://www.w3.org/2000/svg">
  <sodipodi:namedview
     id="namedview1"
     pagecolor="#505050"
     bordercolor="#eeeeee"
     borderopacity="1"
     inkscape:showpageshadow="0"
     inkscape:pageopacity="0"
     inkscape:pagecheckerboard="0"
     inkscape:deskcolor="#505050"
     inkscape:document-units="mm"
     showgrid="true"
     inkscape:zoom="0.89083686"
     inkscape:cx="257.06166"
     inkscape:cy="192.51561"
     inkscape:window-width="674"
     inkscape:window-height="733"
     inkscape:window-x="685"
     inkscape:window-y="5"
     inkscape:window-maximized="1"
     inkscape:current-layer="layer1">
    <inkscape:grid
       id="grid1"
       units="mm"
       originx="0"
       originy="0"
       spacingx="2.5000001"
       spacingy="2.5000001"
       empcolor="#ffffff"
       empopacity="0.30196078"
       color="#ffffff"
       opacity="0.14901961"
       empspacing="4"
       dotted="false"
       gridanglex="30"
       gridanglez="30"
       visible="true" />
  </sodipodi:namedview>
  <defs
     id="defs1" />
  <g
     inkscape:label="Layer 1"
     inkscape:groupmode="layer"
     id="layer1">
    <path
       id="path1"
       style="vector-effect:non-scaling-stroke;fill:#000000;stroke-width:0.264583;-inkscape-stroke:hairline"
       d="M 54.999744 67.499756 A 20 20 0 0 0 34.999931 87.500085 A 20 20 0 0 0 54.999744 107.4999 A 20 20 0 0 0 75.000073 87.500085 A 20 20 0 0 0 54.999744 67.499756 z M 54.999744 77.500179 A 9.9999981 9.9999981 0 0 1 65.000167 87.500085 A 9.9999981 9.9999981 0 0 1 54.999744 97.499992 A 9.9999981 9.9999981 0 0 1 44.999837 87.500085 A 9.9999981 9.9999981 0 0 1 54.999744 77.500179 z " />
    <path
       id="rect2"
       style="vector-effect:non-scaling-stroke;fill:#000000;stroke-width:0.264583;-inkscape-stroke:hairline"
       d="M 25.000024 90.000191 L 25.000024 110 L 34.999931 110 L 34.999931 100.0001 L 39.437903 100.0001 A 19.999998 20 0 0 1 35.178731 90.000191 L 25.000024 90.000191 z M 74.821273 90.000191 A 19.999998 20 0 0 1 70.562101 100.0001 L 75.000073 100.0001 L 75.000073 110 L 84.99998 110 L 84.99998 90.000191 L 74.821273 90.000191 z " />
  </g>
</svg>
