<?xml version="1.0" encoding="UTF-8" standalone="no"?>
<!-- Created with Inkscape (http://www.inkscape.org/) -->

<svg
   width="110mm"
   height="130mm"
   viewBox="0 0 110 130"
   version="1.1"
   id="svg1"
   inkscape:version="1.3.2 (091e20ef0f, 2023-11-25, custom)"
   sodipodi:docname="pipi.svg"
   xml:space="preserve"
   xmlns:inkscape="http://www.inkscape.org/namespaces/inkscape"
   xmlns:sodipodi="http://sodipodi.sourceforge.net/DTD/sodipodi-0.dtd"
   xmlns="http://www.w3.org/2000/svg"
   xmlns:svg="http://www.w3.org/2000/svg"><sodipodi:namedview
     id="namedview1"
     pagecolor="#505050"
     bordercolor="#eeeeee"
     borderopacity="1"
     inkscape:showpageshadow="0"
     inkscape:pageopacity="0"
     inkscape:pagecheckerboard="0"
     inkscape:deskcolor="#505050"
     inkscape:document-units="mm"
     showgrid="true"
     inkscape:zoom="1.0158897"
     inkscape:cx="272.66739"
     inkscape:cy="240.18355"
     inkscape:window-width="1366"
     inkscape:window-height="768"
     inkscape:window-x="0"
     inkscape:window-y="0"
     inkscape:window-maximized="1"
     inkscape:current-layer="layer1"><inkscape:grid
       id="grid1"
       units="mm"
       originx="0"
       originy="0"
       spacingx="2.5000001"
       spacingy="2.5000001"
       empcolor="#ffffff"
       empopacity="0.30196078"
       color="#ffffff"
       opacity="0.14901961"
       empspacing="4"
       dotted="false"
       gridanglex="30"
       gridanglez="30"
       visible="true" /></sodipodi:namedview><defs
     id="defs1" /><g
     inkscape:label="Layer 1"
     inkscape:groupmode="layer"
     id="layer1"><path
       id="path3"
       style="font-variation-settings:'wght' 700;stroke-width:0.374177"
       d="m 94.999997,75.000002 a 6.25,6.25 0 0 0 -6.250002,-6.25 6.25,6.25 0 0 0 -6.249999,6.25 6.25,6.25 0 0 0 6.249999,6.250001 6.25,6.25 0 0 0 6.250002,-6.250001 z" /><path
       id="path3-6"
       style="font-variation-settings:'wght' 700;stroke-width:0.374177"
       d="M 94.999997,100 A 6.25,6.25 0 0 0 88.749999,93.750006 6.25,6.25 0 0 0 82.5,100 a 6.25,6.25 0 0 0 6.249999,6.25 6.25,6.25 0 0 0 6.249998,-6.25 z" /><path
       id="rect6"
       style="font-variation-settings:'wght' 700;stroke-width:0.23665"
       d="M 69.999999,104.99999 V 70.000002 h -7.500001 v 34.999988 z" /><path
       id="rect6-0-6"
       style="font-variation-settings:'wght' 700;stroke-width:0.23665"
       d="M 52.500002,104.99999 V 70.000004 h -7.500004 v 34.999986 z" /><path
       id="rect6-1-1"
       style="font-variation-settings:'wght' 700;stroke-width:0.23665"
       d="M 35.000002,105 V 70.000002 H 27.499999 V 105 Z" /><path
       id="rect2-8"
       style="vector-effect:non-scaling-stroke;stroke-width:0.362295;stroke-miterlimit:100;-inkscape-stroke:hairline"
       d="M 82.499997,91.249996 V 83.749997 H 14.999999 v 7.499999 z" /></g></svg>
