<?xml version="1.0" encoding="UTF-8" standalone="no"?>
<!-- Created with Inkscape (http://www.inkscape.org/) -->

<svg
   width="110mm"
   height="130mm"
   viewBox="0 0 110 130"
   version="1.1"
   id="svg1"
   inkscape:version="1.3.2 (091e20ef0f, 2023-11-25, custom)"
   sodipodi:docname="pipi.svg"
   xml:space="preserve"
   xmlns:inkscape="http://www.inkscape.org/namespaces/inkscape"
   xmlns:sodipodi="http://sodipodi.sourceforge.net/DTD/sodipodi-0.dtd"
   xmlns="http://www.w3.org/2000/svg"
   xmlns:svg="http://www.w3.org/2000/svg"><sodipodi:namedview
     id="namedview1"
     pagecolor="#505050"
     bordercolor="#eeeeee"
     borderopacity="1"
     inkscape:showpageshadow="0"
     inkscape:pageopacity="0"
     inkscape:pagecheckerboard="0"
     inkscape:deskcolor="#505050"
     inkscape:document-units="mm"
     showgrid="true"
     inkscape:zoom="1.5307359"
     inkscape:cx="197.29073"
     inkscape:cy="330.8866"
     inkscape:window-width="1354"
     inkscape:window-height="733"
     inkscape:window-x="5"
     inkscape:window-y="5"
     inkscape:window-maximized="1"
     inkscape:current-layer="layer1"><inkscape:grid
       id="grid1"
       units="mm"
       originx="0"
       originy="0"
       spacingx="2.5000001"
       spacingy="2.5000001"
       empcolor="#ffffff"
       empopacity="0.30196078"
       color="#ffffff"
       opacity="0.14901961"
       empspacing="4"
       dotted="false"
       gridanglex="30"
       gridanglez="30"
       visible="true" /></sodipodi:namedview><defs
     id="defs1" /><g
     inkscape:label="Layer 1"
     inkscape:groupmode="layer"
     id="layer1"><path
       id="path3"
       style="font-variation-settings:'wght' 700;stroke-width:0.374177"
       d="M 88.750138 68.749809 A 6.25 6.25 0 0 0 82.499874 75.000073 A 6.25 6.25 0 0 0 88.750138 81.249821 A 6.25 6.25 0 0 0 94.999886 75.000073 A 6.25 6.25 0 0 0 88.750138 68.749809 z M 25.000024 69.999862 L 25.000024 82.499874 L 15.000118 82.499874 L 15.000118 92.49978 L 25.000024 92.49978 L 25.000024 104.99979 L 34.999931 104.99979 L 34.999931 92.49978 L 43.749784 92.49978 L 43.749784 104.99979 L 53.750208 104.99979 L 53.750208 92.49978 L 62.500061 92.49978 L 62.500061 104.99979 L 72.499967 104.99979 L 72.499967 92.49978 L 82.499874 92.49978 L 82.499874 82.499874 L 72.499967 82.499874 L 72.499967 69.999862 L 62.500061 69.999862 L 62.500061 82.499874 L 53.750208 82.499874 L 53.750208 69.999862 L 43.749784 69.999862 L 43.749784 82.499874 L 34.999931 82.499874 L 34.999931 69.999862 L 25.000024 69.999862 z M 88.750138 93.749833 A 6.25 6.25 0 0 0 82.499874 100.0001 A 6.25 6.25 0 0 0 88.750138 106.24985 A 6.25 6.25 0 0 0 94.999886 100.0001 A 6.25 6.25 0 0 0 88.750138 93.749833 z " /></g></svg>
