<?xml version="1.0" encoding="UTF-8" standalone="no"?>
<!-- Created with Inkscape (http://www.inkscape.org/) -->

<svg
   width="110mm"
   height="130mm"
   viewBox="0 0 110 130"
   version="1.1"
   id="svg1"
   inkscape:version="1.3.2 (091e20ef0f, 2023-11-25, custom)"
   sodipodi:docname="lipamanka.svg"
   xmlns:inkscape="http://www.inkscape.org/namespaces/inkscape"
   xmlns:sodipodi="http://sodipodi.sourceforge.net/DTD/sodipodi-0.dtd"
   xmlns="http://www.w3.org/2000/svg"
   xmlns:svg="http://www.w3.org/2000/svg">
  <sodipodi:namedview
     id="namedview1"
     pagecolor="#505050"
     bordercolor="#eeeeee"
     borderopacity="1"
     inkscape:showpageshadow="0"
     inkscape:pageopacity="0"
     inkscape:pagecheckerboard="0"
     inkscape:deskcolor="#505050"
     inkscape:document-units="mm"
     showgrid="true"
     inkscape:zoom="0.85960294"
     inkscape:cx="74.452979"
     inkscape:cy="204.16403"
     inkscape:window-width="1354"
     inkscape:window-height="733"
     inkscape:window-x="5"
     inkscape:window-y="5"
     inkscape:window-maximized="1"
     inkscape:current-layer="layer1"
     showguides="true">
    <inkscape:grid
       id="grid1"
       units="mm"
       originx="0"
       originy="0"
       spacingx="2.5000001"
       spacingy="2.5000001"
       empcolor="#ffffff"
       empopacity="0.30196078"
       color="#ffffff"
       opacity="0.14901961"
       empspacing="4"
       dotted="false"
       gridanglex="30"
       gridanglez="30"
       visible="true" />
  </sodipodi:namedview>
  <defs
     id="defs1">
    <inkscape:path-effect
       effect="spiro"
       id="path-effect22"
       is_visible="true"
       lpeversion="1" />
    <inkscape:path-effect
       effect="spiro"
       id="path-effect11"
       is_visible="true"
       lpeversion="1" />
    <inkscape:path-effect
       effect="spiro"
       id="path-effect11-1"
       is_visible="true"
       lpeversion="1" />
  </defs>
  <g
     inkscape:label="Layer 1"
     inkscape:groupmode="layer"
     id="layer1">
    <path
       id="rect1-7"
       style="vector-effect:non-scaling-stroke;fill:#000000;fill-opacity:1;fill-rule:evenodd;stroke:none;stroke-width:0.271833;stroke-miterlimit:100;stroke-opacity:1;-inkscape-stroke:hairline"
       inkscape:transform-center-x="18.250002"
       inkscape:transform-center-y="-16.000003"
       d="m 69.999832,30.000001 10e-7,9.999906 h 5.000211 l 10e-7,8.333342 11.796178,15.728238 -6.796484,6.796485 10e-7,11.81995 L 79.999571,110 h 10.000426 l 1.67e-4,-35.00016 9.999906,-9.999906 -6.06113,-8.081163 -8.938989,-11.918653 V 39.999907 L 84.99995,30 l -9.999906,1e-6 z"
       sodipodi:nodetypes="ccccccccccccccccc" />
    <path
       id="path15"
       style="font-variation-settings:'wght' 700;fill:#000000;fill-opacity:1;stroke-width:0.264583"
       d="M 30.000237,69.999962 A 19.999998,19.999998 0 0 0 9.9999078,89.999775 19.999998,19.999998 0 0 0 30.000237,110.00011 V 100.0002 A 9.999999,9.999999 0 0 1 19.999814,89.999775 9.999999,9.999999 0 0 1 30.000237,79.999869 Z" />
    <path
       id="path17"
       style="font-variation-settings:'wght' 700;fill:#000000;fill-opacity:1;stroke-width:0.211666"
       d="M 69.999672,29.999859 A 39.999996,39.999996 0 0 0 30.000046,70.000001 h 9.999906 a 29.999996,29.999996 0 0 1 29.99972,-30.000236 z" />
    <path
       id="rect18"
       style="font-variation-settings:'wght' 700;stroke-width:0.264583"
       d="m 30.000004,70.000001 h 9.999999 V 110 h -9.999999 z" />
    <path
       id="rect20"
       style="font-variation-settings:'wght' 700;stroke-width:0.305514"
       d="m 35,100.00001 h 17.49993 v 10 H 35 Z" />
    <path
       id="path24"
       style="font-variation-settings:'wght' 700;stroke-width:0.295855"
       inkscape:transform-center-x="4.9600136"
       inkscape:transform-center-y="2.5801288"
       d="m 77.550706,59.867367 a 5.5909615,5.5909615 0 0 1 -2.379888,7.540149 5.5909615,5.5909615 0 0 1 -7.540148,-2.379888 5.5909615,5.5909615 0 0 1 2.379887,-7.540147 5.5909615,5.5909615 0 0 1 7.540149,2.379886 z" />
    <path
       id="path24-1"
       style="font-variation-settings:'wght' 700;stroke-width:0.295855"
       inkscape:transform-center-x="4.9600136"
       inkscape:transform-center-y="2.5801288"
       d="m 62.460015,59.91987 a 5.5909615,5.5909615 0 0 1 -2.379886,7.540149 5.5909615,5.5909615 0 0 1 -7.540149,-2.379887 5.5909615,5.5909615 0 0 1 2.379888,-7.540149 5.5909615,5.5909615 0 0 1 7.540147,2.379887 z" />
    <path
       id="path2"
       style="font-variation-settings:'wght' 400;vector-effect:non-scaling-stroke;fill:#000000;stroke:none;stroke-width:0.264583;-inkscape-stroke:hairline;paint-order:stroke fill markers"
       d="M 56.739172 20.00343 A 20.000002 30 50 0 0 33.47651 29.308289 A 20.000002 30 50 0 0 23.351546 63.912895 A 20.000002 30 50 0 0 36.962602 69.204561 L 38.753707 59.356067 A 9.999999 19.999954 50 0 1 31.012061 57.484863 A 9.999999 19.999954 50 0 1 39.905058 36.968803 A 9.999999 19.999954 50 0 1 61.653601 31.773771 A 9.999999 19.999954 50 0 1 62.899003 36.260836 L 65.000167 34.999931 L 72.574898 33.484778 A 20.000002 30 50 0 0 69.314115 25.34574 A 20.000002 30 50 0 0 56.739172 20.00343 z " />
    <path
       id="rect3"
       style="font-variation-settings:'wght' 400;vector-effect:non-scaling-stroke;fill:#000000;stroke:none;stroke-width:0.264583;-inkscape-stroke:hairline;paint-order:stroke fill markers"
       d="M 72.499997,109.99993 V 75.000002 L 42.500279,92.499703 Z m -5.000212,-8.7049 -15.077116,-8.794811 15.077116,-8.794808 z"
       sodipodi:nodetypes="cccccccc" />
    <path
       id="rect3-9"
       style="font-variation-settings:'wght' 400;vector-effect:non-scaling-stroke;fill:#000000;stroke:none;stroke-width:0.264583;-inkscape-stroke:hairline;paint-order:stroke fill markers"
       d="M 52.499929,109.95471 V 74.954782 l 29.999716,17.499703 z m 5.000209,-8.70489 15.077116,-8.794818 -15.077116,-8.79481 z"
       sodipodi:nodetypes="cccccccc" />
  </g>
</svg>
