<?xml version="1.0" encoding="UTF-8" standalone="no"?>
<!-- Created with Inkscape (http://www.inkscape.org/) -->

<svg
   width="110mm"
   height="130mm"
   viewBox="0 0 110 130"
   version="1.1"
   id="svg1"
   inkscape:version="1.3.2 (091e20ef0f, 2023-11-25, custom)"
   sodipodi:docname="3.svg"
   xmlns:inkscape="http://www.inkscape.org/namespaces/inkscape"
   xmlns:sodipodi="http://sodipodi.sourceforge.net/DTD/sodipodi-0.dtd"
   xmlns="http://www.w3.org/2000/svg"
   xmlns:svg="http://www.w3.org/2000/svg">
  <sodipodi:namedview
     id="namedview1"
     pagecolor="#505050"
     bordercolor="#eeeeee"
     borderopacity="1"
     inkscape:showpageshadow="0"
     inkscape:pageopacity="0"
     inkscape:pagecheckerboard="0"
     inkscape:deskcolor="#505050"
     inkscape:document-units="mm"
     showgrid="true"
     inkscape:zoom="1.5412424"
     inkscape:cx="229.68483"
     inkscape:cy="232.28014"
     inkscape:window-width="1366"
     inkscape:window-height="768"
     inkscape:window-x="0"
     inkscape:window-y="0"
     inkscape:window-maximized="1"
     inkscape:current-layer="layer1">
    <inkscape:grid
       id="grid1"
       units="mm"
       originx="0"
       originy="0"
       spacingx="2.5000001"
       spacingy="2.5000001"
       empcolor="#ffffff"
       empopacity="0.30196078"
       color="#ffffff"
       opacity="0.14901961"
       empspacing="4"
       dotted="false"
       gridanglex="30"
       gridanglez="30"
       visible="true" />
  </sodipodi:namedview>
  <defs
     id="defs1" />
  <g
     inkscape:label="Layer 1"
     inkscape:groupmode="layer"
     id="layer1">
    <path
       id="path8"
       style="vector-effect:non-scaling-stroke;fill:#000000;stroke:none;stroke-width:0.264583;stroke-opacity:1;-inkscape-stroke:hairline"
       d="M 30.000236 19.999813 L 30.000236 30.000236 L 65.611499 30.000236 L 38.308773 56.38984 L 38.34443 56.42653 L 45.258736 63.580098 L 45.291292 63.626607 A 15 15 0 0 1 54.999744 59.999955 A 15 15 0 0 1 69.999862 75.000073 L 79.999768 75.000073 A 25 25 0 0 0 58.976245 50.320959 L 79.999768 30.000236 L 79.999768 19.999813 L 30.000236 19.999813 z M 30.000236 84.99998 A 25 25 0 0 0 54.999744 110 A 25 25 0 0 0 79.999768 84.99998 L 69.999862 84.99998 A 15 15 0 0 1 54.999744 100.0001 A 15 15 0 0 1 40.000142 84.99998 L 30.000236 84.99998 z " />
    <rect
       style="vector-effect:non-scaling-stroke;fill:#000000;stroke:none;stroke-width:0.264583;stroke-opacity:1;-inkscape-stroke:hairline"
       id="rect10"
       width="9.999999"
       height="10"
       x="70"
       y="75" />
  </g>
</svg>
