<?xml version="1.0" encoding="UTF-8" standalone="no"?>
<!-- Created with Inkscape (http://www.inkscape.org/) -->

<svg
   width="110mm"
   height="130mm"
   viewBox="0 0 110 130"
   version="1.1"
   id="svg1"
   inkscape:version="1.3.2 (091e20ef0f, 2023-11-25, custom)"
   sodipodi:docname="8.svg"
   xmlns:inkscape="http://www.inkscape.org/namespaces/inkscape"
   xmlns:sodipodi="http://sodipodi.sourceforge.net/DTD/sodipodi-0.dtd"
   xmlns="http://www.w3.org/2000/svg"
   xmlns:svg="http://www.w3.org/2000/svg">
  <sodipodi:namedview
     id="namedview1"
     pagecolor="#505050"
     bordercolor="#eeeeee"
     borderopacity="1"
     inkscape:showpageshadow="0"
     inkscape:pageopacity="0"
     inkscape:pagecheckerboard="0"
     inkscape:deskcolor="#505050"
     inkscape:document-units="mm"
     showgrid="true"
     inkscape:zoom="1.2838547"
     inkscape:cx="160.45429"
     inkscape:cy="230.16623"
     inkscape:window-width="1354"
     inkscape:window-height="733"
     inkscape:window-x="5"
     inkscape:window-y="5"
     inkscape:window-maximized="1"
     inkscape:current-layer="layer1">
    <inkscape:grid
       id="grid1"
       units="mm"
       originx="0"
       originy="0"
       spacingx="2.5000001"
       spacingy="2.5000001"
       empcolor="#ffffff"
       empopacity="0.30196078"
       color="#ffffff"
       opacity="0.14901961"
       empspacing="4"
       dotted="false"
       gridanglex="30"
       gridanglez="30"
       visible="true" />
  </sodipodi:namedview>
  <defs
     id="defs1" />
  <g
     inkscape:label="Layer 1"
     inkscape:groupmode="layer"
     id="layer1">
    <path
       id="path1"
       style="vector-effect:non-scaling-stroke;fill:#000000;stroke-width:0.264583;-inkscape-stroke:hairline"
       d="M 54.999744 19.999813 A 25 25 0 0 0 30.000236 44.999837 A 25 25 0 0 0 40.106596 65.000167 A 25 25 0 0 0 30.000236 84.99998 A 25 25 0 0 0 54.999744 110 A 25 25 0 0 0 79.999768 84.99998 A 25 25 0 0 0 69.995211 64.99965 A 25 25 0 0 0 79.999768 44.999837 A 25 25 0 0 0 54.999744 19.999813 z M 54.999744 30.000236 A 15 15 0 0 1 69.999862 44.999837 A 15 15 0 0 1 54.999744 59.999955 A 15 15 0 0 1 40.000142 44.999837 A 15 15 0 0 1 54.999744 30.000236 z M 54.999744 70.000378 A 15 15 0 0 1 69.999862 84.99998 A 15 15 0 0 1 54.999744 100.0001 A 15 15 0 0 1 40.000142 84.99998 A 15 15 0 0 1 54.999744 70.000378 z " />
  </g>
</svg>
