<?xml version="1.0" encoding="UTF-8" standalone="no"?>
<!-- Created with Inkscape (http://www.inkscape.org/) -->

<svg
   width="110mm"
   height="130mm"
   viewBox="0 0 110 130"
   version="1.1"
   id="svg1"
   inkscape:version="1.3.2 (091e20ef0f, 2023-11-25, custom)"
   sodipodi:docname="a.svg"
   xmlns:inkscape="http://www.inkscape.org/namespaces/inkscape"
   xmlns:sodipodi="http://sodipodi.sourceforge.net/DTD/sodipodi-0.dtd"
   xmlns="http://www.w3.org/2000/svg"
   xmlns:svg="http://www.w3.org/2000/svg">
  <sodipodi:namedview
     id="namedview1"
     pagecolor="#505050"
     bordercolor="#eeeeee"
     borderopacity="1"
     inkscape:showpageshadow="0"
     inkscape:pageopacity="0"
     inkscape:pagecheckerboard="0"
     inkscape:deskcolor="#505050"
     inkscape:document-units="mm"
     showgrid="true"
     inkscape:zoom="2.1697572"
     inkscape:cx="140.79916"
     inkscape:cy="305.3337"
     inkscape:window-width="1354"
     inkscape:window-height="733"
     inkscape:window-x="5"
     inkscape:window-y="5"
     inkscape:window-maximized="1"
     inkscape:current-layer="layer1"
     showguides="true">
    <inkscape:grid
       id="grid1"
       units="mm"
       originx="0"
       originy="0"
       spacingx="2.5000001"
       spacingy="2.5000001"
       empcolor="#ffffff"
       empopacity="0.30196078"
       color="#ffffff"
       opacity="0.14901961"
       empspacing="4"
       dotted="false"
       gridanglex="30"
       gridanglez="30"
       visible="true" />
  </sodipodi:namedview>
  <defs
     id="defs1">
    <inkscape:path-effect
       effect="spiro"
       id="path-effect11"
       is_visible="true"
       lpeversion="1" />
    <inkscape:path-effect
       effect="spiro"
       id="path-effect11-1"
       is_visible="true"
       lpeversion="1" />
  </defs>
  <g
     inkscape:label="Layer 1"
     inkscape:groupmode="layer"
     id="layer1">
    <path
       id="rect2"
       style="vector-effect:non-scaling-stroke;fill:#000000;stroke-width:0.264583;stroke-miterlimit:40;-inkscape-stroke:hairline;paint-order:stroke fill markers"
       d="m 26.250077,50.000001 c -8.991108,0.02147 -17.1992547,5.11838 -21.2054237,13.167671 l 8.9446737,4.463811 c 2.31448,-4.658133 7.059344,-7.611524 12.26075,-7.631576 7.593967,-3.7e-5 13.750102,6.156098 13.750065,13.750065 l -1.43e-4,1.25003 -17.50008,7.1e-5 C 12.835164,75.000233 5.0003723,82.835025 5.0002116,92.49978 5.000089,102.16474 12.834964,109.99984 22.499919,110 h 2.500105 c 5.40985,-0.001 10.67329,-1.75755 15.000118,-5.00486 V 110 h 9.999907 V 84.99998 l -5.1e-5,-9.999978 5.1e-5,-1.25003 C 50.000582,60.633231 39.366818,50.000015 26.250077,50.000001 Z M 22.499919,84.99998 h 17.500223 c 6.6e-5,8.284364 -6.715754,15.00019 -15.000118,15.00012 h -2.500105 c -4.142183,-1.1e-4 -7.499977,-3.358137 -7.499801,-7.50032 1.11e-4,-4.14198 3.357821,-7.49969 7.499801,-7.4998 z"
       sodipodi:nodetypes="cccccccccccccccscccsccc" />
  </g>
</svg>
