<?xml version="1.0" encoding="UTF-8" standalone="no"?>
<!-- Created with Inkscape (http://www.inkscape.org/) -->

<svg
   width="110mm"
   height="130mm"
   viewBox="0 0 110 130"
   version="1.1"
   id="svg1"
   inkscape:version="1.3.2 (091e20ef0f, 2023-11-25, custom)"
   sodipodi:docname="s.svg"
   xmlns:inkscape="http://www.inkscape.org/namespaces/inkscape"
   xmlns:sodipodi="http://sodipodi.sourceforge.net/DTD/sodipodi-0.dtd"
   xmlns="http://www.w3.org/2000/svg"
   xmlns:svg="http://www.w3.org/2000/svg">
  <sodipodi:namedview
     id="namedview1"
     pagecolor="#505050"
     bordercolor="#eeeeee"
     borderopacity="1"
     inkscape:showpageshadow="0"
     inkscape:pageopacity="0"
     inkscape:pagecheckerboard="0"
     inkscape:deskcolor="#505050"
     inkscape:document-units="mm"
     showgrid="true"
     inkscape:zoom="1.2317428"
     inkscape:cx="276.03166"
     inkscape:cy="238.28027"
     inkscape:window-width="674"
     inkscape:window-height="733"
     inkscape:window-x="685"
     inkscape:window-y="5"
     inkscape:window-maximized="1"
     inkscape:current-layer="layer1">
    <inkscape:grid
       id="grid1"
       units="mm"
       originx="0"
       originy="0"
       spacingx="2.5000001"
       spacingy="2.5000001"
       empcolor="#ffffff"
       empopacity="0.30196078"
       color="#ffffff"
       opacity="0.14901961"
       empspacing="4"
       dotted="false"
       gridanglex="30"
       gridanglez="30"
       visible="true" />
  </sodipodi:namedview>
  <defs
     id="defs1" />
  <g
     inkscape:label="Layer 1"
     inkscape:groupmode="layer"
     id="layer1">
    <path
       id="path4"
       style="vector-effect:non-scaling-stroke;fill:#000000;stroke-width:0.264583;-inkscape-stroke:hairline"
       d="M 52.500155 19.999813 A 27.499996 27.499996 0 0 0 25.000024 47.499943 A 22.500002 22.500002 0 0 0 47.499943 69.999862 L 62.500061 69.999862 A 12.499999 12.499999 0 0 1 75.000073 82.499874 A 17.5 17.5 0 0 1 57.499849 99.999581 L 57.499849 100.0001 L 52.500155 100.0001 A 17.5 17.5 0 0 1 35.000448 82.499874 L 25.000024 82.499874 A 27.499996 27.499996 0 0 0 52.500155 110 L 57.499849 110 A 27.499996 27.499996 0 0 0 84.99998 82.499874 A 22.500002 22.500002 0 0 0 62.500061 59.999955 L 47.499943 59.999955 A 12.499999 12.499999 0 0 1 34.999931 47.499943 A 17.5 17.5 0 0 1 52.500155 30.000236 L 57.499849 30.000236 L 57.499849 29.999719 A 17.5 17.5 0 0 1 74.999556 47.499943 L 84.99998 47.499943 A 27.499996 27.499996 0 0 0 57.499849 19.999813 L 52.500155 19.999813 z " />
  </g>
</svg>
