<?xml version="1.0" encoding="UTF-8" standalone="no"?>
<!-- Created with Inkscape (http://www.inkscape.org/) -->

<svg
   width="110mm"
   height="130mm"
   viewBox="0 0 110 130"
   version="1.1"
   id="svg1"
   inkscape:version="1.3.2 (091e20ef0f, 2023-11-25, custom)"
   sodipodi:docname="c.svg"
   xmlns:inkscape="http://www.inkscape.org/namespaces/inkscape"
   xmlns:sodipodi="http://sodipodi.sourceforge.net/DTD/sodipodi-0.dtd"
   xmlns="http://www.w3.org/2000/svg"
   xmlns:svg="http://www.w3.org/2000/svg">
  <sodipodi:namedview
     id="namedview1"
     pagecolor="#505050"
     bordercolor="#eeeeee"
     borderopacity="1"
     inkscape:showpageshadow="0"
     inkscape:pageopacity="0"
     inkscape:pagecheckerboard="0"
     inkscape:deskcolor="#505050"
     inkscape:document-units="mm"
     showgrid="true"
     inkscape:zoom="1.2302914"
     inkscape:cx="175.97456"
     inkscape:cy="256.84971"
     inkscape:window-width="1366"
     inkscape:window-height="768"
     inkscape:window-x="0"
     inkscape:window-y="0"
     inkscape:window-maximized="1"
     inkscape:current-layer="layer1">
    <inkscape:grid
       id="grid1"
       units="mm"
       originx="0"
       originy="0"
       spacingx="2.5000001"
       spacingy="2.5000001"
       empcolor="#ffffff"
       empopacity="0.30196078"
       color="#ffffff"
       opacity="0.14901961"
       empspacing="4"
       dotted="false"
       gridanglex="30"
       gridanglez="30"
       visible="true" />
  </sodipodi:namedview>
  <defs
     id="defs1" />
  <g
     inkscape:label="Layer 1"
     inkscape:groupmode="layer"
     id="layer1">
    <path
       id="path3"
       style="vector-effect:non-scaling-stroke;fill:#000000;stroke-width:0.226785;-inkscape-stroke:hairline"
       d="M 55.00026 19.999813 A 29.999998 29.999998 0 0 0 25.000541 50.000049 L 25.000024 50.000049 L 25.000024 79.999768 L 25.163839 79.999768 A 29.999998 29.999998 0 0 0 54.999744 107.4999 A 29.999998 29.999998 0 0 0 84.037248 84.99998 L 73.523678 84.99998 A 20.000002 20.000002 0 0 1 54.999744 97.499475 A 20.000002 20.000002 0 0 1 34.999931 77.499662 L 34.999931 50.000049 L 35.000448 50.000049 A 20.000002 20.000002 0 0 1 55.00026 30.000236 A 20.000002 20.000002 0 0 1 74.282288 44.999837 L 84.577266 44.999837 A 29.999998 29.999998 0 0 0 55.00026 19.999813 z " />
  </g>
</svg>
