<?xml version="1.0" encoding="UTF-8" standalone="no"?>
<!-- Created with Inkscape (http://www.inkscape.org/) -->

<svg
   width="110mm"
   height="130mm"
   viewBox="0 0 110 130"
   version="1.1"
   id="svg1"
   inkscape:version="1.3.2 (091e20ef0f, 2023-11-25, custom)"
   sodipodi:docname="g.svg"
   xmlns:inkscape="http://www.inkscape.org/namespaces/inkscape"
   xmlns:sodipodi="http://sodipodi.sourceforge.net/DTD/sodipodi-0.dtd"
   xmlns="http://www.w3.org/2000/svg"
   xmlns:svg="http://www.w3.org/2000/svg">
  <sodipodi:namedview
     id="namedview1"
     pagecolor="#505050"
     bordercolor="#eeeeee"
     borderopacity="1"
     inkscape:showpageshadow="0"
     inkscape:pageopacity="0"
     inkscape:pagecheckerboard="0"
     inkscape:deskcolor="#505050"
     inkscape:document-units="mm"
     showgrid="true"
     inkscape:zoom="0.86565852"
     inkscape:cx="154.79545"
     inkscape:cy="199.84786"
     inkscape:window-width="1366"
     inkscape:window-height="768"
     inkscape:window-x="0"
     inkscape:window-y="0"
     inkscape:window-maximized="1"
     inkscape:current-layer="layer1">
    <inkscape:grid
       id="grid1"
       units="mm"
       originx="0"
       originy="0"
       spacingx="2.5000001"
       spacingy="2.5000001"
       empcolor="#ffffff"
       empopacity="0.30196078"
       color="#ffffff"
       opacity="0.14901961"
       empspacing="4"
       dotted="false"
       gridanglex="30"
       gridanglez="30"
       visible="true" />
  </sodipodi:namedview>
  <defs
     id="defs1" />
  <g
     inkscape:label="Layer 1"
     inkscape:groupmode="layer"
     id="layer1">
    <path
       id="path9"
       style="vector-effect:non-scaling-stroke;fill:#000000;stroke-width:0.284936;-inkscape-stroke:hairline"
       d="M 54.999744 19.999813 A 35 35 0 0 0 19.999813 54.999744 L 19.999813 75.000073 A 35 35 0 0 0 54.999744 110 A 35 35 0 0 0 79.999768 99.46318 L 79.999768 110 L 90.000191 110 L 90.000191 75.000073 L 90.000191 69.999862 L 90.000191 59.999955 L 79.999768 59.999955 L 50.000049 59.999955 L 50.000049 69.999862 L 79.999768 69.999862 L 79.999768 75.000073 A 25 25 0 0 1 54.999744 99.999581 A 25 25 0 0 1 30.000236 75.000073 L 30.000236 54.999744 A 25 25 0 0 1 54.999744 30.000236 A 25 25 0 0 1 77.834009 44.999837 L 88.488139 44.999837 A 35 35 0 0 0 54.999744 19.999813 z " />
  </g>
</svg>
