<?xml version="1.0" encoding="UTF-8" standalone="no"?>
<!-- Created with Inkscape (http://www.inkscape.org/) -->

<svg
   width="110mm"
   height="130mm"
   viewBox="0 0 110 130"
   version="1.1"
   id="svg1"
   inkscape:version="1.3.2 (091e20ef0f, 2023-11-25, custom)"
   sodipodi:docname="r.svg"
   xmlns:inkscape="http://www.inkscape.org/namespaces/inkscape"
   xmlns:sodipodi="http://sodipodi.sourceforge.net/DTD/sodipodi-0.dtd"
   xmlns="http://www.w3.org/2000/svg"
   xmlns:svg="http://www.w3.org/2000/svg">
  <sodipodi:namedview
     id="namedview1"
     pagecolor="#505050"
     bordercolor="#eeeeee"
     borderopacity="1"
     inkscape:showpageshadow="0"
     inkscape:pageopacity="0"
     inkscape:pagecheckerboard="0"
     inkscape:deskcolor="#505050"
     inkscape:document-units="mm"
     showgrid="true"
     inkscape:zoom="1.1356613"
     inkscape:cx="257.11891"
     inkscape:cy="274.28953"
     inkscape:window-width="674"
     inkscape:window-height="733"
     inkscape:window-x="685"
     inkscape:window-y="5"
     inkscape:window-maximized="1"
     inkscape:current-layer="layer1">
    <inkscape:grid
       id="grid1"
       units="mm"
       originx="0"
       originy="0"
       spacingx="2.5000001"
       spacingy="2.5000001"
       empcolor="#ffffff"
       empopacity="0.30196078"
       color="#ffffff"
       opacity="0.14901961"
       empspacing="4"
       dotted="false"
       gridanglex="30"
       gridanglez="30"
       visible="true" />
  </sodipodi:namedview>
  <defs
     id="defs1" />
  <g
     inkscape:label="Layer 1"
     inkscape:groupmode="layer"
     id="layer1">
    <path
       id="rect3"
       style="vector-effect:non-scaling-stroke;fill:#000000;stroke-width:0.264583;-inkscape-stroke:hairline"
       inkscape:transform-center-x="19.547125"
       inkscape:transform-center-y="-24.889199"
       d="M 12.141184 29.624068 L -31.566777 108.29839 L -22.825286 113.15477 L -5.8278154 82.559328 L 10.882702 91.84295 L 10.8826 131.88138 L 20.882619 137.43694 L 20.882421 96.20303 A 27.5 27.5 0 0 0 51.235335 82.802063 A 27.5 27.5 0 0 0 40.551142 45.407379 L 20.882675 34.480452 L 12.141184 29.624068 z M 16.02629 43.221943 L 35.694757 54.14887 L 35.694506 54.149322 A 17.5 17.5 0 0 1 42.493844 77.945678 A 17.5 17.5 0 0 1 18.697036 84.744765 L -0.97143109 73.817838 L 16.02629 43.221943 z "
       transform="rotate(-29.054607)" />
  </g>
</svg>
