<?xml version="1.0" encoding="UTF-8" standalone="no"?>
<!-- Created with Inkscape (http://www.inkscape.org/) -->

<svg
   width="110mm"
   height="130mm"
   viewBox="0 0 110 130"
   version="1.1"
   id="svg1"
   inkscape:version="1.3.2 (091e20ef0f, 2023-11-25, custom)"
   sodipodi:docname="b.svg"
   xmlns:inkscape="http://www.inkscape.org/namespaces/inkscape"
   xmlns:sodipodi="http://sodipodi.sourceforge.net/DTD/sodipodi-0.dtd"
   xmlns="http://www.w3.org/2000/svg"
   xmlns:svg="http://www.w3.org/2000/svg">
  <sodipodi:namedview
     id="namedview1"
     pagecolor="#505050"
     bordercolor="#eeeeee"
     borderopacity="1"
     inkscape:showpageshadow="0"
     inkscape:pageopacity="0"
     inkscape:pagecheckerboard="0"
     inkscape:deskcolor="#505050"
     inkscape:document-units="mm"
     showgrid="true"
     inkscape:zoom="1.1388457"
     inkscape:cx="169.90888"
     inkscape:cy="337.18351"
     inkscape:window-width="1366"
     inkscape:window-height="768"
     inkscape:window-x="0"
     inkscape:window-y="0"
     inkscape:window-maximized="1"
     inkscape:current-layer="layer1">
    <inkscape:grid
       id="grid1"
       units="mm"
       originx="0"
       originy="0"
       spacingx="2.5000001"
       spacingy="2.5000001"
       empcolor="#ffffff"
       empopacity="0.30196078"
       color="#ffffff"
       opacity="0.14901961"
       empspacing="4"
       dotted="false"
       gridanglex="30"
       gridanglez="30"
       visible="true" />
  </sodipodi:namedview>
  <defs
     id="defs1" />
  <g
     inkscape:label="Layer 1"
     inkscape:groupmode="layer"
     id="layer1">
    <path
       id="path2"
       style="vector-effect:non-scaling-stroke;fill:#000000;stroke-width:0.264583;-inkscape-stroke:hairline"
       d="M 27.50013,19.999813 V 110 h 29.999719 c 13.807136,1e-5 25.000036,-11.192884 25.000025,-25.00002 C 82.499596,75.265811 76.849204,66.416898 68.018587,62.321261 72.495915,57.666085 74.997825,51.458717 75.000073,44.999837 75.000086,31.1927 63.807186,19.9998 50.000049,19.999813 H 37.500037 Z m 9.999907,10.000423 h 12.500012 c 8.28396,2.2e-4 14.999381,6.715641 14.999601,14.999601 6.5e-5,8.284162 -6.715439,14.999898 -14.999601,15.000118 H 37.500037 Z m 0,39.999626 h 19.999812 v 5.16e-4 c 8.28396,2.2e-4 14.999382,6.715642 14.999602,14.999602 6.6e-5,8.284163 -6.715439,14.9999 -14.999602,15.00012 H 37.500037 Z"
       sodipodi:nodetypes="ccsccccccccccccccccccc" />
  </g>
</svg>
