<?xml version="1.0" encoding="UTF-8" standalone="no"?>
<!-- Created with Inkscape (http://www.inkscape.org/) -->

<svg
   width="110mm"
   height="130mm"
   viewBox="0 0 110 130"
   version="1.1"
   id="svg1"
   inkscape:version="1.3.2 (091e20ef0f, 2023-11-25, custom)"
   sodipodi:docname="q.svg"
   xmlns:inkscape="http://www.inkscape.org/namespaces/inkscape"
   xmlns:sodipodi="http://sodipodi.sourceforge.net/DTD/sodipodi-0.dtd"
   xmlns="http://www.w3.org/2000/svg"
   xmlns:svg="http://www.w3.org/2000/svg">
  <sodipodi:namedview
     id="namedview1"
     pagecolor="#505050"
     bordercolor="#eeeeee"
     borderopacity="1"
     inkscape:showpageshadow="0"
     inkscape:pageopacity="0"
     inkscape:pagecheckerboard="0"
     inkscape:deskcolor="#505050"
     inkscape:document-units="mm"
     showgrid="true"
     inkscape:zoom="0.78113845"
     inkscape:cx="303.40332"
     inkscape:cy="266.91811"
     inkscape:window-width="674"
     inkscape:window-height="733"
     inkscape:window-x="685"
     inkscape:window-y="5"
     inkscape:window-maximized="1"
     inkscape:current-layer="layer1">
    <inkscape:grid
       id="grid1"
       units="mm"
       originx="0"
       originy="0"
       spacingx="2.5000001"
       spacingy="2.5000001"
       empcolor="#ffffff"
       empopacity="0.30196078"
       color="#ffffff"
       opacity="0.14901961"
       empspacing="4"
       dotted="false"
       gridanglex="30"
       gridanglez="30"
       visible="true" />
  </sodipodi:namedview>
  <defs
     id="defs1" />
  <g
     inkscape:label="Layer 1"
     inkscape:groupmode="layer"
     id="layer1">
    <path
       id="path21"
       style="vector-effect:non-scaling-stroke;fill:#000000;stroke:none;stroke-width:0.264583;stroke-opacity:1;-inkscape-stroke:hairline"
       d="M 54.999744 19.999813 A 29.999989 29.999989 0 0 0 25.000024 50.000049 L 25.000024 79.999768 A 29.999989 29.999989 0 0 0 54.999744 110 A 29.999989 29.999989 0 0 0 84.99998 79.999768 L 84.99998 50.000049 A 29.999989 29.999989 0 0 0 54.999744 19.999813 z M 54.999744 30.000236 A 20 20 0 0 1 75.000073 50.000049 L 75.000073 79.999768 A 20 20 0 0 1 54.999744 99.999581 A 20 20 0 0 1 34.999931 79.999768 L 34.999931 50.000049 A 20 20 0 0 1 54.999744 30.000236 z " />
    <path
       id="rect1"
       style="vector-effect:non-scaling-stroke;fill:#000000;stroke-width:0.301649;-inkscape-stroke:hairline"
       inkscape:transform-center-x="21.007135"
       inkscape:transform-center-y="-25.293643"
       d="M 6.2919724 85.405919 L 6.2924141 132.05397 L 16.292343 138.05006 L 16.292345 91.402279 L 6.2919724 85.405919 z "
       transform="matrix(0.8576916,-0.51416448,0.51449578,0.85749291,0,0)" />
  </g>
</svg>
