<?xml version="1.0" encoding="UTF-8" standalone="no"?>
<!-- Created with Inkscape (http://www.inkscape.org/) -->

<svg
   width="110mm"
   height="130mm"
   viewBox="0 0 110 130"
   version="1.1"
   id="svg1"
   inkscape:version="1.3.2 (091e20ef0f, 2023-11-25, custom)"
   sodipodi:docname="d.svg"
   xmlns:inkscape="http://www.inkscape.org/namespaces/inkscape"
   xmlns:sodipodi="http://sodipodi.sourceforge.net/DTD/sodipodi-0.dtd"
   xmlns="http://www.w3.org/2000/svg"
   xmlns:svg="http://www.w3.org/2000/svg">
  <sodipodi:namedview
     id="namedview1"
     pagecolor="#505050"
     bordercolor="#eeeeee"
     borderopacity="1"
     inkscape:showpageshadow="0"
     inkscape:pageopacity="0"
     inkscape:pagecheckerboard="0"
     inkscape:deskcolor="#505050"
     inkscape:document-units="mm"
     showgrid="true"
     inkscape:zoom="1.3444217"
     inkscape:cx="157.31671"
     inkscape:cy="164.01104"
     inkscape:window-width="1354"
     inkscape:window-height="733"
     inkscape:window-x="5"
     inkscape:window-y="5"
     inkscape:window-maximized="1"
     inkscape:current-layer="layer1"
     showguides="true">
    <inkscape:grid
       id="grid1"
       units="mm"
       originx="0"
       originy="0"
       spacingx="2.5000001"
       spacingy="2.5000001"
       empcolor="#ffffff"
       empopacity="0.30196078"
       color="#ffffff"
       opacity="0.14901961"
       empspacing="4"
       dotted="false"
       gridanglex="30"
       gridanglez="30"
       visible="true" />
  </sodipodi:namedview>
  <defs
     id="defs1">
    <inkscape:path-effect
       effect="spiro"
       id="path-effect11"
       is_visible="true"
       lpeversion="1" />
    <inkscape:path-effect
       effect="spiro"
       id="path-effect11-1"
       is_visible="true"
       lpeversion="1" />
  </defs>
  <g
     inkscape:label="Layer 1"
     inkscape:groupmode="layer"
     id="layer1">
    <path
       id="path1"
       style="vector-effect:non-scaling-stroke;fill:#000000;stroke:none;stroke-width:0.264583;stroke-miterlimit:40;-inkscape-stroke:hairline;paint-order:stroke fill markers"
       d="M 50.000049,109.99977 V 87.499852 72.499736 L 49.999998,20 h -9.999906 l 5.1e-5,33.849711 C 36.306623,51.356947 31.956101,50.017026 27.500131,49.999821 15.073789,49.999867 5.0002596,60.073394 5.0002116,72.499736 v 15.000116 c 4.64e-5,12.426343 10.0735764,22.499868 22.4999194,22.499918 4.455917,-0.017 8.806435,-1.3568 12.500012,-3.84938 v 3.84938 z M 27.500131,99.999862 c -6.903568,7e-6 -12.500018,-5.596442 -12.500012,-12.50001 V 72.499736 c -8e-6,-6.90357 5.596442,-12.500022 12.500012,-12.500015 6.90357,-7e-6 12.50002,5.596445 12.500012,12.500015 v 15.000116 c 6e-6,6.903568 -5.596444,12.500017 -12.500012,12.50001 z"
       sodipodi:nodetypes="cccccccccccccsscccss" />
  </g>
</svg>
