<?xml version="1.0" encoding="UTF-8" standalone="no"?>
<!-- Created with Inkscape (http://www.inkscape.org/) -->

<svg
   width="110mm"
   height="130mm"
   viewBox="0 0 110 130"
   version="1.1"
   id="svg1"
   inkscape:version="1.3.2 (091e20ef0f, 2023-11-25, custom)"
   sodipodi:docname="e.svg"
   xmlns:inkscape="http://www.inkscape.org/namespaces/inkscape"
   xmlns:sodipodi="http://sodipodi.sourceforge.net/DTD/sodipodi-0.dtd"
   xmlns="http://www.w3.org/2000/svg"
   xmlns:svg="http://www.w3.org/2000/svg">
  <sodipodi:namedview
     id="namedview1"
     pagecolor="#505050"
     bordercolor="#eeeeee"
     borderopacity="1"
     inkscape:showpageshadow="0"
     inkscape:pageopacity="0"
     inkscape:pagecheckerboard="0"
     inkscape:deskcolor="#505050"
     inkscape:document-units="mm"
     showgrid="true"
     inkscape:zoom="0.54605467"
     inkscape:cx="306.74584"
     inkscape:cy="478.88978"
     inkscape:window-width="1354"
     inkscape:window-height="733"
     inkscape:window-x="5"
     inkscape:window-y="5"
     inkscape:window-maximized="1"
     inkscape:current-layer="layer1"
     showguides="true">
    <inkscape:grid
       id="grid1"
       units="mm"
       originx="0"
       originy="0"
       spacingx="2.5000001"
       spacingy="2.5000001"
       empcolor="#ffffff"
       empopacity="0.30196078"
       color="#ffffff"
       opacity="0.14901961"
       empspacing="4"
       dotted="false"
       gridanglex="30"
       gridanglez="30"
       visible="true" />
  </sodipodi:namedview>
  <defs
     id="defs1">
    <inkscape:path-effect
       effect="spiro"
       id="path-effect11"
       is_visible="true"
       lpeversion="1" />
    <inkscape:path-effect
       effect="spiro"
       id="path-effect11-1"
       is_visible="true"
       lpeversion="1" />
  </defs>
  <g
     inkscape:label="Layer 1"
     inkscape:groupmode="layer"
     id="layer1">
    <path
       id="rect2"
       style="vector-effect:non-scaling-stroke;fill:#000000;stroke-width:0.264583;stroke-miterlimit:40;-inkscape-stroke:hairline;paint-order:stroke fill markers"
       d="M 27.50013 50.000049 A 22.500002 22.500002 0 0 0 5.0002116 72.499967 L 5.0002116 82.499874 L 5.0002116 84.99998 L 4.9996948 86.250033 C 4.9991618 99.36676 15.632938 109.99999 28.749666 110 C 37.740765 109.9785 45.948925 104.88161 49.95509 96.832332 L 41.010417 92.368522 C 38.695939 97.02665 33.951067 99.980043 28.749666 100.0001 C 21.155707 100.00013 14.999564 93.843992 14.999601 86.250033 L 15.000118 84.99998 L 50.000049 84.99998 L 50.000049 75.000073 L 50.000049 72.499967 A 22.500002 22.500002 0 0 0 27.50013 50.000049 z M 27.50013 59.999955 A 12.499999 12.499999 0 0 1 40.000142 72.499967 L 40.000142 75.000073 L 15.000118 75.000073 L 15.000118 72.499967 A 12.499999 12.499999 0 0 1 27.50013 59.999955 z " />
  </g>
</svg>
