<?xml version="1.0" encoding="UTF-8" standalone="no"?>
<!-- Created with Inkscape (http://www.inkscape.org/) -->

<svg
   width="110mm"
   height="130mm"
   viewBox="0 0 110 130"
   version="1.1"
   id="svg1"
   inkscape:version="1.3.2 (091e20ef0f, 2023-11-25, custom)"
   sodipodi:docname="g.svg"
   xmlns:inkscape="http://www.inkscape.org/namespaces/inkscape"
   xmlns:sodipodi="http://sodipodi.sourceforge.net/DTD/sodipodi-0.dtd"
   xmlns="http://www.w3.org/2000/svg"
   xmlns:svg="http://www.w3.org/2000/svg">
  <sodipodi:namedview
     id="namedview1"
     pagecolor="#505050"
     bordercolor="#eeeeee"
     borderopacity="1"
     inkscape:showpageshadow="0"
     inkscape:pageopacity="0"
     inkscape:pagecheckerboard="0"
     inkscape:deskcolor="#505050"
     inkscape:document-units="mm"
     showgrid="true"
     inkscape:zoom="1.5522335"
     inkscape:cx="171.36597"
     inkscape:cy="314.70781"
     inkscape:window-width="1354"
     inkscape:window-height="733"
     inkscape:window-x="5"
     inkscape:window-y="5"
     inkscape:window-maximized="1"
     inkscape:current-layer="layer1"
     showguides="true">
    <inkscape:grid
       id="grid1"
       units="mm"
       originx="0"
       originy="0"
       spacingx="2.5000001"
       spacingy="2.5000001"
       empcolor="#ffffff"
       empopacity="0.30196078"
       color="#ffffff"
       opacity="0.14901961"
       empspacing="4"
       dotted="false"
       gridanglex="30"
       gridanglez="30"
       visible="true" />
  </sodipodi:namedview>
  <defs
     id="defs1">
    <inkscape:path-effect
       effect="spiro"
       id="path-effect11"
       is_visible="true"
       lpeversion="1" />
    <inkscape:path-effect
       effect="spiro"
       id="path-effect11-1"
       is_visible="true"
       lpeversion="1" />
  </defs>
  <g
     inkscape:label="Layer 1"
     inkscape:groupmode="layer"
     id="layer1">
    <path
       id="path1"
       style="vector-effect:non-scaling-stroke;fill:#000000;stroke:none;stroke-width:0.264583;stroke-miterlimit:40;-inkscape-stroke:hairline;paint-order:stroke fill markers"
       d="M 27.50013 50.000049 C 15.0738 50.000095 5.000258 60.073637 5.0002116 72.499967 L 5.0002116 87.500085 C 5.0002596 99.926415 15.073801 109.99995 27.50013 110 C 31.956096 109.9828 36.306626 108.64285 40.000142 106.15011 L 40.000142 106.24985 C 40.000182 113.84381 33.844037 119.99994 26.250077 119.99991 C 21.048677 119.97986 16.303801 117.02646 13.989327 112.36833 L 5.0446533 116.83215 C 9.0508193 124.88143 17.258978 129.97835 26.250077 129.99982 C 39.366805 129.99981 50.000579 119.36657 50.000049 106.24985 L 50.000049 87.500085 L 50.000049 72.499967 L 50.000049 50.000049 L 40.000142 50.000049 L 40.000142 53.849426 C 36.306568 51.356846 31.956043 50.017099 27.50013 50.000049 z M 27.50013 59.999955 C 34.403692 59.999948 40.000149 65.596405 40.000142 72.499967 L 40.000142 87.500085 C 40.00015 94.403649 34.403693 100.00011 27.50013 100.0001 C 20.596567 100.00011 15.00011 94.403649 15.000118 87.500085 L 15.000118 72.499967 C 15.000111 65.596405 20.596568 59.999948 27.50013 59.999955 z " />
  </g>
</svg>
