<?xml version="1.0" encoding="UTF-8" standalone="no"?>
<!-- Created with Inkscape (http://www.inkscape.org/) -->

<svg
   width="110mm"
   height="130mm"
   viewBox="0 0 110 130"
   version="1.1"
   id="svg1"
   inkscape:version="1.3.2 (091e20ef0f, 2023-11-25, custom)"
   sodipodi:docname="j.svg"
   xmlns:inkscape="http://www.inkscape.org/namespaces/inkscape"
   xmlns:sodipodi="http://sodipodi.sourceforge.net/DTD/sodipodi-0.dtd"
   xmlns="http://www.w3.org/2000/svg"
   xmlns:svg="http://www.w3.org/2000/svg">
  <sodipodi:namedview
     id="namedview1"
     pagecolor="#505050"
     bordercolor="#eeeeee"
     borderopacity="1"
     inkscape:showpageshadow="0"
     inkscape:pageopacity="0"
     inkscape:pagecheckerboard="0"
     inkscape:deskcolor="#505050"
     inkscape:document-units="mm"
     showgrid="true"
     inkscape:zoom="0.711503"
     inkscape:cx="355.58529"
     inkscape:cy="393.53313"
     inkscape:window-width="1366"
     inkscape:window-height="768"
     inkscape:window-x="0"
     inkscape:window-y="0"
     inkscape:window-maximized="1"
     inkscape:current-layer="layer1"
     showguides="true">
    <inkscape:grid
       id="grid1"
       units="mm"
       originx="0"
       originy="0"
       spacingx="2.5000001"
       spacingy="2.5000001"
       empcolor="#ffffff"
       empopacity="0.30196078"
       color="#ffffff"
       opacity="0.14901961"
       empspacing="4"
       dotted="false"
       gridanglex="30"
       gridanglez="30"
       visible="true" />
  </sodipodi:namedview>
  <defs
     id="defs1">
    <inkscape:path-effect
       effect="spiro"
       id="path-effect11"
       is_visible="true"
       lpeversion="1" />
    <inkscape:path-effect
       effect="spiro"
       id="path-effect11-1"
       is_visible="true"
       lpeversion="1" />
  </defs>
  <g
     inkscape:label="Layer 1"
     inkscape:groupmode="layer"
     id="layer1">
    <path
       id="rect1"
       style="vector-effect:non-scaling-stroke;stroke-width:0.0777801;stroke-miterlimit:100;-inkscape-stroke:hairline"
       d="M 50.000049 40.000142 L 50.000049 110 A 9.9999981 9.9999981 0 0 1 40.000142 119.99991 A 9.9999981 9.9999981 0 0 1 32.929256 117.07089 L 25.89351 124.10612 A 20 20 0 0 0 40.000142 129.99982 A 20 20 0 0 0 59.999955 110 L 59.999955 40.000142 L 50.000049 40.000142 z " />
    <path
       id="path1"
       style="vector-effect:non-scaling-stroke;stroke-width:0.374177;stroke-miterlimit:100;-inkscape-stroke:hairline"
       transform="rotate(45)"
       d="m 65.104069,-19.748737 a 7.0710645,7.0710654 0 0 1 -7.071064,7.071065 7.0710645,7.0710654 0 0 1 -7.071065,-7.071065 7.0710645,7.0710654 0 0 1 7.071065,-7.071066 7.0710645,7.0710654 0 0 1 7.071064,7.071066 z" />
  </g>
</svg>
