<?xml version="1.0" encoding="UTF-8" standalone="no"?>
<!-- Created with Inkscape (http://www.inkscape.org/) -->

<svg
   width="110mm"
   height="130mm"
   viewBox="0 0 110 130"
   version="1.1"
   id="svg1"
   inkscape:version="1.3.2 (091e20ef0f, 2023-11-25, custom)"
   sodipodi:docname="m.svg"
   xmlns:inkscape="http://www.inkscape.org/namespaces/inkscape"
   xmlns:sodipodi="http://sodipodi.sourceforge.net/DTD/sodipodi-0.dtd"
   xmlns="http://www.w3.org/2000/svg"
   xmlns:svg="http://www.w3.org/2000/svg">
  <sodipodi:namedview
     id="namedview1"
     pagecolor="#505050"
     bordercolor="#eeeeee"
     borderopacity="1"
     inkscape:showpageshadow="0"
     inkscape:pageopacity="0"
     inkscape:pagecheckerboard="0"
     inkscape:deskcolor="#505050"
     inkscape:document-units="mm"
     showgrid="true"
     inkscape:zoom="0.82379245"
     inkscape:cx="106.82302"
     inkscape:cy="370.84584"
     inkscape:window-width="1354"
     inkscape:window-height="733"
     inkscape:window-x="5"
     inkscape:window-y="5"
     inkscape:window-maximized="1"
     inkscape:current-layer="layer1"
     showguides="true">
    <inkscape:grid
       id="grid1"
       units="mm"
       originx="0"
       originy="0"
       spacingx="2.5000001"
       spacingy="2.5000001"
       empcolor="#ffffff"
       empopacity="0.30196078"
       color="#ffffff"
       opacity="0.14901961"
       empspacing="4"
       dotted="false"
       gridanglex="30"
       gridanglez="30"
       visible="true" />
  </sodipodi:namedview>
  <defs
     id="defs1">
    <inkscape:path-effect
       effect="spiro"
       id="path-effect11"
       is_visible="true"
       lpeversion="1" />
    <inkscape:path-effect
       effect="spiro"
       id="path-effect11-1"
       is_visible="true"
       lpeversion="1" />
  </defs>
  <g
     inkscape:label="Layer 1"
     inkscape:groupmode="layer"
     id="layer1">
    <path
       id="rect22"
       style="vector-effect:non-scaling-stroke;fill:#000000;stroke:none;stroke-width:0.264584;stroke-miterlimit:40;-inkscape-stroke:hairline;paint-order:stroke fill markers"
       d="M 5.0002116 50.000049 L 5.0002116 63.748047 L 5.0002116 110 L 14.991333 110 L 14.991333 63.748047 L 14.995467 63.748047 A 3.7521966 3.7521966 0 0 1 18.747693 59.995821 A 3.7521966 3.7521966 0 0 1 22.499919 63.748047 L 22.504569 63.748047 L 22.504569 110 L 32.495691 110 L 32.495691 63.74753 A 13.747804 13.747804 0 0 0 32.495691 63.747013 A 13.747804 13.747804 0 0 0 32.495691 63.746497 A 13.747804 13.747804 0 0 0 32.495691 63.74598 A 13.747804 13.747804 0 0 0 32.495691 63.745463 A 13.747804 13.747804 0 0 0 32.495691 63.744946 A 13.747804 13.747804 0 0 0 32.495691 63.74443 A 3.7521966 3.7521966 0 0 1 36.2474 59.995821 A 3.7521966 3.7521966 0 0 1 39.999626 63.748047 L 40.004277 63.748047 L 40.004277 110 L 49.995398 110 L 49.995398 63.748047 A 13.747804 13.747804 0 0 0 36.2474 50.000049 A 13.747804 13.747804 0 0 0 27.5146 53.160063 A 13.747804 13.747804 0 0 0 18.747693 50.000049 A 13.747804 13.747804 0 0 0 14.991333 50.555054 L 14.991333 50.000049 L 5.0002116 50.000049 z " />
  </g>
</svg>
