<?xml version="1.0" encoding="UTF-8" standalone="no"?>
<!-- Created with Inkscape (http://www.inkscape.org/) -->

<svg
   width="110mm"
   height="130mm"
   viewBox="0 0 110 130"
   version="1.1"
   id="svg1"
   inkscape:version="1.3.2 (091e20ef0f, 2023-11-25, custom)"
   sodipodi:docname="s.svg"
   xmlns:inkscape="http://www.inkscape.org/namespaces/inkscape"
   xmlns:sodipodi="http://sodipodi.sourceforge.net/DTD/sodipodi-0.dtd"
   xmlns="http://www.w3.org/2000/svg"
   xmlns:svg="http://www.w3.org/2000/svg">
  <sodipodi:namedview
     id="namedview1"
     pagecolor="#505050"
     bordercolor="#eeeeee"
     borderopacity="1"
     inkscape:showpageshadow="0"
     inkscape:pageopacity="0"
     inkscape:pagecheckerboard="0"
     inkscape:deskcolor="#505050"
     inkscape:document-units="mm"
     showgrid="true"
     inkscape:zoom="2.7349694"
     inkscape:cx="210.42283"
     inkscape:cy="265.99932"
     inkscape:window-width="1354"
     inkscape:window-height="733"
     inkscape:window-x="5"
     inkscape:window-y="5"
     inkscape:window-maximized="1"
     inkscape:current-layer="layer1"
     showguides="true">
    <inkscape:grid
       id="grid1"
       units="mm"
       originx="0"
       originy="0"
       spacingx="2.5000001"
       spacingy="2.5000001"
       empcolor="#ffffff"
       empopacity="0.30196078"
       color="#ffffff"
       opacity="0.14901961"
       empspacing="4"
       dotted="false"
       gridanglex="30"
       gridanglez="30"
       visible="true" />
  </sodipodi:namedview>
  <defs
     id="defs1">
    <inkscape:path-effect
       effect="spiro"
       id="path-effect11"
       is_visible="true"
       lpeversion="1" />
    <inkscape:path-effect
       effect="spiro"
       id="path-effect11-1"
       is_visible="true"
       lpeversion="1" />
  </defs>
  <g
     inkscape:label="Layer 1"
     inkscape:groupmode="layer"
     id="layer1">
    <path
       id="path8"
       style="vector-effect:non-scaling-stroke;fill:#000000;fill-opacity:1;stroke:none;stroke-width:0.211666;stroke-miterlimit:100;stroke-opacity:1;-inkscape-stroke:hairline"
       d="M 54.999744 40.000142 A 20.000002 20.000002 0 0 0 34.999931 59.999955 A 20.000002 20.000002 0 0 0 54.999744 79.999768 A 9.999999 9.999999 0 0 1 64.99965 89.999674 A 9.999999 9.999999 0 0 1 54.999744 99.999581 A 9.999999 9.999999 0 0 1 44.99932 89.999674 L 34.999414 89.999674 A 20.000002 20.000002 0 0 0 54.999744 109.99949 A 20.000002 20.000002 0 0 0 74.999556 89.999674 A 20.000002 20.000002 0 0 0 54.999744 69.999862 A 9.999999 9.999999 0 0 1 44.999837 59.999955 A 9.999999 9.999999 0 0 1 54.999744 50.000049 A 9.999999 9.999999 0 0 1 65.000167 59.999955 L 75.000073 59.999955 A 20.000002 20.000002 0 0 0 54.999744 40.000142 z " />
  </g>
</svg>
