<?xml version="1.0" encoding="UTF-8" standalone="no"?>
<!-- Created with Inkscape (http://www.inkscape.org/) -->

<svg
   width="1680"
   height="2040"
   viewBox="0 0 444.5 539.75"
   version="1.1"
   id="svg1"
   inkscape:version="1.3.2 (091e20ef0f, 2023-11-25, custom)"
   sodipodi:docname="0.3.svg"
   inkscape:export-filename="0.3.png"
   inkscape:export-xdpi="96"
   inkscape:export-ydpi="96"
   xmlns:inkscape="http://www.inkscape.org/namespaces/inkscape"
   xmlns:sodipodi="http://sodipodi.sourceforge.net/DTD/sodipodi-0.dtd"
   xmlns:xlink="http://www.w3.org/1999/xlink"
   xmlns="http://www.w3.org/2000/svg"
   xmlns:svg="http://www.w3.org/2000/svg">
  <sodipodi:namedview
     id="namedview1"
     pagecolor="#040404"
     bordercolor="#eeeeee"
     borderopacity="1"
     inkscape:showpageshadow="0"
     inkscape:pageopacity="0"
     inkscape:pagecheckerboard="0"
     inkscape:deskcolor="#505050"
     inkscape:document-units="mm"
     showgrid="true"
     inkscape:zoom="0.32390068"
     inkscape:cx="577.33748"
     inkscape:cy="1869.4002"
     inkscape:window-width="1354"
     inkscape:window-height="733"
     inkscape:window-x="5"
     inkscape:window-y="5"
     inkscape:window-maximized="1"
     inkscape:current-layer="layer1"
     inkscape:export-bgcolor="#040404ff">
    <inkscape:grid
       id="grid1"
       units="px"
       originx="0"
       originy="0"
       spacingx="7.9375"
       spacingy="7.9375"
       empcolor="#ffffff"
       empopacity="0.30196078"
       color="#ffffff"
       opacity="0.14901961"
       empspacing="4"
       dotted="false"
       gridanglex="30"
       gridanglez="30"
       visible="true" />
  </sodipodi:namedview>
  <defs
     id="defs1">
    <linearGradient
       id="linearGradient21"
       inkscape:collect="always">
      <stop
         style="stop-color:#00966c;stop-opacity:0.5;"
         offset="0"
         id="stop21" />
      <stop
         style="stop-color:#00966c;stop-opacity:0;"
         offset="1"
         id="stop22" />
    </linearGradient>
    <inkscape:path-effect
       effect="spiro"
       id="path-effect17"
       is_visible="true"
       lpeversion="1" />
    <linearGradient
       inkscape:collect="always"
       xlink:href="#linearGradient21"
       id="linearGradient22"
       x1="222.25"
       y1="539.75"
       x2="222.25"
       y2="349.25"
       gradientUnits="userSpaceOnUse"
       gradientTransform="matrix(1,0,0,0.95833333,0,-937.94791)" />
  </defs>
  <g
     inkscape:label="Layer 1"
     inkscape:groupmode="layer"
     id="layer1">
    <rect
       style="fill:url(#linearGradient22);stroke:none;stroke-width:1.98438;stroke-miterlimit:40;stroke-dasharray:1, 1;stroke-dashoffset:0;paint-order:stroke fill markers"
       id="rect21"
       width="444.5"
       height="182.5625"
       x="-1.2031856e-13"
       y="-603.25"
       transform="scale(1,-1)" />
    <text
       xml:space="preserve"
       style="font-style:normal;font-variant:normal;font-weight:normal;font-stretch:normal;font-size:37.5227px;line-height:31.75px;font-family:'linja laso';-inkscape-font-specification:'linja laso';font-variant-ligatures:discretionary-ligatures;letter-spacing:0px;vector-effect:non-scaling-stroke;fill:#f0f0f0;fill-opacity:1;stroke-width:0.264583;stroke-miterlimit:40;-inkscape-stroke:hairline;paint-order:stroke fill markers"
       x="31.75"
       y="60.61364"
       id="text1"><tspan
         sodipodi:role="line"
         id="tspan1"
         style="font-style:normal;font-variant:normal;font-weight:normal;font-stretch:normal;font-family:'linja laso';-inkscape-font-specification:'linja laso';fill:#f0f0f0;fill-opacity:1;stroke-width:0.264583"
         x="31.75"
         y="60.61364">a akesi ala alasa aleanpaanteanuaweneenesun</tspan><tspan
         sodipodi:role="line"
         style="font-style:normal;font-variant:normal;font-weight:normal;font-stretch:normal;font-family:'linja laso';-inkscape-font-specification:'linja laso';fill:#f0f0f0;fill-opacity:1;stroke-width:0.264583"
         x="31.75"
         y="92.36364"
         id="tspan2">ijoikeiloinsajakijanjelojokalakalamakamakasi</tspan><tspan
         sodipodi:role="line"
         style="font-style:normal;font-variant:normal;font-weight:normal;font-stretch:normal;font-family:'linja laso';-inkscape-font-specification:'linja laso';fill:#f0f0f0;fill-opacity:1;stroke-width:0.264583"
         x="31.75"
         y="124.11364"
         id="tspan3">kamakepekenkilikiwenkokonkulekulupukutelalapelaso</tspan><tspan
         sodipodi:role="line"
         style="font-style:normal;font-variant:normal;font-weight:normal;font-stretch:normal;font-family:'linja laso';-inkscape-font-specification:'linja laso';fill:#f0f0f0;fill-opacity:1;stroke-width:0.264583"
         x="31.75"
         y="155.86365"
         id="tspan4">lawalenleteli lililinjalipulojelonlukalukinlupa</tspan><tspan
         sodipodi:role="line"
         style="font-style:normal;font-variant:normal;font-weight:normal;font-stretch:normal;font-family:'linja laso';-inkscape-font-specification:'linja laso';fill:#f0f0f0;fill-opacity:1;stroke-width:0.264583"
         x="31.75"
         y="187.61365"
         id="tspan5">ma mamamanimelimimijemokumolimonsimu munmusi</tspan><tspan
         sodipodi:role="line"
         style="font-style:normal;font-variant:normal;font-weight:normal;font-stretch:normal;font-family:'linja laso';-inkscape-font-specification:'linja laso';fill:#f0f0f0;fill-opacity:1;stroke-width:0.264583"
         x="31.75"
         y="219.36365"
         id="tspan6">mutenanpanasanasinnenani niminokaoolinonaopen</tspan><tspan
         sodipodi:role="line"
         style="font-style:normal;font-variant:normal;font-weight:normal;font-stretch:normal;font-family:'linja laso';-inkscape-font-specification:'linja laso';fill:#f0f0f0;fill-opacity:1;stroke-width:0.264583"
         x="31.75"
         y="251.11365"
         id="tspan7">pakalapalipalisapanpanapi pilinpimejapinipipipokapoki</tspan><tspan
         sodipodi:role="line"
         style="font-style:normal;font-variant:normal;font-weight:normal;font-stretch:normal;font-family:'linja laso';-inkscape-font-specification:'linja laso';fill:#f0f0f0;fill-opacity:1;stroke-width:0.264583"
         x="31.75"
         y="282.86365"
         id="tspan8">ponapusamaseliselosemesewisijelosikesinsinasinpin</tspan><tspan
         sodipodi:role="line"
         style="font-style:normal;font-variant:normal;font-weight:normal;font-stretch:normal;font-family:'linja laso';-inkscape-font-specification:'linja laso';fill:#f0f0f0;fill-opacity:1;stroke-width:0.264583"
         x="31.75"
         y="314.61365"
         id="tspan9">sitelensonasowelisulisunosupasuwitantasotawatelotenpo</tspan><tspan
         sodipodi:role="line"
         style="font-style:normal;font-variant:normal;font-weight:normal;font-stretch:normal;font-family:'linja laso';-inkscape-font-specification:'linja laso';fill:#f0f0f0;fill-opacity:1;stroke-width:0.264583"
         x="31.75"
         y="346.36365"
         id="tspan10">tokitomotuunpautautalawalowanwasowawawekawile</tspan><tspan
         sodipodi:role="line"
         style="font-style:normal;font-variant:normal;font-weight:normal;font-stretch:normal;font-family:'linja laso';-inkscape-font-specification:'linja laso';fill:#f0f0f0;fill-opacity:1;stroke-width:0.264583"
         x="31.75"
         y="378.11365"
         id="tspan11">namakokinokokipisilekomonsutatonsijasimakijetesantakalusokomesoepiku</tspan><tspan
         sodipodi:role="line"
         style="font-style:normal;font-variant:normal;font-weight:normal;font-stretch:normal;font-family:'linja laso';-inkscape-font-specification:'linja laso';fill:#f0f0f0;fill-opacity:1;stroke-width:0.264583"
         x="31.75"
         y="409.86365"
         id="tspan12">kokosilalanpannmisikekekupakeapejamajunapowete  to</tspan></text>
    <path
       id="rect13"
       style="vector-effect:non-scaling-stroke;fill:#00966c;fill-opacity:1;stroke-width:0.264584;stroke-miterlimit:40;-inkscape-stroke:hairline;paint-order:stroke fill markers"
       d="M 333.375,468.3125 V 432.59375 H 412.75 V 515.9375 H 301.625 v -47.625 z"
       sodipodi:nodetypes="ccccccc" />
    <text
       xml:space="preserve"
       style="font-size:37.5227px;line-height:74.0638px;font-family:'linja laso';-inkscape-font-specification:'linja laso';font-variant-ligatures:discretionary-ligatures;letter-spacing:0px;vector-effect:non-scaling-stroke;fill:#f0f0f0;fill-opacity:1;stroke-width:0.264584;stroke-miterlimit:40;-inkscape-stroke:hairline;paint-order:stroke fill markers"
       x="31.749998"
       y="465.42612"
       id="text13"><tspan
         sodipodi:role="line"
         id="tspan13"
         style="fill:#f0f0f0;fill-opacity:1;stroke-width:0.264584"
         x="31.749998"
         y="465.42612">tenpo-piniliwawa-suli  soko1tonsi2lanpan1</tspan></text>
    <path
       d="m 49.06817,496.45455 h 8.54363 c -0.3175,2.2225 -1.269999,4.1275 -2.857498,5.715 -1.587499,1.5875 -3.492497,2.54 -5.686132,2.82863 z m -11.429992,0 h 8.54363 v 8.54363 c -2.193635,-0.3175 -4.098633,-1.27 -5.686132,-2.85749 -1.587499,-1.5875 -2.539998,-3.4925 -2.857498,-5.68614 z M 49.06817,485.02456 c 2.193635,0.34636 4.06977,1.29886 5.657269,2.88636 1.587499,1.5875 2.539998,3.46364 2.886361,5.65727 h -8.54363 z m -2.886362,0 v 8.54363 h -8.54363 c 0.3175,-2.19363 1.269999,-4.06977 2.857498,-5.65727 1.587499,-1.5875 3.492497,-2.54 5.686132,-2.88636 z m 1.443181,-3.00181 c -1.760681,0 -3.43477,0.34636 -5.051133,1.03909 -1.616362,0.69272 -3.001816,1.61636 -4.156361,2.7709 -1.154544,1.15455 -2.07818,2.54 -2.770907,4.15636 -0.692727,1.61637 -1.010226,3.29046 -1.010226,5.02227 0,1.76068 0.317499,3.43477 1.010226,5.05114 0.692727,1.61636 1.616363,3.00181 2.770907,4.15636 1.154545,1.15454 2.539999,2.07818 4.156361,2.7709 1.616363,0.69273 3.290452,1.01023 5.051133,1.01023 1.731817,0 3.405907,-0.3175 5.022269,-1.01023 1.616363,-0.69272 3.001816,-1.61636 4.156361,-2.7709 1.154545,-1.15455 2.07818,-2.54 2.770907,-4.15636 0.692727,-1.61637 1.03909,-3.29046 1.03909,-5.05114 0,-1.73181 -0.346363,-3.4059 -1.03909,-5.02227 -0.692727,-1.61636 -1.616362,-3.00181 -2.770907,-4.15636 -1.154545,-1.15454 -2.539998,-2.07818 -4.156361,-2.7709 -1.616362,-0.69273 -3.290452,-1.03909 -5.022269,-1.03909 z m 36.050635,-5.77273 c -1.587499,0 -2.944089,0.57727 -4.06977,1.70296 -1.125681,1.12568 -1.67409,2.48227 -1.67409,4.06977 V 508 c 0,1.61636 0.548409,2.97295 1.67409,4.09863 1.125681,1.12568 2.482271,1.67409 4.06977,1.67409 h 14.460672 v -2.85749 l -14.460672,-0.0289 c -0.779318,0 -1.472044,-0.25977 -2.020453,-0.83704 C 81.077898,509.50091 80.818126,508.80818 80.818126,508 v -25.97725 c 0,-0.77932 0.259772,-1.47205 0.837045,-2.02046 0.548409,-0.57727 1.241135,-0.86591 2.020453,-0.86591 l 14.460672,0.0289 v -2.88636 z m 14.46065,34.63634 -2.886362,1.44318 2.886362,1.44318 h 31.749976 v -2.85749 z m 0,-34.63634 -2.886362,1.44318 2.886362,1.44318 31.749976,0.0289 v -2.88636 z m 0,20.20453 v 2.88637 h 9.380676 v -2.88637 z m 16.596576,0 v 2.88637 h 9.38068 v -2.88637 z m -5.05113,-10.10226 v 7.93749 h 2.88636 v -7.93749 z m -2e-5,27.42043 v 4.32955 h 2.88636 v -4.32955 l -1.44318,-2.88636 z m -6.49431,0 v 4.32955 h 2.88636 v -4.32955 l -1.44318,-2.88636 z m 12.98862,0 v 4.32955 h 2.88637 v -4.32955 l -1.44319,-2.88636 z m 13.71022,-2.88636 -2.88636,1.44318 2.88636,1.44318 h 31.74998 v -2.85749 z m 0,-34.63634 -2.88636,1.44318 2.88636,1.44318 31.74998,0.0289 v -2.88636 z m 7.21591,5.77273 h -3.03068 l 2.16477,6.49431 h 3.03068 z m 11.54544,0 -2.16477,6.49431 h 3.03068 l 2.16477,-6.49431 z m -7.2159,0 v 6.49431 h 2.88636 v -6.49431 z M 131.32941,500.49546 135.65896,508 h 2.88636 v -10.10227 c 0,-1.1834 0.40409,-2.19363 1.27,-3.05954 0.83704,-0.83704 1.84727,-1.27 3.05954,-1.27 1.18341,0 2.19363,0.43296 3.05954,1.27 0.83705,0.86591 1.27,1.87614 1.27,3.05954 V 508 h 2.88636 v -10.10227 c 0,-1.96272 -0.72159,-3.66568 -2.1359,-5.07999 -1.41432,-1.41432 -3.11727,-2.13591 -5.08,-2.13591 -1.99159,0 -3.69454,0.72159 -5.10886,2.13591 -1.41432,1.41431 -2.10704,3.11727 -2.10704,5.07999 v 4.32955 l -1.81841,-3.175 z m 13.7102,13.27726 v 4.32955 h 2.88636 v -4.32955 l -1.44318,-2.88636 z m -7.9375,0 v 4.32955 h 2.88636 v -4.32955 l -1.44318,-2.88636 z m 24.53408,-2.88636 -2.88637,1.44318 2.88637,1.44318 h 31.74997 v -2.85749 z m 0,-34.63634 -2.88637,1.44318 2.88637,1.44318 31.74997,0.0289 v -2.88636 z m 10.10226,21.30135 c 0,0.80818 0.25977,1.47205 0.83705,2.02045 0.57727,0.57728 1.24113,0.83705 2.04931,0.83705 0.77932,0 1.44318,-0.25977 2.02046,-0.83705 0.57727,-0.5484 0.86591,-1.21227 0.86591,-2.02045 h -1.44319 c 0,0.40409 -0.14431,0.72159 -0.43295,1.01023 -0.28864,0.28863 -0.60614,0.40409 -1.01023,0.40409 -0.40409,0 -0.75045,-0.11546 -1.03909,-0.40409 -0.28863,-0.28864 -0.40409,-0.60614 -0.40409,-1.01023 z m 2.88636,-3.98318 c 1.09682,0 2.02046,0.40409 2.79977,1.18341 0.75046,0.77932 1.15455,1.70295 1.15455,2.79977 0,1.09682 -0.40409,2.02045 -1.15455,2.79977 -0.77931,0.77932 -1.70295,1.15455 -2.79977,1.15455 -1.09681,0 -2.04931,-0.37523 -2.82863,-1.15455 -0.77932,-0.77932 -1.15455,-1.70295 -1.15455,-2.79977 0,-1.09682 0.37523,-2.02045 1.15455,-2.79977 0.77932,-0.77932 1.73182,-1.18341 2.82863,-1.18341 z m 0,-1.44318 c -1.5009,0 -2.79977,0.54841 -3.83886,1.5875 -1.06795,1.06795 -1.5875,2.33795 -1.5875,3.83886 0,1.50091 0.51955,2.77091 1.5875,3.81 1.03909,1.06795 2.33796,1.5875 3.83886,1.5875 1.50091,0 2.77091,-0.51955 3.81,-1.5875 1.03909,-1.03909 1.5875,-2.30909 1.5875,-3.81 0,-1.50091 -0.54841,-2.77091 -1.5875,-3.83886 -1.03909,-1.03909 -2.30909,-1.5875 -3.81,-1.5875 z m 3.60796,-5.05113 -1.44319,3.60795 h 1.55864 l 1.44318,-3.60795 z m -4.32955,0 v 3.60795 h 1.44318 v -3.60795 z m -4.44499,0 1.44318,3.60795 h 1.55863 l -1.44318,-3.60795 z m -2.04932,-2.16477 h 14.43181 v 20.20453 h -14.43181 z m -2.88636,-2.88636 V 508 h 20.20453 v -25.97725 z m 12.26702,31.74997 v 4.32955 h 2.88636 v -4.32955 l -1.44318,-2.88636 z m -7.9375,0 v 4.32955 h 2.88637 v -4.32955 l -1.44319,-2.88636 z m 24.53408,-2.88636 -2.88636,1.44318 2.88636,1.44318 h 31.74998 v -2.85749 z m 0,-34.63634 -2.88636,1.44318 2.88636,1.44318 31.74998,0.0289 v -2.88636 z m 16.48112,20.20453 -2.04931,2.04932 9.49613,9.49613 2.04931,-2.04932 z m -14.43181,-14.4318 -2.04931,2.04931 9.49613,9.49613 2.04931,-2.04931 z m 7.44682,14.4318 -9.49613,9.49613 2.04931,2.04932 9.49613,-9.49613 z m 14.43181,-14.4318 -9.49613,9.49613 2.04931,2.04931 9.49613,-9.49613 z m -8.77457,31.74997 v 4.32955 h 2.88636 v -4.32955 l -1.44318,-2.88636 z m -7.93749,0 v 4.32955 h 2.88636 v -4.32955 l -1.44318,-2.88636 z m 33.19316,-37.49383 -8.65909,-0.0289 -2.91522,1.47205 2.91522,1.41431 h 8.65909 c 0.77931,0 1.47204,0.28864 2.02045,0.86591 0.57727,0.54841 0.83705,1.24114 0.83705,2.02046 v 26.00611 c 0,0.77932 -0.25978,1.47205 -0.83705,2.02046 -0.54841,0.57727 -1.24114,0.83704 -2.02045,0.83704 h -8.65909 l -2.91522,1.44318 2.91522,1.44318 h 8.65909 c 1.5875,0 2.94409,-0.54841 4.06977,-1.67409 1.12568,-1.12568 1.67409,-2.48227 1.67409,-4.06977 v -26.00611 c 0,-1.5875 -0.54841,-2.94409 -1.67409,-4.06977 -1.12568,-1.12569 -2.48227,-1.67409 -4.06977,-1.67409 z"
       id="text13-5"
       style="font-size:37.5227px;line-height:74.0638px;font-family:'linja laso';-inkscape-font-specification:'linja laso';font-variant-ligatures:discretionary-ligatures;letter-spacing:0px;fill:#f0f0f0;stroke-width:0.264584;stroke-miterlimit:40;paint-order:stroke fill markers"
       aria-label="ma[sin,,,pana,,pu,,weka,,]" />
    <text
       xml:space="preserve"
       style="font-size:37.5227px;line-height:74.0639px;font-family:'linja laso';-inkscape-font-specification:'linja laso';font-variant-ligatures:discretionary-ligatures;letter-spacing:0px;vector-effect:non-scaling-stroke;fill:#f0f0f0;fill-opacity:1;stroke-width:0.264584;stroke-miterlimit:40;-inkscape-stroke:hairline;paint-order:stroke fill markers"
       x="341.3125"
       y="465.42612"
       id="text15"><tspan
         sodipodi:role="line"
         style="fill:#f0f0f0;fill-opacity:1;stroke-width:0.264584"
         x="341.3125"
         y="465.42612"
         id="tspan16">linjalaso</tspan></text>
    <text
       xml:space="preserve"
       style="font-size:37.5227px;line-height:74.0639px;font-family:'linja laso';-inkscape-font-specification:'linja laso';font-variant-ligatures:discretionary-ligatures;letter-spacing:0px;vector-effect:non-scaling-stroke;fill:#f0f0f0;fill-opacity:1;stroke-width:0.264584;stroke-miterlimit:40;-inkscape-stroke:hairline;paint-order:stroke fill markers"
       x="309.5625"
       y="505.11362"
       id="text15-0"><tspan
         sodipodi:role="line"
         style="fill:#f0f0f0;fill-opacity:1;stroke-width:0.264584"
         x="309.5625"
         y="505.11362"
         id="tspan16-9">0.3</tspan></text>
  </g>
</svg>
