<?xml version="1.0" encoding="UTF-8" standalone="no"?>
<!-- Created with Inkscape (http://www.inkscape.org/) -->

<svg
   width="110mm"
   height="130mm"
   viewBox="0 0 110 130"
   version="1.1"
   id="svg1"
   sodipodi:docname="akesi.svg"
   inkscape:version="1.3.2 (091e20ef0f, 2023-11-25, custom)"
   xmlns:inkscape="http://www.inkscape.org/namespaces/inkscape"
   xmlns:sodipodi="http://sodipodi.sourceforge.net/DTD/sodipodi-0.dtd"
   xmlns="http://www.w3.org/2000/svg"
   xmlns:svg="http://www.w3.org/2000/svg">
  <sodipodi:namedview
     id="namedview1"
     pagecolor="#505050"
     bordercolor="#eeeeee"
     borderopacity="1"
     inkscape:showpageshadow="0"
     inkscape:pageopacity="0"
     inkscape:pagecheckerboard="0"
     inkscape:deskcolor="#505050"
     inkscape:document-units="mm"
     showgrid="true"
     inkscape:zoom="0.91218226"
     inkscape:cx="340.94064"
     inkscape:cy="252.14259"
     inkscape:window-width="1366"
     inkscape:window-height="768"
     inkscape:window-x="0"
     inkscape:window-y="0"
     inkscape:window-maximized="1"
     inkscape:current-layer="svg1">
    <inkscape:grid
       id="grid2"
       units="mm"
       originx="0"
       originy="0"
       spacingx="2.5"
       spacingy="2.5"
       empcolor="#ffffff"
       empopacity="0.30196078"
       color="#ffffff"
       opacity="0.14901961"
       empspacing="4"
       dotted="false"
       gridanglex="30"
       gridanglez="30"
       visible="true" />
  </sodipodi:namedview>
  <defs
     id="defs1" />
  <rect
     style="vector-effect:non-scaling-stroke;fill:#000000;fill-opacity:1;stroke-width:0.23665;-inkscape-stroke:hairline"
     id="rect7"
     width="59.999996"
     height="7.5"
     x="24.999813"
     y="32.5" />
  <rect
     style="vector-effect:non-scaling-stroke;fill:#000000;fill-opacity:1;stroke-width:0.23665;-inkscape-stroke:hairline"
     id="rect7-7"
     width="60"
     height="7.5"
     x="24.999813"
     y="42.5" />
  <path
     id="path7"
     style="vector-effect:non-scaling-stroke;fill:#000000;fill-opacity:1;stroke-width:0.264583;-inkscape-stroke:hairline"
     d="m 54.999998,20 a 20.000004,20.000004 0 0 0 -20.00033,19.999812 v 2.500106 A 20.000004,20.000004 0 0 0 54.999998,62.499729 20.000004,20.000004 0 0 0 74.999811,42.499918 V 39.999812 A 20.000004,20.000004 0 0 0 54.999998,20 Z m 0,9.999906 a 9.9999981,9.9999981 0 0 1 9.999906,9.999906 v 2.500106 a 9.9999981,9.9999981 0 0 1 -9.999906,9.999909 9.9999981,9.9999981 0 0 1 -10.000423,-9.999909 v -2.500106 a 9.9999981,9.9999981 0 0 1 10.000423,-9.999906 z" />
  <ellipse
     style="vector-effect:non-scaling-stroke;fill:#000000;fill-opacity:1;stroke-width:0.264583;-inkscape-stroke:hairline"
     id="path9"
     cx="32.499813"
     cy="25"
     rx="4.9999995"
     ry="5" />
  <ellipse
     style="vector-effect:non-scaling-stroke;fill:#000000;fill-opacity:1;stroke-width:0.264583;-inkscape-stroke:hairline"
     id="path9-6"
     cx="77.499817"
     cy="25"
     rx="4.9999995"
     ry="5" />
</svg>
