<?xml version="1.0" encoding="UTF-8" standalone="no"?>
<!-- Created with Inkscape (http://www.inkscape.org/) -->

<svg
   width="110mm"
   height="130mm"
   viewBox="0 0 110 130"
   version="1.1"
   id="svg1"
   inkscape:version="1.3.2 (091e20ef0f, 2023-11-25, custom)"
   sodipodi:docname="ijo.svg"
   xmlns:inkscape="http://www.inkscape.org/namespaces/inkscape"
   xmlns:sodipodi="http://sodipodi.sourceforge.net/DTD/sodipodi-0.dtd"
   xmlns="http://www.w3.org/2000/svg"
   xmlns:svg="http://www.w3.org/2000/svg">
  <sodipodi:namedview
     id="namedview1"
     pagecolor="#505050"
     bordercolor="#eeeeee"
     borderopacity="1"
     inkscape:showpageshadow="0"
     inkscape:pageopacity="0"
     inkscape:pagecheckerboard="0"
     inkscape:deskcolor="#505050"
     inkscape:document-units="mm"
     showgrid="true"
     inkscape:zoom="0.69598332"
     inkscape:cx="-31.609953"
     inkscape:cy="303.16819"
     inkscape:window-width="1366"
     inkscape:window-height="768"
     inkscape:window-x="0"
     inkscape:window-y="0"
     inkscape:window-maximized="1"
     inkscape:current-layer="layer1">
    <inkscape:grid
       id="grid1"
       units="mm"
       originx="0"
       originy="0"
       spacingx="2.5000001"
       spacingy="2.5000001"
       empcolor="#ffffff"
       empopacity="0.30196078"
       color="#ffffff"
       opacity="0.14901961"
       empspacing="4"
       dotted="false"
       gridanglex="30"
       gridanglez="30"
       visible="true" />
  </sodipodi:namedview>
  <defs
     id="defs1" />
  <g
     inkscape:label="Layer 1"
     inkscape:groupmode="layer"
     id="layer1">
    <path
       id="path1-5"
       style="font-variation-settings:'wght' 292;vector-effect:non-scaling-stroke;fill:#000000;stroke-width:0.264583;-inkscape-stroke:hairline;paint-order:stroke fill markers"
       d="M 54.999744 19.999813 A 35 21.25 0 0 0 19.999813 41.250195 A 35 21.25 0 0 0 54.999744 62.500061 A 35 21.25 0 0 0 90.000191 41.250195 A 35 21.25 0 0 0 54.999744 19.999813 z M 54.999744 30.000236 C 62.573343 30.000236 70.064869 32.043089 74.558757 34.771521 C 79.052644 37.499953 79.999768 39.998592 79.999768 41.250195 C 79.999768 42.501799 79.052644 44.999921 74.558757 47.728353 C 70.064869 50.456785 62.573343 52.500155 54.999744 52.500155 C 47.426144 52.500155 39.935135 50.456785 35.441248 47.728353 C 30.94736 44.999921 30.000236 42.501799 30.000236 41.250195 C 30.000236 39.998592 30.94736 37.499953 35.441248 34.771521 C 39.935135 32.043089 47.426144 30.000236 54.999744 30.000236 z " />
  </g>
</svg>
