<?xml version="1.0" encoding="UTF-8" standalone="no"?>
<!-- Created with Inkscape (http://www.inkscape.org/) -->

<svg
   width="110mm"
   height="130mm"
   viewBox="0 0 110 130"
   version="1.1"
   id="svg1"
   inkscape:version="1.3.2 (091e20ef0f, 2023-11-25, custom)"
   sodipodi:docname="jaki.svg"
   xmlns:inkscape="http://www.inkscape.org/namespaces/inkscape"
   xmlns:sodipodi="http://sodipodi.sourceforge.net/DTD/sodipodi-0.dtd"
   xmlns="http://www.w3.org/2000/svg"
   xmlns:svg="http://www.w3.org/2000/svg">
  <sodipodi:namedview
     id="namedview1"
     pagecolor="#505050"
     bordercolor="#eeeeee"
     borderopacity="1"
     inkscape:showpageshadow="0"
     inkscape:pageopacity="0"
     inkscape:pagecheckerboard="0"
     inkscape:deskcolor="#505050"
     inkscape:document-units="mm"
     showgrid="true"
     inkscape:zoom="1.2097969"
     inkscape:cx="254.1749"
     inkscape:cy="103.32313"
     inkscape:window-width="1366"
     inkscape:window-height="768"
     inkscape:window-x="0"
     inkscape:window-y="0"
     inkscape:window-maximized="1"
     inkscape:current-layer="layer1">
    <inkscape:grid
       id="grid1"
       units="mm"
       originx="0"
       originy="0"
       spacingx="2.5000001"
       spacingy="2.5000001"
       empcolor="#ffffff"
       empopacity="0.30196078"
       color="#ffffff"
       opacity="0.14901961"
       empspacing="4"
       dotted="false"
       gridanglex="30"
       gridanglez="30"
       visible="true" />
  </sodipodi:namedview>
  <defs
     id="defs1">
    <inkscape:path-effect
       effect="spiro"
       id="path-effect5"
       is_visible="true"
       lpeversion="1" />
    <inkscape:path-effect
       effect="spiro"
       id="path-effect1"
       is_visible="true"
       lpeversion="1" />
    <inkscape:path-effect
       effect="spiro"
       id="path-effect4"
       is_visible="true"
       lpeversion="1" />
    <inkscape:path-effect
       effect="spiro"
       id="path-effect3"
       is_visible="true"
       lpeversion="1" />
    <inkscape:path-effect
       effect="spiro"
       id="path-effect2"
       is_visible="true"
       lpeversion="1" />
    <inkscape:path-effect
       effect="spiro"
       id="path-effect26"
       is_visible="true"
       lpeversion="1" />
    <inkscape:path-effect
       effect="spiro"
       id="path-effect25"
       is_visible="true"
       lpeversion="1" />
    <inkscape:path-effect
       effect="spiro"
       id="path-effect22"
       is_visible="true"
       lpeversion="1" />
    <inkscape:path-effect
       effect="spiro"
       id="path-effect11"
       is_visible="true"
       lpeversion="1" />
    <inkscape:path-effect
       effect="spiro"
       id="path-effect11-1"
       is_visible="true"
       lpeversion="1" />
    <inkscape:path-effect
       effect="spiro"
       id="path-effect2-7"
       is_visible="true"
       lpeversion="1" />
    <inkscape:path-effect
       effect="spiro"
       id="path-effect2-0"
       is_visible="true"
       lpeversion="1" />
  </defs>
  <g
     inkscape:label="Layer 1"
     inkscape:groupmode="layer"
     id="layer1">
    <path
       style="fill:none;fill-opacity:1;stroke:#000000;stroke-width:10;stroke-dasharray:none;stroke-opacity:1"
       d="m 37.499999,85.000002 c 0.512421,4.035075 2.230793,7.909273 4.877875,10.997535 2.647082,3.088261 6.212891,5.378943 10.122124,6.502463 4.053231,1.16491 8.421929,1.07472 12.5,0 2.649095,-0.69813 5.212283,-1.81814 7.372843,-3.502501 2.160561,-1.684362 3.904306,-3.956075 4.733398,-6.567148 0.829093,-2.611073 0.691481,-5.563026 -0.598704,-7.979742 -0.645093,-1.208358 -1.567886,-2.271584 -2.692366,-3.053773 -1.12448,-0.782188 -2.450455,-1.279264 -3.815172,-1.396834 -1.339347,-0.115385 -2.694362,0.132322 -3.955543,0.597708 -1.261182,0.465385 -2.434445,1.14398 -3.544456,1.902292 -5.930968,4.051785 -10.002443,10.267981 -15.349509,15.064045 -2.673533,2.398033 -5.721451,4.463703 -9.153835,5.520623 -3.432383,1.05692 -7.288036,1.02874 -10.496655,-0.58467 -2.622466,-1.31867 -4.694246,-3.65155 -5.812685,-6.365462 -1.118439,-2.713911 -1.298429,-5.784111 -0.630336,-8.64241 0.668094,-2.858299 2.16539,-5.500421 4.180536,-7.634762 2.015146,-2.13434 4.53709,-3.767206 7.262485,-4.857364 3.26772,-1.307088 6.854726,-1.841959 10.351163,-1.440211 3.496438,0.401748 6.893256,1.750861 9.648836,3.940211 3.992883,3.172405 6.427216,7.845742 9.125689,12.173041 1.349236,2.16365 2.799129,4.282232 4.573,6.113952 1.773872,1.83172 3.892815,3.375766 6.30131,4.213005 3.460011,1.20277 7.432953,0.83447 10.612912,-0.983818 3.179959,-1.818293 5.512489,-5.055453 6.230882,-8.647422 0.718394,-3.591968 -0.189648,-7.477244 -2.425651,-10.378729 -2.236004,-2.901485 -5.761684,-4.769501 -9.418143,-4.990029"
       id="path1"
       inkscape:path-effect="#path-effect5"
       inkscape:original-d="M 37.499999,85.000002 C 32.008994,84.031113 40.144455,105.41721 52.499998,102.5 c 2.532155,-0.59785 10.515689,0.70868 12.5,0 11.666663,-4.166663 13.333334,-20.833332 4.999999,-22.499998 -8.333333,-1.666666 -2.499998,-2.500001 -7.499999,2.5 C 57.5,87.5 33.333334,99.166672 27.499999,102.5 c -5.833333,3.33333 1.666665,-19.166665 5,-27.499998 3.333332,-8.333332 10.833333,-2.500001 19.999999,2.5 C 61.666665,82.5 73.333331,106.66667 72.499997,100 c -0.833331,-6.666665 8.333332,-33.333327 5,-24.999998"
       sodipodi:nodetypes="cssssssssc"
       transform="translate(0,-47.500001)" />
  </g>
</svg>
