<?xml version="1.0" encoding="UTF-8" standalone="no"?>
<!-- Created with Inkscape (http://www.inkscape.org/) -->

<svg
   width="110mm"
   height="130mm"
   viewBox="0 0 110 130"
   version="1.1"
   id="svg1"
   inkscape:version="1.3.2 (091e20ef0f, 2023-11-25, custom)"
   sodipodi:docname="ko.svg"
   xmlns:inkscape="http://www.inkscape.org/namespaces/inkscape"
   xmlns:sodipodi="http://sodipodi.sourceforge.net/DTD/sodipodi-0.dtd"
   xmlns="http://www.w3.org/2000/svg"
   xmlns:svg="http://www.w3.org/2000/svg">
  <sodipodi:namedview
     id="namedview1"
     pagecolor="#505050"
     bordercolor="#eeeeee"
     borderopacity="1"
     inkscape:showpageshadow="0"
     inkscape:pageopacity="0"
     inkscape:pagecheckerboard="0"
     inkscape:deskcolor="#505050"
     inkscape:document-units="mm"
     showgrid="true"
     inkscape:zoom="1.1638355"
     inkscape:cx="127.59535"
     inkscape:cy="249.1761"
     inkscape:window-width="1366"
     inkscape:window-height="768"
     inkscape:window-x="0"
     inkscape:window-y="0"
     inkscape:window-maximized="1"
     inkscape:current-layer="layer1">
    <inkscape:grid
       id="grid1"
       units="mm"
       originx="0"
       originy="0"
       spacingx="2.5000001"
       spacingy="2.5000001"
       empcolor="#ffffff"
       empopacity="0.30196078"
       color="#ffffff"
       opacity="0.14901961"
       empspacing="4"
       dotted="false"
       gridanglex="30"
       gridanglez="30"
       visible="true" />
  </sodipodi:namedview>
  <defs
     id="defs1">
    <inkscape:path-effect
       effect="spiro"
       id="path-effect8"
       is_visible="true"
       lpeversion="1" />
    <inkscape:path-effect
       effect="spiro"
       id="path-effect7"
       is_visible="true"
       lpeversion="1" />
    <inkscape:path-effect
       effect="spiro"
       id="path-effect6"
       is_visible="true"
       lpeversion="1" />
    <inkscape:path-effect
       effect="spiro"
       id="path-effect5"
       is_visible="true"
       lpeversion="1" />
    <inkscape:path-effect
       effect="spiro"
       id="path-effect4"
       is_visible="true"
       lpeversion="1" />
    <inkscape:path-effect
       effect="spiro"
       id="path-effect3"
       is_visible="true"
       lpeversion="1" />
    <inkscape:path-effect
       effect="spiro"
       id="path-effect2"
       is_visible="true"
       lpeversion="1" />
    <inkscape:path-effect
       effect="spiro"
       id="path-effect26"
       is_visible="true"
       lpeversion="1" />
    <inkscape:path-effect
       effect="spiro"
       id="path-effect25"
       is_visible="true"
       lpeversion="1" />
    <inkscape:path-effect
       effect="spiro"
       id="path-effect22"
       is_visible="true"
       lpeversion="1" />
    <inkscape:path-effect
       effect="spiro"
       id="path-effect11"
       is_visible="true"
       lpeversion="1" />
    <inkscape:path-effect
       effect="spiro"
       id="path-effect11-1"
       is_visible="true"
       lpeversion="1" />
    <inkscape:path-effect
       effect="spiro"
       id="path-effect2-7"
       is_visible="true"
       lpeversion="1" />
    <inkscape:path-effect
       effect="spiro"
       id="path-effect2-0"
       is_visible="true"
       lpeversion="1" />
    <inkscape:path-effect
       effect="spiro"
       id="path-effect8-9"
       is_visible="true"
       lpeversion="1" />
    <inkscape:path-effect
       effect="spiro"
       id="path-effect8-9-2"
       is_visible="true"
       lpeversion="1" />
  </defs>
  <g
     inkscape:label="Layer 1"
     inkscape:groupmode="layer"
     id="layer1">
    <path
       style="color:#000000;fill:#000000;-inkscape-stroke:none"
       d="M 63.673828,21.070313 C 60.942275,20.915995 58.623976,21.674211 56.753906,22.5 c -1.847322,0.815745 -3.27199,1.686111 -4.441406,2.263672 -1.156353,0.571108 -2.0851,0.861653 -2.673828,0.904297 -0.631102,0.04571 -1.663831,-0.137474 -2.966797,-0.59961 -1.319766,-0.468094 -2.946053,-1.226609 -5.023438,-1.851562 -2.107321,-0.633959 -4.693968,-1.112888 -7.564453,-0.476563 -1.447801,0.320948 -2.909127,0.925586 -4.242187,1.931641 -1.347259,1.016768 -2.486456,2.387055 -3.181641,4.125 -0.691915,1.729524 -0.778491,3.388123 -0.65039,4.818359 0.126228,1.409319 0.454552,2.567105 0.738281,3.501954 0.560355,1.84629 0.789807,2.890352 0.771484,3.097656 -0.0109,0.123359 -0.123951,0.556921 -0.474609,1.158203 -0.360501,0.618159 -0.971105,1.426402 -1.722656,2.492187 -0.754677,1.070217 -1.657548,2.411657 -2.300782,4.191407 -0.659727,1.825391 -1.009885,4.047828 -0.333984,6.451176 0.749674,2.66566 2.513089,4.65143 4.695312,5.875 2.134794,1.19687 4.439969,1.53733 6.59961,1.32421 2.128399,-0.21002 4.002056,-0.94165 5.599609,-1.88085 1.585334,-0.93202 2.871404,-2.04858 3.962891,-3.14649 1.778844,-1.78932 2.953547,-3.29559 3.935547,-4.101562 0.484218,-0.397419 0.912967,-0.639828 1.210937,-0.75 0.276484,-0.102227 0.482978,-0.09267 0.476563,-0.09375 0.0014,2.45e-4 0.39952,0.138551 0.894531,0.59375 0.526264,0.483939 1.190347,1.322182 2.076172,2.429692 0.89019,1.11296 2.020679,2.50932 3.742187,3.75195 1.777636,1.28316 4.123779,2.32988 6.964844,2.13281 1.640353,-0.1138 3.038123,-0.62935 4.201172,-1.25586 1.150293,-0.61963 2.046581,-1.33272 2.78125,-1.97656 1.46425,-1.2832 2.356601,-2.21485 2.880859,-2.55273 0.516865,-0.33313 1.455452,-0.68927 2.767578,-1.03711 1.321388,-0.35031 3.045274,-0.702181 4.998047,-1.523442 1.995476,-0.839219 4.19794,-2.179662 5.779297,-4.585937 0.798257,-1.214666 1.386602,-2.646634 1.576172,-4.271485 0.191884,-1.644683 -0.03722,-3.373186 -0.855469,-5.015625 -1.259138,-2.527418 -3.366392,-3.899279 -5.345703,-4.642578 -1.89797,-0.712751 -3.56592,-0.828544 -4.826172,-0.921875 -1.251505,-0.09268 -2.119733,-0.169649 -2.589843,-0.291016 -0.413671,-0.106795 -0.497314,-0.272216 -0.310547,-0.03906 0.191393,0.238929 -0.07486,-0.180444 -0.273438,-1.402344 -0.209975,-1.292035 -0.39,-3.501937 -2.039062,-5.847656 -1.000328,-1.422924 -2.300228,-2.448035 -3.708985,-3.134766 -1.395936,-0.680479 -2.831004,-0.996472 -4.207031,-1.074218 z m -0.564453,9.984375 c 0.174685,0.0099 0.261612,0.04466 0.320312,0.06641 -0.07479,-0.08633 0.122642,0.34498 0.328125,1.609375 0.228623,1.406775 0.483461,3.731379 2.339844,6.048828 1.647336,2.05648 3.766884,2.995475 5.615235,3.472656 1.791913,0.462611 3.273258,0.500221 4.351562,0.580078 0.38546,0.02855 0.452478,0.07584 0.738281,0.113282 -0.106624,0.05468 -0.08068,0.08245 -0.205078,0.134765 -0.833543,0.350552 -2.083206,0.649949 -3.683594,1.074215 -1.609648,0.426721 -3.599182,0.992491 -5.623046,2.296875 -2.046127,1.318731 -3.217165,2.705244 -4.052735,3.4375 -0.41524,0.363901 -0.737776,0.58983 -0.933594,0.695312 -0.183063,0.09861 -0.265417,0.09001 -0.15039,0.08203 0.20565,-0.01426 -0.0575,-6.54e-4 -0.421875,-0.263672 C 61.311921,50.098815 60.707156,49.461777 59.947266,48.511719 59.18301,47.556203 58.24837,46.271024 56.830078,44.966797 55.380533,43.633832 53.435429,42.314761 50.832031,41.875 c -2.041725,-0.344883 -3.949814,-0.03939 -5.609375,0.574219 -1.638072,0.605663 -2.974603,1.486316 -4.085937,2.398437 -2.20911,1.813109 -3.549928,3.642874 -4.681641,4.78125 -0.689845,0.693906 -1.348648,1.22769 -1.941406,1.576172 -0.580539,0.341299 -1.12767,0.512691 -1.513672,0.550781 -0.314648,0.03105 -0.538395,-0.04098 -0.644531,-0.08398 0.0053,-0.03909 -0.0055,2.96e-4 0.07227,-0.214844 0.140862,-0.389745 0.491672,-1.015039 1.066407,-1.830078 0.577858,-0.819469 1.38587,-1.840272 2.1875,-3.214844 0.81147,-1.391447 1.606635,-3.143834 1.798828,-5.318359 0.282011,-3.190765 -0.733697,-5.462867 -1.164063,-6.880859 -0.21163,-0.697292 -0.321723,-1.198743 -0.347656,-1.488282 -0.01191,-0.13295 -0.01566,-0.06707 -0.01172,-0.105468 0.06013,-0.03368 0.128496,-0.07877 0.292969,-0.115235 0.456768,-0.101255 1.361355,-0.05877 2.517578,0.289063 1.18616,0.35684 2.670287,1.030042 4.5625,1.701172 1.909013,0.677089 4.263231,1.346984 7.03125,1.146484 2.5839,-0.187163 4.685153,-1.072668 6.380859,-1.910156 1.682644,-0.831038 2.988241,-1.614785 4.050782,-2.083985 1.039793,-0.459153 1.872083,-0.616898 2.316406,-0.591796 z"
       id="path7-3" />
  </g>
</svg>
