<?xml version="1.0" encoding="UTF-8" standalone="no"?>
<!-- Created with Inkscape (http://www.inkscape.org/) -->

<svg
   width="110mm"
   height="130mm"
   viewBox="0 0 110 130"
   version="1.1"
   id="svg1"
   inkscape:version="1.3.2 (091e20ef0f, 2023-11-25, custom)"
   sodipodi:docname="mani.svg"
   xmlns:inkscape="http://www.inkscape.org/namespaces/inkscape"
   xmlns:sodipodi="http://sodipodi.sourceforge.net/DTD/sodipodi-0.dtd"
   xmlns="http://www.w3.org/2000/svg"
   xmlns:svg="http://www.w3.org/2000/svg">
  <sodipodi:namedview
     id="namedview1"
     pagecolor="#505050"
     bordercolor="#eeeeee"
     borderopacity="1"
     inkscape:showpageshadow="0"
     inkscape:pageopacity="0"
     inkscape:pagecheckerboard="0"
     inkscape:deskcolor="#505050"
     inkscape:document-units="mm"
     showgrid="true"
     inkscape:zoom="1.3592762"
     inkscape:cx="210.4061"
     inkscape:cy="139.41243"
     inkscape:window-width="674"
     inkscape:window-height="733"
     inkscape:window-x="685"
     inkscape:window-y="5"
     inkscape:window-maximized="1"
     inkscape:current-layer="layer1">
    <inkscape:grid
       id="grid1"
       units="mm"
       originx="0"
       originy="0"
       spacingx="2.5000001"
       spacingy="2.5000001"
       empcolor="#ffffff"
       empopacity="0.30196078"
       color="#ffffff"
       opacity="0.14901961"
       empspacing="4"
       dotted="false"
       gridanglex="30"
       gridanglez="30"
       visible="true" />
  </sodipodi:namedview>
  <defs
     id="defs1" />
  <g
     inkscape:label="Layer 1"
     inkscape:groupmode="layer"
     id="layer1">
    <path
       id="path1"
       style="vector-effect:non-scaling-stroke;fill:#000000;stroke-width:0.230495;-inkscape-stroke:hairline"
       d="M 15.000118,20 A 19.999998,20 0 0 0 30.157332,39.379695 24.999998,21.250004 0 0 0 30.000236,41.250382 24.999998,21.250004 0 0 0 54.999744,62.500244 24.999998,21.250004 0 0 0 79.947058,41.877734 19.999998,20 0 0 0 94.999886,22.500106 H 84.99998 A 9.999999,10 0 0 1 77.588546,32.156881 24.999998,21.250004 0 0 0 54.999744,20 24.999998,21.250004 0 0 0 33.867183,29.919291 9.999999,10 0 0 1 25.000024,20 Z m 39.999626,9.984403 c 8.645989,0 15.016136,6.290314 15.016137,11.265979 -10e-7,4.975666 -6.370148,11.265462 -15.016137,11.265462 -8.645991,0 -15.01562,-6.289796 -15.015621,-11.265462 1e-6,-4.975665 6.36963,-11.265979 15.015621,-11.265979 z" />
  </g>
</svg>
