<?xml version="1.0" encoding="UTF-8" standalone="no"?>
<!-- Created with Inkscape (http://www.inkscape.org/) -->

<svg
   width="110mm"
   height="130mm"
   viewBox="0 0 110 130"
   version="1.1"
   id="svg1"
   inkscape:version="1.3.2 (091e20ef0f, 2023-11-25, custom)"
   sodipodi:docname="meli.svg"
   xmlns:inkscape="http://www.inkscape.org/namespaces/inkscape"
   xmlns:sodipodi="http://sodipodi.sourceforge.net/DTD/sodipodi-0.dtd"
   xmlns="http://www.w3.org/2000/svg"
   xmlns:svg="http://www.w3.org/2000/svg">
  <sodipodi:namedview
     id="namedview1"
     pagecolor="#505050"
     bordercolor="#eeeeee"
     borderopacity="1"
     inkscape:showpageshadow="0"
     inkscape:pageopacity="0"
     inkscape:pagecheckerboard="0"
     inkscape:deskcolor="#505050"
     inkscape:document-units="mm"
     showgrid="true"
     inkscape:zoom="1.4053919"
     inkscape:cx="382.81137"
     inkscape:cy="103.17407"
     inkscape:window-width="1366"
     inkscape:window-height="768"
     inkscape:window-x="0"
     inkscape:window-y="0"
     inkscape:window-maximized="1"
     inkscape:current-layer="layer1">
    <inkscape:grid
       id="grid1"
       units="mm"
       originx="0"
       originy="0"
       spacingx="2.5000001"
       spacingy="2.5000001"
       empcolor="#ffffff"
       empopacity="0.30196078"
       color="#ffffff"
       opacity="0.14901961"
       empspacing="4"
       dotted="false"
       gridanglex="30"
       gridanglez="30"
       visible="true" />
  </sodipodi:namedview>
  <defs
     id="defs1" />
  <g
     inkscape:label="Layer 1"
     inkscape:groupmode="layer"
     id="layer1">
    <path
       id="path2"
       style="vector-effect:non-scaling-stroke;fill:#000000;stroke-width:0.264583;-inkscape-stroke:hairline"
       d="M 54.999744,32.500012 A 15,15 0 0 0 40.000142,47.50013 15,15 0 0 0 54.999744,62.500244 15,15 0 0 0 69.999862,47.50013 15,15 0 0 0 54.999744,32.500012 Z m 0,10.000423 a 4.9999995,4.9999995 0 0 1 5.000211,4.999695 4.9999995,4.9999995 0 0 1 -5.000211,5.000214 4.9999995,4.9999995 0 0 1 -4.999695,-5.000214 4.9999995,4.9999995 0 0 1 4.999695,-4.999695 z" />
    <path
       id="path4"
       style="vector-effect:non-scaling-stroke;fill:#000000;stroke-width:0.264583;-inkscape-stroke:hairline"
       d="M 54.999744,20 A 27.499996,27.499996 0 0 0 27.50013,47.50013 v 15.000114 h 9.999907 V 47.50013 A 17.5,17.5 0 0 1 54.999744,30.000423 17.5,17.5 0 0 1 72.499967,47.50013 v 15.000114 h 9.999907 V 47.50013 A 27.499996,27.499996 0 0 0 54.999744,20 Z" />
  </g>
</svg>
