<?xml version="1.0" encoding="UTF-8" standalone="no"?>
<!-- Created with Inkscape (http://www.inkscape.org/) -->

<svg
   width="110mm"
   height="130mm"
   viewBox="0 0 110 130"
   version="1.1"
   id="svg1"
   inkscape:version="1.3.2 (091e20ef0f, 2023-11-25, custom)"
   sodipodi:docname="mije.svg"
   xmlns:inkscape="http://www.inkscape.org/namespaces/inkscape"
   xmlns:sodipodi="http://sodipodi.sourceforge.net/DTD/sodipodi-0.dtd"
   xmlns="http://www.w3.org/2000/svg"
   xmlns:svg="http://www.w3.org/2000/svg">
  <sodipodi:namedview
     id="namedview1"
     pagecolor="#505050"
     bordercolor="#eeeeee"
     borderopacity="1"
     inkscape:showpageshadow="0"
     inkscape:pageopacity="0"
     inkscape:pagecheckerboard="0"
     inkscape:deskcolor="#505050"
     inkscape:document-units="mm"
     showgrid="true"
     inkscape:zoom="0.89083686"
     inkscape:cx="257.06166"
     inkscape:cy="191.95434"
     inkscape:window-width="1366"
     inkscape:window-height="768"
     inkscape:window-x="0"
     inkscape:window-y="0"
     inkscape:window-maximized="1"
     inkscape:current-layer="layer1">
    <inkscape:grid
       id="grid1"
       units="mm"
       originx="0"
       originy="0"
       spacingx="2.5000001"
       spacingy="2.5000001"
       empcolor="#ffffff"
       empopacity="0.30196078"
       color="#ffffff"
       opacity="0.14901961"
       empspacing="4"
       dotted="false"
       gridanglex="30"
       gridanglez="30"
       visible="true" />
  </sodipodi:namedview>
  <defs
     id="defs1" />
  <g
     inkscape:label="Layer 1"
     inkscape:groupmode="layer"
     id="layer1">
    <path
       id="path1"
       style="vector-effect:non-scaling-stroke;fill:#000000;stroke-width:0.264583;-inkscape-stroke:hairline"
       d="M 54.999744,20 A 20,20 0 0 0 34.999931,40.000329 20,20 0 0 0 54.999744,60.000144 20,20 0 0 0 75.000073,40.000329 20,20 0 0 0 54.999744,20 Z m 0,10.000423 a 9.9999981,9.9999981 0 0 1 10.000423,9.999906 9.9999981,9.9999981 0 0 1 -10.000423,9.999907 9.9999981,9.9999981 0 0 1 -9.999907,-9.999907 9.9999981,9.9999981 0 0 1 9.999907,-9.999906 z" />
    <path
       id="rect2"
       style="vector-effect:non-scaling-stroke;fill:#000000;stroke-width:0.264583;-inkscape-stroke:hairline"
       d="m 25.000024,42.500435 v 19.999809 h 9.999907 v -9.9999 h 4.437972 a 19.999998,20 0 0 1 -4.259172,-9.999909 z m 49.821249,0 a 19.999998,20 0 0 1 -4.259172,9.999909 h 4.437972 v 9.9999 H 84.99998 V 42.500435 Z" />
  </g>
</svg>
