<?xml version="1.0" encoding="UTF-8" standalone="no"?>
<!-- Created with Inkscape (http://www.inkscape.org/) -->

<svg
   width="110mm"
   height="130mm"
   viewBox="0 0 110 130"
   version="1.1"
   id="svg1"
   inkscape:version="1.3.2 (091e20ef0f, 2023-11-25, custom)"
   sodipodi:docname="moli.svg"
   xmlns:inkscape="http://www.inkscape.org/namespaces/inkscape"
   xmlns:sodipodi="http://sodipodi.sourceforge.net/DTD/sodipodi-0.dtd"
   xmlns="http://www.w3.org/2000/svg"
   xmlns:svg="http://www.w3.org/2000/svg">
  <sodipodi:namedview
     id="namedview1"
     pagecolor="#505050"
     bordercolor="#eeeeee"
     borderopacity="1"
     inkscape:showpageshadow="0"
     inkscape:pageopacity="0"
     inkscape:pagecheckerboard="0"
     inkscape:deskcolor="#505050"
     inkscape:document-units="mm"
     showgrid="true"
     inkscape:zoom="0.96736108"
     inkscape:cx="277.04236"
     inkscape:cy="197.44437"
     inkscape:window-width="1366"
     inkscape:window-height="768"
     inkscape:window-x="0"
     inkscape:window-y="0"
     inkscape:window-maximized="1"
     inkscape:current-layer="layer1">
    <inkscape:grid
       id="grid1"
       units="mm"
       originx="0"
       originy="0"
       spacingx="2.5000001"
       spacingy="2.5000001"
       empcolor="#ffffff"
       empopacity="0.30196078"
       color="#ffffff"
       opacity="0.14901961"
       empspacing="4"
       dotted="false"
       gridanglex="30"
       gridanglez="30"
       visible="true" />
  </sodipodi:namedview>
  <defs
     id="defs1" />
  <g
     inkscape:label="Layer 1"
     inkscape:groupmode="layer"
     id="layer1">
    <path
       id="path1"
       style="vector-effect:non-scaling-stroke;fill:#000000;stroke-width:0.264583;-inkscape-stroke:hairline"
       d="M 54.999744,20 A 35,21.25 0 0 0 19.999813,41.250382 35,21.25 0 0 0 54.999744,62.500244 35,21.25 0 0 0 90.000191,41.250382 35,21.25 0 0 0 54.999744,20 Z m 0,10.000423 c 7.573595,0 15.06513,2.042857 19.559013,4.771285 4.493882,2.728428 5.441011,5.227082 5.441011,6.478674 0,1.251592 -0.947129,3.749729 -5.441011,6.478158 -4.493883,2.728428 -11.985418,4.771804 -19.559013,4.771804 -7.573596,0 -15.064614,-2.043376 -19.558496,-4.771804 -4.493883,-2.728429 -5.441012,-5.226566 -5.441012,-6.478158 0,-1.251592 0.947129,-3.750246 5.441012,-6.478674 4.493882,-2.728428 11.9849,-4.771285 19.558496,-4.771285 z" />
    <path
       id="rect4"
       style="vector-effect:non-scaling-stroke;fill:#000000;stroke-width:0.264583;-inkscape-stroke:hairline"
       d="m 41.464297,33.964544 -3.535185,3.535702 3.535185,3.535701 -3.535185,3.535185 3.535185,3.535701 3.535701,-3.535701 3.535702,3.535701 3.535701,-3.535701 L 48.5357,41.03543 52.071401,37.499729 48.5357,33.964544 44.999998,37.500246 Z m 20.000329,0 -3.535701,3.535702 3.535701,3.535701 -3.535185,3.535185 3.535185,3.535701 3.535185,-3.535701 3.535701,3.535701 3.535702,-3.535701 -3.535702,-3.535702 3.535702,-3.535701 -3.535185,-3.535185 -3.535701,3.535702 z" />
  </g>
</svg>
