<?xml version="1.0" encoding="UTF-8" standalone="no"?>
<!-- Created with Inkscape (http://www.inkscape.org/) -->

<svg
   width="110mm"
   height="130mm"
   viewBox="0 0 110 130"
   version="1.1"
   id="svg1"
   inkscape:version="1.3.2 (091e20ef0f, 2023-11-25, custom)"
   sodipodi:docname="pipi.svg"
   xml:space="preserve"
   xmlns:inkscape="http://www.inkscape.org/namespaces/inkscape"
   xmlns:sodipodi="http://sodipodi.sourceforge.net/DTD/sodipodi-0.dtd"
   xmlns="http://www.w3.org/2000/svg"
   xmlns:svg="http://www.w3.org/2000/svg"><sodipodi:namedview
     id="namedview1"
     pagecolor="#505050"
     bordercolor="#eeeeee"
     borderopacity="1"
     inkscape:showpageshadow="0"
     inkscape:pageopacity="0"
     inkscape:pagecheckerboard="0"
     inkscape:deskcolor="#505050"
     inkscape:document-units="mm"
     showgrid="true"
     inkscape:zoom="2.5640626"
     inkscape:cx="309.27482"
     inkscape:cy="181.93783"
     inkscape:window-width="1354"
     inkscape:window-height="733"
     inkscape:window-x="5"
     inkscape:window-y="5"
     inkscape:window-maximized="1"
     inkscape:current-layer="layer1"><inkscape:grid
       id="grid1"
       units="mm"
       originx="0"
       originy="0"
       spacingx="2.5000001"
       spacingy="2.5000001"
       empcolor="#ffffff"
       empopacity="0.30196078"
       color="#ffffff"
       opacity="0.14901961"
       empspacing="4"
       dotted="false"
       gridanglex="30"
       gridanglez="30"
       visible="true" /></sodipodi:namedview><defs
     id="defs1" /><g
     inkscape:label="Layer 1"
     inkscape:groupmode="layer"
     id="layer1"><path
       id="path3"
       style="font-variation-settings:'wght' 700;stroke-width:0.374177"
       d="m 88.750138,20 a 6.25,6.25 0 0 0 -6.250264,6.250264 6.25,6.25 0 0 0 6.250264,6.249748 6.25,6.25 0 0 0 6.249748,-6.249748 A 6.25,6.25 0 0 0 88.750138,20 Z m -63.750114,1.250053 v 12.500012 h -9.999906 v 9.999906 h 9.999906 v 12.50001 h 9.999907 v -12.50001 h 8.749853 v 12.50001 h 10.000424 v -12.50001 h 8.749853 v 12.50001 h 9.999906 v -12.50001 h 9.999907 V 33.750065 H 72.499967 V 21.250053 H 62.500061 V 33.750065 H 53.750208 V 21.250053 H 43.749784 V 33.750065 H 34.999931 V 21.250053 Z m 63.750114,23.749971 a 6.25,6.25 0 0 0 -6.250264,6.250267 6.25,6.25 0 0 0 6.250264,6.24975 6.25,6.25 0 0 0 6.249748,-6.24975 6.25,6.25 0 0 0 -6.249748,-6.250267 z" /></g></svg>
