<?xml version="1.0" encoding="UTF-8" standalone="no"?>
<!-- Created with Inkscape (http://www.inkscape.org/) -->

<svg
   width="110mm"
   height="130mm"
   viewBox="0 0 110 130"
   version="1.1"
   id="svg1"
   sodipodi:docname="ale.svg"
   inkscape:version="1.3.2 (091e20ef0f, 2023-11-25, custom)"
   xmlns:inkscape="http://www.inkscape.org/namespaces/inkscape"
   xmlns:sodipodi="http://sodipodi.sourceforge.net/DTD/sodipodi-0.dtd"
   xmlns="http://www.w3.org/2000/svg"
   xmlns:svg="http://www.w3.org/2000/svg">
  <sodipodi:namedview
     id="namedview1"
     pagecolor="#505050"
     bordercolor="#eeeeee"
     borderopacity="1"
     inkscape:showpageshadow="0"
     inkscape:pageopacity="0"
     inkscape:pagecheckerboard="0"
     inkscape:deskcolor="#505050"
     inkscape:document-units="mm"
     showgrid="true"
     inkscape:zoom="3.1512063"
     inkscape:cx="199.92344"
     inkscape:cy="255.45773"
     inkscape:window-width="1366"
     inkscape:window-height="768"
     inkscape:window-x="0"
     inkscape:window-y="0"
     inkscape:window-maximized="1"
     inkscape:current-layer="layer1">
    <inkscape:grid
       id="grid1"
       units="mm"
       originx="0"
       originy="0"
       spacingx="2.5"
       spacingy="2.5"
       empcolor="#ffffff"
       empopacity="0.30196078"
       color="#ffffff"
       opacity="0.14901961"
       empspacing="4"
       dotted="false"
       gridanglex="30"
       gridanglez="30"
       visible="true" />
  </sodipodi:namedview>
  <defs
     id="defs1" />
  <g
     id="layer1">
    <path
       id="path2"
       style="opacity:1;vector-effect:non-scaling-stroke;fill:#000000;fill-opacity:1;stroke:none;stroke-width:0.264583;-inkscape-stroke:hairline;paint-order:stroke fill markers"
       d="m 43.749784,53.750208 c -6.213172,2.2e-5 -11.249937,5.036787 -11.249959,11.249959 2.2e-5,6.213172 5.036787,11.249937 11.249959,11.249959 2.76562,-0.0043 5.43276,-1.027133 7.492049,-2.873209 v 0 l 3.757911,-3.362069 3.758427,3.362069 v 0 c 2.059289,1.846076 4.726429,2.868927 7.492049,2.873209 6.213172,-2.2e-5 11.249937,-5.036787 11.249959,-11.249959 -2.2e-5,-6.213172 -5.036787,-11.249937 -11.249959,-11.249959 -2.765798,0.0042 -5.433144,1.027014 -7.492566,2.873209 l -3.757394,3.360519 -3.75791,-3.360519 c -2.059422,-1.846195 -4.726768,-2.869054 -7.492566,-2.873209 z m 0,7.4998 c 0.922241,5.3e-4 1.811946,0.340884 2.499073,0.956014 v 0 l 3.144511,2.792595 -3.155363,2.783292 v 0 c -0.682581,0.616958 -1.56816,0.961442 -2.488221,0.9679 -2.070789,-1.97e-4 -3.749445,-1.678853 -3.749642,-3.749642 -8.9e-5,-2.070991 1.678651,-3.749962 3.749642,-3.750159 z m 22.500436,0 c 2.070991,1.97e-4 3.749731,1.679168 3.749642,3.750159 -1.97e-4,2.070789 -1.678853,3.749445 -3.749642,3.749642 -0.920061,-0.0065 -1.805639,-0.350942 -2.48822,-0.9679 v 0 l -3.155363,-2.783292 3.14451,-2.792595 v 0 c 0.687127,-0.61513 1.576832,-0.955484 2.499073,-0.956014 z"
       sodipodi:nodetypes="ccccccccccccccccccccccccccccccccc" />
  </g>
</svg>
