<?xml version="1.0" encoding="UTF-8" standalone="no"?>
<!-- Created with Inkscape (http://www.inkscape.org/) -->

<svg
   width="110mm"
   height="130mm"
   viewBox="0 0 110 130"
   version="1.1"
   id="svg1"
   inkscape:version="1.3.2 (091e20ef0f, 2023-11-25, custom)"
   sodipodi:docname="esun.svg"
   xmlns:inkscape="http://www.inkscape.org/namespaces/inkscape"
   xmlns:sodipodi="http://sodipodi.sourceforge.net/DTD/sodipodi-0.dtd"
   xmlns="http://www.w3.org/2000/svg"
   xmlns:svg="http://www.w3.org/2000/svg">
  <sodipodi:namedview
     id="namedview1"
     pagecolor="#505050"
     bordercolor="#eeeeee"
     borderopacity="1"
     inkscape:showpageshadow="0"
     inkscape:pageopacity="0"
     inkscape:pagecheckerboard="0"
     inkscape:deskcolor="#505050"
     inkscape:document-units="mm"
     showgrid="true"
     inkscape:zoom="0.90373718"
     inkscape:cx="132.78197"
     inkscape:cy="257.26506"
     inkscape:window-width="1354"
     inkscape:window-height="733"
     inkscape:window-x="5"
     inkscape:window-y="5"
     inkscape:window-maximized="1"
     inkscape:current-layer="layer1">
    <inkscape:grid
       id="grid1"
       units="mm"
       originx="0"
       originy="0"
       spacingx="2.5000001"
       spacingy="2.5000001"
       empcolor="#ffffff"
       empopacity="0.30196078"
       color="#ffffff"
       opacity="0.14901961"
       empspacing="4"
       dotted="false"
       gridanglex="30"
       gridanglez="30"
       visible="true" />
  </sodipodi:namedview>
  <defs
     id="defs1" />
  <g
     inkscape:label="Layer 1"
     inkscape:groupmode="layer"
     id="layer1">
    <path
       id="path1"
       style="vector-effect:non-scaling-stroke;fill:#000000;fill-opacity:1;stroke:none;stroke-width:0.264583;-inkscape-stroke:hairline"
       d="M 77.500179 19.999813 C 66.570655 19.999602 57.464394 27.793527 55.428141 38.125838 L 54.278341 43.67537 L 14.943274 21.307227 L 9.9999064 30.000236 L 52.146688 53.966732 L 48.658529 70.804464 L 43.489852 67.865108 L 43.488818 67.867175 C 40.227064 66.026843 36.463377 64.971667 32.451249 64.971745 C 20.02493 64.971785 9.9513706 75.045341 9.9513306 87.471663 C 9.9510906 99.898186 20.024728 109.97206 32.451249 109.9721 C 43.316878 109.97231 52.383308 102.27018 54.489697 92.027974 L 54.537756 92.037793 L 55.714945 86.321346 L 95.057247 108.69311 L 100.0001 100.00061 L 57.835229 76.02275 L 61.304785 59.174166 L 66.377861 62.059261 L 66.379411 62.056677 C 69.66037 63.926429 73.453662 65.000245 77.500179 65.000167 C 89.926499 65.000123 100.00006 54.926568 100.0001 42.500248 C 100.00034 30.073728 89.926701 19.999857 77.500179 19.999813 z M 77.500179 30.000236 A 12.5 12.5 0 0 1 78.119263 30.015739 C 78.255233 30.022371 78.389611 30.034253 78.524406 30.045194 A 12.5 12.5 0 0 1 78.738863 30.061731 C 78.773056 30.065095 78.806554 30.070494 78.840666 30.074133 A 12.5 12.5 0 0 1 79.962044 30.245182 C 80.024117 30.257585 80.084792 30.273205 80.146529 30.286523 A 12.5 12.5 0 0 1 81.140784 30.542322 C 81.219725 30.566328 81.296607 30.594319 81.374878 30.619836 A 12.5 12.5 0 0 1 82.295235 30.956767 C 82.366287 30.986317 82.435177 31.019484 82.505558 31.050301 A 12.5 12.5 0 0 1 83.400594 31.480766 C 83.460209 31.512755 83.51778 31.547578 83.576811 31.580501 A 12.5 12.5 0 0 1 84.458927 32.116903 C 84.491523 32.138791 84.522669 32.162412 84.555046 32.184599 A 12.5 12.5 0 0 1 85.444914 32.850191 C 85.452464 32.856414 85.4596 32.863071 85.467135 32.869312 A 12.5 12.5 0 0 1 86.338916 33.661511 A 12.5 12.5 0 0 1 87.129565 34.531742 C 87.136427 34.540024 87.143912 34.54773 87.150753 34.55603 A 12.5 12.5 0 0 1 87.813245 35.442281 C 87.836553 35.476271 87.861579 35.508819 87.884558 35.54305 A 12.5 12.5 0 0 1 88.416825 36.418449 C 88.451207 36.480025 88.48733 36.540205 88.520695 36.602417 A 12.5 12.5 0 0 1 88.946509 37.487118 C 88.979045 37.561285 89.014082 37.633897 89.045211 37.708809 A 12.5 12.5 0 0 1 89.379557 38.621932 C 89.405976 38.702884 89.434337 38.782626 89.459139 38.864294 A 12.5 12.5 0 0 1 89.710803 39.841496 C 89.725495 39.909261 89.74269 39.975897 89.756278 40.044067 A 12.5 12.5 0 0 1 89.923193 41.142192 C 89.92793 41.185995 89.93493 41.228995 89.939213 41.272933 A 12.5 12.5 0 0 1 89.93973 41.275 C 89.94078 41.285794 89.941291 41.296754 89.942314 41.307556 C 89.960499 41.499588 89.975291 41.692385 89.984688 41.886849 A 12.5 12.5 0 0 1 90.000191 42.500248 C 90.000169 43.04793 89.952761 43.583469 89.884436 44.112553 A 12.5 12.5 0 0 1 89.827075 44.487207 C 89.750998 44.962172 89.651731 45.428525 89.523735 45.884021 A 12.5 12.5 0 0 1 89.476192 46.068506 C 89.319646 46.594539 89.127117 47.103622 88.905684 47.598128 A 12.5 12.5 0 0 1 88.782694 47.85341 C 88.57954 48.280693 88.354276 48.694224 88.105733 49.093127 A 12.5 12.5 0 0 1 87.96259 49.329289 C 87.672672 49.772504 87.355582 50.195169 87.013293 50.596912 A 12.5 12.5 0 0 1 86.791085 50.841341 C 86.491409 51.174895 86.174838 51.491492 85.841272 51.791154 A 12.5 12.5 0 0 1 85.596842 52.013363 C 85.196038 52.354824 84.774407 52.670732 84.33232 52.960075 A 12.5 12.5 0 0 1 84.087891 53.108386 C 83.691791 53.354898 83.281533 53.578908 82.857475 53.780697 A 12.5 12.5 0 0 1 82.593925 53.907304 C 82.100707 54.127917 81.592992 54.320179 81.068437 54.476261 A 12.5 12.5 0 0 1 80.883952 54.523804 C 80.429592 54.651462 79.964488 54.750627 79.490755 54.826628 A 12.5 12.5 0 0 1 79.108866 54.885022 C 78.580964 54.953013 78.046584 54.999744 77.500179 54.999744 C 77.193384 54.997116 76.867897 54.970395 76.53538 54.931014 A 12.5 12.5 0 0 1 71.920158 53.659257 C 71.681005 53.553802 71.468225 53.452785 71.320711 53.366252 L 63.425069 48.876086 L 65.256999 39.978955 C 65.284919 39.842744 65.335252 39.689433 65.385156 39.536088 A 12.5 12.5 0 0 1 76.42996 30.076717 C 76.785297 30.027523 77.14217 30.000448 77.500179 30.000236 z M 32.451249 74.972168 C 32.758044 74.975168 33.083532 75.001598 33.416048 75.040898 A 12.5 12.5 0 0 1 38.03127 76.312655 C 38.270423 76.418115 38.483203 76.51912 38.630717 76.60566 L 46.526359 81.095825 L 46.4783 81.328886 L 44.680477 90.007943 L 44.689779 90.01001 C 44.661309 90.142236 44.614266 90.288357 44.566272 90.435824 A 12.5 12.5 0 0 1 33.521468 99.895194 C 33.166131 99.944394 32.809258 99.971476 32.451249 99.971676 A 12.5 12.5 0 0 1 31.832166 99.956173 C 31.696196 99.949173 31.561817 99.937617 31.427022 99.926717 A 12.5 12.5 0 0 1 31.212565 99.910181 C 31.178375 99.907181 31.144875 99.901178 31.110763 99.897778 A 12.5 12.5 0 0 1 29.989384 99.726729 C 29.927314 99.714329 29.866636 99.698688 29.804899 99.685388 A 12.5 12.5 0 0 1 28.810645 99.42959 C 28.731705 99.40559 28.654821 99.377575 28.57655 99.352075 A 12.5 12.5 0 0 1 27.656193 99.015145 C 27.585143 98.985545 27.516251 98.95241 27.44587 98.921611 A 12.5 12.5 0 0 1 26.550834 98.491146 C 26.491214 98.459146 26.433648 98.42431 26.374618 98.39141 A 12.5 12.5 0 0 1 25.492501 97.855009 C 25.459901 97.833109 25.428763 97.809513 25.396383 97.787313 A 12.5 12.5 0 0 1 24.506514 97.12172 C 24.498914 97.11552 24.491824 97.10884 24.484294 97.1026 A 12.5 12.5 0 0 1 23.612512 96.3104 A 12.5 12.5 0 0 1 22.821863 95.440169 C 22.814963 95.431869 22.807515 95.424181 22.800675 95.415881 A 12.5 12.5 0 0 1 22.138184 94.529631 C 22.114874 94.495641 22.08985 94.46309 22.06687 94.428861 A 12.5 12.5 0 0 1 21.534603 93.553463 C 21.500223 93.491883 21.464103 93.431707 21.430733 93.369495 A 12.5 12.5 0 0 1 21.004919 92.484794 C 20.972379 92.410624 20.937347 92.338014 20.906217 92.263102 A 12.5 12.5 0 0 1 20.571871 91.34998 C 20.545451 91.26903 20.517089 91.189286 20.492289 91.107617 A 12.5 12.5 0 0 1 20.240625 90.130416 C 20.225935 90.062646 20.20873 89.996014 20.19515 89.927844 A 12.5 12.5 0 0 1 20.028235 88.82972 C 20.023535 88.78592 20.016495 88.74292 20.012215 88.698979 A 12.5 12.5 0 0 1 20.011698 88.696912 C 20.010598 88.686122 20.010115 88.675165 20.009115 88.664355 C 19.990925 88.472324 19.97613 88.279526 19.96674 88.085063 A 12.5 12.5 0 0 1 19.951237 87.471663 C 19.951259 86.923982 19.998667 86.388442 20.066992 85.859359 A 12.5 12.5 0 0 1 20.124353 85.484705 C 20.200433 85.00974 20.299697 84.543386 20.427694 84.087891 A 12.5 12.5 0 0 1 20.475236 83.903406 C 20.631782 83.377162 20.824311 82.86829 21.045744 82.373783 A 12.5 12.5 0 0 1 21.168734 82.118502 C 21.371889 81.691218 21.597152 81.277688 21.845695 80.878784 A 12.5 12.5 0 0 1 21.988839 80.642623 C 22.278756 80.199407 22.595846 79.776743 22.938135 79.375 A 12.5 12.5 0 0 1 23.160343 79.13057 C 23.460019 78.797017 23.776591 78.480419 24.110156 78.180758 A 12.5 12.5 0 0 1 24.354586 77.958549 C 24.75539 77.617087 25.177022 77.301176 25.619108 77.011837 A 12.5 12.5 0 0 1 25.863538 76.863525 C 26.259637 76.617006 26.669895 76.392995 27.093953 76.191215 A 12.5 12.5 0 0 1 27.357503 76.064608 C 27.850721 75.843998 28.358436 75.65173 28.882992 75.49565 A 12.5 12.5 0 0 1 29.067476 75.448108 C 29.521836 75.320448 29.98694 75.221284 30.460673 75.145284 A 12.5 12.5 0 0 1 30.842562 75.08689 C 31.370464 75.01889 31.904844 74.972168 32.451249 74.972168 z " />
  </g>
</svg>
