<?xml version="1.0" encoding="UTF-8" standalone="no"?>
<!-- Created with Inkscape (http://www.inkscape.org/) -->

<svg
   width="110mm"
   height="130mm"
   viewBox="0 0 110 130"
   version="1.1"
   id="svg1"
   inkscape:version="1.3.2 (091e20ef0f, 2023-11-25, custom)"
   sodipodi:docname="ijo.svg"
   xmlns:inkscape="http://www.inkscape.org/namespaces/inkscape"
   xmlns:sodipodi="http://sodipodi.sourceforge.net/DTD/sodipodi-0.dtd"
   xmlns="http://www.w3.org/2000/svg"
   xmlns:svg="http://www.w3.org/2000/svg">
  <sodipodi:namedview
     id="namedview1"
     pagecolor="#505050"
     bordercolor="#eeeeee"
     borderopacity="1"
     inkscape:showpageshadow="0"
     inkscape:pageopacity="0"
     inkscape:pagecheckerboard="0"
     inkscape:deskcolor="#505050"
     inkscape:document-units="mm"
     showgrid="true"
     inkscape:zoom="0.77388188"
     inkscape:cx="20.67499"
     inkscape:cy="378.61075"
     inkscape:window-width="1366"
     inkscape:window-height="768"
     inkscape:window-x="0"
     inkscape:window-y="0"
     inkscape:window-maximized="1"
     inkscape:current-layer="layer1">
    <inkscape:grid
       id="grid1"
       units="mm"
       originx="0"
       originy="0"
       spacingx="2.5000001"
       spacingy="2.5000001"
       empcolor="#ffffff"
       empopacity="0.30196078"
       color="#ffffff"
       opacity="0.14901961"
       empspacing="4"
       dotted="false"
       gridanglex="30"
       gridanglez="30"
       visible="true" />
  </sodipodi:namedview>
  <defs
     id="defs1" />
  <g
     inkscape:label="Layer 1"
     inkscape:groupmode="layer"
     id="layer1">
    <path
       id="path2"
       style="vector-effect:non-scaling-stroke;fill:#000000;fill-rule:evenodd;stroke-width:0.264583;-inkscape-stroke:hairline;paint-order:stroke fill markers"
       d="M 54.999744 42.500248 A 22.500002 22.500002 0 0 0 32.499825 65.000167 A 22.500002 22.500002 0 0 0 54.999744 87.500085 A 22.500002 22.500002 0 0 0 77.500179 65.000167 A 22.500002 22.500002 0 0 0 54.999744 42.500248 z M 54.999744 50.000049 A 15 15 0 0 1 69.999862 65.000167 A 15 15 0 0 1 54.999744 79.999768 A 15 15 0 0 1 40.000142 65.000167 A 15 15 0 0 1 54.999744 50.000049 z " />
  </g>
</svg>
