<?xml version="1.0" encoding="UTF-8" standalone="no"?>
<!-- Created with Inkscape (http://www.inkscape.org/) -->

<svg
   width="110mm"
   height="130mm"
   viewBox="0 0 110 130"
   version="1.1"
   id="svg1"
   inkscape:version="1.3.2 (091e20ef0f, 2023-11-25, custom)"
   sodipodi:docname="jo.svg"
   xmlns:inkscape="http://www.inkscape.org/namespaces/inkscape"
   xmlns:sodipodi="http://sodipodi.sourceforge.net/DTD/sodipodi-0.dtd"
   xmlns="http://www.w3.org/2000/svg"
   xmlns:svg="http://www.w3.org/2000/svg">
  <sodipodi:namedview
     id="namedview1"
     pagecolor="#505050"
     bordercolor="#eeeeee"
     borderopacity="1"
     inkscape:showpageshadow="0"
     inkscape:pageopacity="0"
     inkscape:pagecheckerboard="0"
     inkscape:deskcolor="#505050"
     inkscape:document-units="mm"
     showgrid="true"
     inkscape:zoom="0.94737959"
     inkscape:cx="203.19205"
     inkscape:cy="224.30291"
     inkscape:window-width="1354"
     inkscape:window-height="733"
     inkscape:window-x="5"
     inkscape:window-y="5"
     inkscape:window-maximized="1"
     inkscape:current-layer="layer1"
     showguides="true">
    <inkscape:grid
       id="grid1"
       units="mm"
       originx="0"
       originy="0"
       spacingx="2.5000001"
       spacingy="2.5000001"
       empcolor="#ffffff"
       empopacity="0.30196078"
       color="#ffffff"
       opacity="0.14901961"
       empspacing="4"
       dotted="false"
       gridanglex="30"
       gridanglez="30"
       visible="true" />
  </sodipodi:namedview>
  <defs
     id="defs1">
    <inkscape:path-effect
       effect="spiro"
       id="path-effect11"
       is_visible="true"
       lpeversion="1" />
    <inkscape:path-effect
       effect="spiro"
       id="path-effect11-1"
       is_visible="true"
       lpeversion="1" />
  </defs>
  <g
     inkscape:label="Layer 1"
     inkscape:groupmode="layer"
     id="layer1">
    <path
       id="rect8"
       style="vector-effect:non-scaling-stroke;fill:#020202;fill-opacity:1;stroke:none;stroke-width:0.252566;stroke-miterlimit:100;stroke-dasharray:none;stroke-opacity:1;-inkscape-stroke:hairline"
       d="m 50.000252,67.500008 v 5.000212 4.999695 l 29.999999,1.99e-4 V 72.50022 h 8.726977 v -5.000212 z"
       sodipodi:nodetypes="cccccccc" />
    <path
       id="path1"
       style="vector-effect:non-scaling-stroke;fill:#000000;fill-rule:evenodd;stroke-width:0.264583;stroke-miterlimit:100;-inkscape-stroke:hairline"
       d="M 55.00025,25.000115 A 17.5,17.5 0 0 0 37.500026,42.500338 17.5,17.5 0 0 0 55.00025,60.000045 17.5,17.5 0 0 0 72.500478,42.500338 17.5,17.5 0 0 0 55.00025,25.000115 Z m 0,9.999389 a 7.5002727,7.5002727 0 0 1 7.500318,7.500317 7.5002727,7.5002727 0 0 1 -7.500318,7.500318 7.5002727,7.5002727 0 0 1 -7.500834,-7.500318 7.5002727,7.5002727 0 0 1 7.500834,-7.500317 z" />
    <path
       id="path2"
       style="vector-effect:non-scaling-stroke;fill:#000000;fill-rule:evenodd;stroke-width:0.264583;stroke-miterlimit:100;-inkscape-stroke:hairline"
       d="M 45.000091,39.050539 A 33.75,33.75 0 0 0 21.249603,71.250124 33.75,33.75 0 0 0 54.999998,105 33.75,33.75 0 0 0 88.750392,71.250124 33.75,33.75 0 0 0 88.482192,67.499965 H 78.421824 A 23.749998,23.749998 0 0 1 78.749969,71.250124 23.749998,23.749998 0 0 1 54.999998,95.000096 23.749998,23.749998 0 0 1 31.250026,71.250124 23.749998,23.749998 0 0 1 45.000091,49.808022 Z" />
  </g>
</svg>
