<?xml version="1.0" encoding="UTF-8" standalone="no"?>
<!-- Created with Inkscape (http://www.inkscape.org/) -->

<svg
   width="110mm"
   height="130mm"
   viewBox="0 0 110 130"
   version="1.1"
   id="svg1"
   inkscape:version="1.3.2 (091e20ef0f, 2023-11-25, custom)"
   sodipodi:docname="jo.svg"
   xmlns:inkscape="http://www.inkscape.org/namespaces/inkscape"
   xmlns:sodipodi="http://sodipodi.sourceforge.net/DTD/sodipodi-0.dtd"
   xmlns="http://www.w3.org/2000/svg"
   xmlns:svg="http://www.w3.org/2000/svg">
  <sodipodi:namedview
     id="namedview1"
     pagecolor="#505050"
     bordercolor="#eeeeee"
     borderopacity="1"
     inkscape:showpageshadow="0"
     inkscape:pageopacity="0"
     inkscape:pagecheckerboard="0"
     inkscape:deskcolor="#505050"
     inkscape:document-units="mm"
     showgrid="true"
     inkscape:zoom="0.72220463"
     inkscape:cx="22.154386"
     inkscape:cy="372.47061"
     inkscape:window-width="1366"
     inkscape:window-height="768"
     inkscape:window-x="0"
     inkscape:window-y="0"
     inkscape:window-maximized="1"
     inkscape:current-layer="layer1"
     showguides="true">
    <inkscape:grid
       id="grid1"
       units="mm"
       originx="0"
       originy="0"
       spacingx="2.5000001"
       spacingy="2.5000001"
       empcolor="#ffffff"
       empopacity="0.30196078"
       color="#ffffff"
       opacity="0.14901961"
       empspacing="4"
       dotted="false"
       gridanglex="30"
       gridanglez="30"
       visible="true" />
  </sodipodi:namedview>
  <defs
     id="defs1">
    <inkscape:path-effect
       effect="spiro"
       id="path-effect11"
       is_visible="true"
       lpeversion="1" />
    <inkscape:path-effect
       effect="spiro"
       id="path-effect11-1"
       is_visible="true"
       lpeversion="1" />
  </defs>
  <g
     inkscape:label="Layer 1"
     inkscape:groupmode="layer"
     id="layer1">
    <path
       id="path4"
       style="vector-effect:non-scaling-stroke;fill:#000000;stroke-width:0.264583;stroke-miterlimit:40;-inkscape-stroke:hairline;paint-order:stroke fill markers"
       d="M 54.999744 42.500248 A 11.249999 11.249999 0 0 0 43.749784 53.750208 A 11.249999 11.249999 0 0 0 44.087231 56.37537 A 17.5 17.5 0 0 0 37.500037 69.999862 A 17.5 17.5 0 0 0 54.999744 87.500085 A 17.5 17.5 0 0 0 72.499967 69.999862 L 72.499967 67.499756 L 69.999862 67.499756 L 54.999744 67.499756 L 54.999744 75.000073 L 63.612138 75.000073 A 10.000002 10.000002 0 0 1 54.999744 79.999768 A 10.000002 10.000002 0 0 1 44.999837 69.999862 A 10.000002 10.000002 0 0 1 48.229614 62.699015 A 11.249999 11.249999 0 0 0 54.999744 65.000167 A 11.249999 11.249999 0 0 0 66.25022 53.750208 A 11.249999 11.249999 0 0 0 54.999744 42.500248 z M 54.999744 50.000049 A 3.7500002 3.7500005 0 0 1 58.749902 53.750208 A 3.7500002 3.7500005 0 0 1 54.999744 57.499849 A 3.7500002 3.7500005 0 0 1 51.250102 53.750208 A 3.7500002 3.7500005 0 0 1 54.999744 50.000049 z " />
  </g>
</svg>
