<?xml version="1.0" encoding="UTF-8" standalone="no"?>
<!-- Created with Inkscape (http://www.inkscape.org/) -->

<svg
   width="110mm"
   height="130mm"
   viewBox="0 0 110 130"
   version="1.1"
   id="svg1"
   inkscape:version="1.3.2 (091e20ef0f, 2023-11-25, custom)"
   sodipodi:docname="kala.svg"
   xmlns:inkscape="http://www.inkscape.org/namespaces/inkscape"
   xmlns:sodipodi="http://sodipodi.sourceforge.net/DTD/sodipodi-0.dtd"
   xmlns="http://www.w3.org/2000/svg"
   xmlns:svg="http://www.w3.org/2000/svg">
  <sodipodi:namedview
     id="namedview1"
     pagecolor="#505050"
     bordercolor="#eeeeee"
     borderopacity="1"
     inkscape:showpageshadow="0"
     inkscape:pageopacity="0"
     inkscape:pagecheckerboard="0"
     inkscape:deskcolor="#505050"
     inkscape:document-units="mm"
     showgrid="true"
     inkscape:zoom="0.8941979"
     inkscape:cx="163.83398"
     inkscape:cy="253.85879"
     inkscape:window-width="1366"
     inkscape:window-height="768"
     inkscape:window-x="0"
     inkscape:window-y="0"
     inkscape:window-maximized="1"
     inkscape:current-layer="layer1"
     showguides="true">
    <inkscape:grid
       id="grid1"
       units="mm"
       originx="0"
       originy="0"
       spacingx="1.25"
       spacingy="1.25"
       empcolor="#ffffff"
       empopacity="0.30196078"
       color="#ffffff"
       opacity="0.14901961"
       empspacing="8"
       dotted="false"
       gridanglex="30"
       gridanglez="30"
       visible="true" />
  </sodipodi:namedview>
  <defs
     id="defs1">
    <inkscape:path-effect
       effect="spiro"
       id="path-effect11"
       is_visible="true"
       lpeversion="1" />
    <inkscape:path-effect
       effect="spiro"
       id="path-effect11-1"
       is_visible="true"
       lpeversion="1" />
  </defs>
  <g
     inkscape:label="Layer 1"
     inkscape:groupmode="layer"
     id="layer1">
    <path
       id="path12"
       style="vector-effect:non-scaling-stroke;fill:#020202;fill-opacity:1;stroke:none;stroke-width:0.264583;stroke-miterlimit:100;stroke-dasharray:none;stroke-opacity:1;-inkscape-stroke:hairline"
       d="m 68.749758,35.000024 c -8.613868,8.1e-5 -16.379997,3.630652 -21.85138,9.444901 L 34.427305,57.702514 16.033596,38.148669 8.7498028,44.99993 27.563124,64.999743 8.7498028,85.000073 16.033596,91.851851 34.427305,72.297489 46.898378,85.555078 c 5.471388,5.814359 13.237407,9.44482 21.85138,9.444901 C 85.318385,95.000124 98.750126,81.568385 98.749996,64.999743 98.74983,48.431302 85.318199,34.999894 68.749758,35.000024 Z m 0,9.999906 c 11.045696,-1.84e-4 20.000228,8.954117 20.000329,19.999813 1.84e-4,11.045898 -8.954431,20.000514 -20.000329,20.00033 -5.530603,-0.02442 -10.804255,-2.243936 -14.567587,-6.296774 L 41.292002,65.000002 54.182171,51.296704 c 3.763242,-4.053029 9.036906,-6.272217 14.567587,-6.296774 z"
       sodipodi:nodetypes="scccccccccscsccccccc" />
  </g>
</svg>
