<?xml version="1.0" encoding="UTF-8" standalone="no"?>
<!-- Created with Inkscape (http://www.inkscape.org/) -->

<svg
   width="110mm"
   height="130mm"
   viewBox="0 0 110 130"
   version="1.1"
   id="svg1"
   inkscape:version="1.3.2 (091e20ef0f, 2023-11-25, custom)"
   sodipodi:docname="kasi.svg"
   xmlns:inkscape="http://www.inkscape.org/namespaces/inkscape"
   xmlns:sodipodi="http://sodipodi.sourceforge.net/DTD/sodipodi-0.dtd"
   xmlns="http://www.w3.org/2000/svg"
   xmlns:svg="http://www.w3.org/2000/svg">
  <sodipodi:namedview
     id="namedview1"
     pagecolor="#505050"
     bordercolor="#eeeeee"
     borderopacity="1"
     inkscape:showpageshadow="0"
     inkscape:pageopacity="0"
     inkscape:pagecheckerboard="0"
     inkscape:deskcolor="#505050"
     inkscape:document-units="mm"
     showgrid="true"
     inkscape:zoom="1.0039908"
     inkscape:cx="254.98241"
     inkscape:cy="226.5957"
     inkscape:window-width="1354"
     inkscape:window-height="733"
     inkscape:window-x="5"
     inkscape:window-y="5"
     inkscape:window-maximized="1"
     inkscape:current-layer="layer1"
     showguides="true">
    <inkscape:grid
       id="grid1"
       units="mm"
       originx="0"
       originy="0"
       spacingx="2.5000001"
       spacingy="2.5000001"
       empcolor="#ffffff"
       empopacity="0.30196078"
       color="#ffffff"
       opacity="0.14901961"
       empspacing="4"
       dotted="false"
       gridanglex="30"
       gridanglez="30"
       visible="true" />
  </sodipodi:namedview>
  <defs
     id="defs1">
    <inkscape:path-effect
       effect="spiro"
       id="path-effect11"
       is_visible="true"
       lpeversion="1" />
    <inkscape:path-effect
       effect="spiro"
       id="path-effect11-1"
       is_visible="true"
       lpeversion="1" />
  </defs>
  <g
     inkscape:label="Layer 1"
     inkscape:groupmode="layer"
     id="layer1">
    <path
       id="rect1"
       style="vector-effect:non-scaling-stroke;fill:#000000;stroke:none;stroke-width:0.264583;stroke-miterlimit:40;-inkscape-stroke:hairline;paint-order:stroke fill markers"
       d="M 69.999862 52.499638 C 63.866164 52.499717 58.421038 55.445983 55.00026 59.999438 C 51.579494 55.445838 46.133955 52.500233 40.000142 52.500155 L 39.999626 52.500155 L 34.999931 52.500155 L 34.999931 57.499849 L 34.999931 57.500366 C 35.000053 67.007373 42.07759 74.856134 51.250102 76.079077 L 51.250102 76.249609 L 51.250102 84.99998 L 58.749902 84.99998 L 58.749902 76.249609 L 58.749902 76.079077 C 67.922434 74.856151 74.999951 67.00687 75.000073 57.499849 L 75.000073 57.499333 L 75.000073 52.500155 L 70.000378 52.499638 L 69.999862 52.499638 z M 67.124068 60.375643 C 66.089521 64.285445 63.03591 67.339056 59.126107 68.373604 C 60.160654 64.4638 63.214265 61.41019 67.124068 60.375643 z M 42.875936 60.37616 C 46.785739 61.410707 49.83935 64.464317 50.873897 68.374121 C 46.964094 67.339573 43.910483 64.285963 42.875936 60.37616 z " />
  </g>
</svg>
