<?xml version="1.0" encoding="UTF-8" standalone="no"?>
<!-- Created with Inkscape (http://www.inkscape.org/) -->

<svg
   width="110mm"
   height="130mm"
   viewBox="0 0 110 130"
   version="1.1"
   id="svg1"
   inkscape:version="1.3.2 (091e20ef0f, 2023-11-25, custom)"
   sodipodi:docname="kasi.svg"
   xmlns:inkscape="http://www.inkscape.org/namespaces/inkscape"
   xmlns:sodipodi="http://sodipodi.sourceforge.net/DTD/sodipodi-0.dtd"
   xmlns="http://www.w3.org/2000/svg"
   xmlns:svg="http://www.w3.org/2000/svg">
  <sodipodi:namedview
     id="namedview1"
     pagecolor="#505050"
     bordercolor="#eeeeee"
     borderopacity="1"
     inkscape:showpageshadow="0"
     inkscape:pageopacity="0"
     inkscape:pagecheckerboard="0"
     inkscape:deskcolor="#505050"
     inkscape:document-units="mm"
     showgrid="true"
     inkscape:zoom="0.74285086"
     inkscape:cx="263.1753"
     inkscape:cy="187.11697"
     inkscape:window-width="1366"
     inkscape:window-height="768"
     inkscape:window-x="0"
     inkscape:window-y="0"
     inkscape:window-maximized="1"
     inkscape:current-layer="layer1"
     showguides="true">
    <inkscape:grid
       id="grid1"
       units="mm"
       originx="0"
       originy="0"
       spacingx="2.5000001"
       spacingy="2.5000001"
       empcolor="#ffffff"
       empopacity="0.30196078"
       color="#ffffff"
       opacity="0.14901961"
       empspacing="4"
       dotted="false"
       gridanglex="30"
       gridanglez="30"
       visible="true" />
  </sodipodi:namedview>
  <defs
     id="defs1">
    <inkscape:path-effect
       effect="spiro"
       id="path-effect11"
       is_visible="true"
       lpeversion="1" />
    <inkscape:path-effect
       effect="spiro"
       id="path-effect11-1"
       is_visible="true"
       lpeversion="1" />
  </defs>
  <g
     inkscape:label="Layer 1"
     inkscape:groupmode="layer"
     id="layer1">
    <path
       id="rect15"
       style="vector-effect:non-scaling-stroke;fill:#020202;fill-opacity:1;stroke:none;stroke-width:0.264583;stroke-miterlimit:100;stroke-dasharray:none;stroke-opacity:1;-inkscape-stroke:hairline"
       d="m 9.9999492,19.999809 v 9.999906 A 40,40 0 0 0 50.000092,69.999857 V 110 h 9.999906 V 69.999857 A 40,40 0 0 0 100.00014,29.999715 V 19.999809 H 90.000234 A 40,40 0 0 0 55.01529,40.674515 40,40 0 0 0 19.999856,19.999809 Z m 9.9999068,9.999906 A 29.999996,29.999996 0 0 1 50.000092,59.999951 29.999996,29.999996 0 0 1 19.999856,29.999715 Z m 70.000378,0 A 29.999996,29.999996 0 0 1 59.999998,59.999951 29.999996,29.999996 0 0 1 90.000234,29.999715 Z" />
  </g>
</svg>
