<?xml version="1.0" encoding="UTF-8" standalone="no"?>
<!-- Created with Inkscape (http://www.inkscape.org/) -->

<svg
   width="110mm"
   height="130mm"
   viewBox="0 0 110 130"
   version="1.1"
   id="svg1"
   inkscape:version="1.3.2 (091e20ef0f, 2023-11-25, custom)"
   sodipodi:docname="kepeken.svg"
   xmlns:inkscape="http://www.inkscape.org/namespaces/inkscape"
   xmlns:sodipodi="http://sodipodi.sourceforge.net/DTD/sodipodi-0.dtd"
   xmlns="http://www.w3.org/2000/svg"
   xmlns:svg="http://www.w3.org/2000/svg">
  <sodipodi:namedview
     id="namedview1"
     pagecolor="#505050"
     bordercolor="#eeeeee"
     borderopacity="1"
     inkscape:showpageshadow="0"
     inkscape:pageopacity="0"
     inkscape:pagecheckerboard="0"
     inkscape:deskcolor="#505050"
     inkscape:document-units="mm"
     showgrid="true"
     inkscape:zoom="1.6165308"
     inkscape:cx="201.35712"
     inkscape:cy="240.94808"
     inkscape:window-width="1354"
     inkscape:window-height="733"
     inkscape:window-x="5"
     inkscape:window-y="5"
     inkscape:window-maximized="1"
     inkscape:current-layer="layer1">
    <inkscape:grid
       id="grid1"
       units="mm"
       originx="0"
       originy="0"
       spacingx="2.5"
       spacingy="2.5"
       empcolor="#ffffff"
       empopacity="0.30196078"
       color="#ffffff"
       opacity="0.14901961"
       empspacing="4"
       dotted="false"
       gridanglex="30"
       gridanglez="30"
       visible="true" />
  </sodipodi:namedview>
  <defs
     id="defs1" />
  <g
     inkscape:label="Layer 1"
     inkscape:groupmode="layer"
     id="layer1">
    <path
       id="rect1"
       style="vector-effect:non-scaling-stroke;fill:#000000;stroke-width:0.264583;stroke-miterlimit:40;-inkscape-stroke:hairline;paint-order:stroke fill markers"
       d="M 42.500248 47.499943 L 42.500248 59.999955 L 52.500155 59.999955 L 52.500155 62.814771 C 48.186974 63.92476 44.99988 67.840314 44.999837 72.499967 L 39.999626 72.499967 L 44.99932 82.499874 L 52.499638 82.499874 L 52.500155 72.499967 C 52.500096 71.11938 53.619154 70.000089 54.999744 69.999862 C 56.380532 69.999804 57.499908 71.119179 57.499849 72.499967 L 57.499333 82.499874 L 64.99965 82.499874 L 65.000167 72.499967 C 65.000124 67.840368 61.812906 63.925346 57.499849 62.815287 L 57.499849 59.999955 L 67.499756 59.999955 L 67.499756 47.499943 L 42.500248 47.499943 z M 47.499943 52.500155 L 52.500155 52.500155 L 52.500155 54.999744 L 47.499943 54.999744 L 47.499943 52.500155 z M 57.499849 52.500155 L 62.500061 52.500155 L 62.500061 54.999744 L 57.499849 54.999744 L 57.499849 52.500155 z " />
  </g>
</svg>
