<?xml version="1.0" encoding="UTF-8" standalone="no"?>
<!-- Created with Inkscape (http://www.inkscape.org/) -->

<svg
   width="110mm"
   height="130mm"
   viewBox="0 0 110 130"
   version="1.1"
   id="svg1"
   inkscape:version="1.3.2 (091e20ef0f, 2023-11-25, custom)"
   sodipodi:docname="kijetesantakalu.svg"
   xmlns:inkscape="http://www.inkscape.org/namespaces/inkscape"
   xmlns:sodipodi="http://sodipodi.sourceforge.net/DTD/sodipodi-0.dtd"
   xmlns="http://www.w3.org/2000/svg"
   xmlns:svg="http://www.w3.org/2000/svg">
  <sodipodi:namedview
     id="namedview1"
     pagecolor="#505050"
     bordercolor="#eeeeee"
     borderopacity="1"
     inkscape:showpageshadow="0"
     inkscape:pageopacity="0"
     inkscape:pagecheckerboard="0"
     inkscape:deskcolor="#505050"
     inkscape:document-units="mm"
     showgrid="true"
     inkscape:zoom="1.0596105"
     inkscape:cx="187.80485"
     inkscape:cy="236.40762"
     inkscape:window-width="1354"
     inkscape:window-height="733"
     inkscape:window-x="5"
     inkscape:window-y="5"
     inkscape:window-maximized="1"
     inkscape:current-layer="layer1"
     showguides="true">
    <inkscape:grid
       id="grid1"
       units="mm"
       originx="0"
       originy="0"
       spacingx="2.5000001"
       spacingy="2.5000001"
       empcolor="#ffffff"
       empopacity="0.30196078"
       color="#ffffff"
       opacity="0.14901961"
       empspacing="4"
       dotted="false"
       gridanglex="30"
       gridanglez="30"
       visible="true" />
  </sodipodi:namedview>
  <defs
     id="defs1">
    <inkscape:path-effect
       effect="spiro"
       id="path-effect22"
       is_visible="true"
       lpeversion="1" />
    <inkscape:path-effect
       effect="spiro"
       id="path-effect11"
       is_visible="true"
       lpeversion="1" />
    <inkscape:path-effect
       effect="spiro"
       id="path-effect11-1"
       is_visible="true"
       lpeversion="1" />
  </defs>
  <g
     inkscape:label="Layer 1"
     inkscape:groupmode="layer"
     id="layer1">
    <path
       id="rect1-7"
       style="vector-effect:non-scaling-stroke;fill:#000000;fill-opacity:1;fill-rule:evenodd;stroke:none;stroke-width:0.271833;stroke-miterlimit:100;stroke-opacity:1;-inkscape-stroke:hairline"
       inkscape:transform-center-x="18.250002"
       inkscape:transform-center-y="-16.000003"
       d="m 43.999998,57.99977 -5.999944,7.999925 4.000169,3.000127 -5.000005,6.666673 -10e-7,19.660298 -9.515079,1.359297 -7.09197,9.45596 -22.3933639,29.85781 8.0003381,6.00026 27.0002148,-36.00028 13.999869,-1.99998 -2.06e-4,-10.101609 10e-7,-14.898316 3.000127,-4.000169 5.999944,-7.999925 -7.999925,-5.999944 z"
       transform="rotate(-36.869901)"
       sodipodi:nodetypes="ccccccccccccccccc" />
    <path
       id="path15"
       style="font-variation-settings:'wght' 700;fill:#000000;fill-opacity:1;stroke-width:0.264583"
       d="M 30.000237,69.999962 A 19.999998,19.999998 0 0 0 9.9999078,89.999775 19.999998,19.999998 0 0 0 30.000237,110.00011 V 100.0002 A 9.999999,9.999999 0 0 1 19.999814,89.999775 9.999999,9.999999 0 0 1 30.000237,79.999869 Z" />
    <path
       id="rect17"
       style="font-variation-settings:'wght' 700;stroke-width:0.229137"
       d="M 65,80.000008 H 75.000001 V 110 H 65 Z" />
    <path
       id="rect17-1"
       style="font-variation-settings:'wght' 700;fill:#000000;fill-opacity:1;stroke-width:0.324049"
       d="M 47.46532 79.999768 L 49.965426 110 L 59.999955 110 L 57.499849 79.999768 L 47.46532 79.999768 z " />
    <path
       id="path17"
       style="font-variation-settings:'wght' 700;fill:#000000;fill-opacity:1;stroke-width:0.211666"
       d="M 69.999863,19.999914 A 39.999996,39.999996 0 0 0 30.000237,60.000056 h 9.999906 A 29.999996,29.999996 0 0 1 69.999863,29.99982 Z" />
    <path
       id="rect18"
       style="font-variation-settings:'wght' 700;stroke-width:0.264583"
       d="m 30.000004,60.000004 h 9.999999 V 110 h -9.999999 z" />
    <path
       id="rect20"
       style="font-variation-settings:'wght' 700;stroke-width:0.305514"
       d="m 35,100.00001 h 22.5 v 10 H 35 Z" />
    <path
       id="path24"
       style="font-variation-settings:'wght' 700;stroke-width:0.295855"
       inkscape:transform-center-x="4.9600136"
       inkscape:transform-center-y="2.5801288"
       transform="rotate(-27.48281)"
       d="m 45.679951,80.12236 a 5.5909615,5.5909615 0 0 1 -5.590962,5.590962 5.5909615,5.5909615 0 0 1 -5.590961,-5.590962 5.5909615,5.5909615 0 0 1 5.590961,-5.590961 5.5909615,5.5909615 0 0 1 5.590962,5.590961 z" />
    <path
       id="path24-1"
       style="font-variation-settings:'wght' 700;stroke-width:0.295855"
       inkscape:transform-center-x="4.9600136"
       inkscape:transform-center-y="2.5801288"
       transform="rotate(-27.48281)"
       d="m 32.268026,73.204849 a 5.5909615,5.5909615 0 0 1 -5.590961,5.590962 5.5909615,5.5909615 0 0 1 -5.590962,-5.590962 5.5909615,5.5909615 0 0 1 5.590962,-5.590961 5.5909615,5.5909615 0 0 1 5.590961,5.590961 z" />
  </g>
</svg>
