<?xml version="1.0" encoding="UTF-8" standalone="no"?>
<!-- Created with Inkscape (http://www.inkscape.org/) -->

<svg
   width="110mm"
   height="130mm"
   viewBox="0 0 110 130"
   version="1.1"
   id="svg1"
   inkscape:version="1.3.2 (091e20ef0f, 2023-11-25, custom)"
   sodipodi:docname="kili.svg"
   xmlns:inkscape="http://www.inkscape.org/namespaces/inkscape"
   xmlns:sodipodi="http://sodipodi.sourceforge.net/DTD/sodipodi-0.dtd"
   xmlns="http://www.w3.org/2000/svg"
   xmlns:svg="http://www.w3.org/2000/svg">
  <sodipodi:namedview
     id="namedview1"
     pagecolor="#505050"
     bordercolor="#eeeeee"
     borderopacity="1"
     inkscape:showpageshadow="0"
     inkscape:pageopacity="0"
     inkscape:pagecheckerboard="0"
     inkscape:deskcolor="#505050"
     inkscape:document-units="mm"
     showgrid="true"
     inkscape:zoom="1.1253956"
     inkscape:cx="309.6689"
     inkscape:cy="240.80422"
     inkscape:window-width="1366"
     inkscape:window-height="768"
     inkscape:window-x="0"
     inkscape:window-y="0"
     inkscape:window-maximized="1"
     inkscape:current-layer="layer1">
    <inkscape:grid
       id="grid1"
       units="mm"
       originx="0"
       originy="0"
       spacingx="2.5000001"
       spacingy="2.5000001"
       empcolor="#ffffff"
       empopacity="0.30196078"
       color="#ffffff"
       opacity="0.14901961"
       empspacing="4"
       dotted="false"
       gridanglex="30"
       gridanglez="30"
       visible="true" />
  </sodipodi:namedview>
  <defs
     id="defs1">
    <inkscape:path-effect
       effect="spiro"
       id="path-effect10"
       is_visible="true"
       lpeversion="1" />
    <inkscape:path-effect
       effect="spiro"
       id="path-effect7"
       is_visible="true"
       lpeversion="1" />
    <inkscape:path-effect
       effect="spiro"
       id="path-effect6"
       is_visible="true"
       lpeversion="1" />
    <inkscape:path-effect
       effect="spiro"
       id="path-effect5"
       is_visible="true"
       lpeversion="1" />
    <inkscape:path-effect
       effect="spiro"
       id="path-effect4"
       is_visible="true"
       lpeversion="1" />
    <inkscape:path-effect
       effect="spiro"
       id="path-effect3"
       is_visible="true"
       lpeversion="1" />
    <inkscape:path-effect
       effect="spiro"
       id="path-effect2"
       is_visible="true"
       lpeversion="1" />
    <inkscape:path-effect
       effect="spiro"
       id="path-effect26"
       is_visible="true"
       lpeversion="1" />
    <inkscape:path-effect
       effect="spiro"
       id="path-effect25"
       is_visible="true"
       lpeversion="1" />
    <inkscape:path-effect
       effect="spiro"
       id="path-effect22"
       is_visible="true"
       lpeversion="1" />
    <inkscape:path-effect
       effect="spiro"
       id="path-effect11"
       is_visible="true"
       lpeversion="1" />
    <inkscape:path-effect
       effect="spiro"
       id="path-effect11-1"
       is_visible="true"
       lpeversion="1" />
    <inkscape:path-effect
       effect="spiro"
       id="path-effect2-7"
       is_visible="true"
       lpeversion="1" />
    <inkscape:path-effect
       effect="spiro"
       id="path-effect2-0"
       is_visible="true"
       lpeversion="1" />
  </defs>
  <g
     inkscape:label="Layer 1"
     inkscape:groupmode="layer"
     id="layer1">
    <path
       style="color:#000000;fill:#000000;stroke-width:0.864272;stroke-miterlimit:100;-inkscape-stroke:none"
       d="m 36.658827,41.101397 c -2.878249,0.109095 -5.739004,0.687657 -8.453659,1.73192 -5.530245,2.127353 -10.135146,6.048248 -13.281427,10.909744 -3.136017,4.845636 -4.746293,10.46954 -4.92061,16.102127 -0.1800651,5.818306 1.160949,11.562767 3.691723,16.699689 2.527202,5.129673 6.194197,9.583266 10.555258,13.13288 8.72498,7.101563 19.866379,10.322313 30.750859,10.322313 10.88448,0 22.024189,-3.22075 30.749171,-10.322313 4.36106,-3.549614 8.028055,-8.003207 10.555258,-13.13288 2.53077,-5.136923 3.87179,-10.881383 3.69172,-16.699689 C 99.822805,64.2126 98.212529,58.588697 95.07651,53.743061 91.930231,48.881565 87.325331,44.960669 81.795085,42.833317 76.365775,40.744792 70.353252,40.51694 64.781422,42.18849 c -3.646586,1.093975 -6.949729,3.035146 -9.782139,5.5283 -2.832208,-2.49273 -6.13428,-4.43445 -9.780451,-5.5283 -2.785916,-0.835776 -5.681756,-1.196187 -8.560005,-1.087093 z m 0.378119,10.006647 c 1.799303,-0.0682 3.610834,0.148926 5.308857,0.658333 3.396045,1.018813 6.525017,3.256741 8.587013,6.141056 l 4.068155,5.690352 4.066466,-5.690352 c 2.061997,-2.884315 5.190969,-5.122243 8.587013,-6.141056 3.396045,-1.018813 7.241014,-0.872898 10.550193,0.400063 3.385411,1.302286 6.433428,3.852305 8.477292,7.010393 2.054128,3.173947 3.199183,7.061868 3.320357,10.977265 0.125772,4.06398 -0.828386,8.239346 -2.667089,11.971515 -1.842275,3.739419 -4.591288,7.105645 -7.898296,9.797332 -6.611158,5.381044 -15.546381,8.077235 -24.435936,8.077235 -8.889555,0 -17.826468,-2.696191 -24.437624,-8.077235 -3.307008,-2.691687 -6.054333,-6.057913 -7.896608,-9.797332 -1.838703,-3.732168 -2.794549,-7.907535 -2.668777,-11.971515 0.121173,-3.915397 1.267917,-7.803318 3.322044,-10.977265 2.043863,-3.158088 5.090194,-5.708107 8.475604,-7.010393 1.65459,-0.636481 3.442032,-0.990196 5.241336,-1.058396 z"
       id="path10" />
    <path
       id="rect3"
       style="vector-effect:non-scaling-stroke;fill:#000000;fill-rule:evenodd;stroke:none;stroke-width:0.275387;stroke-miterlimit:100;-inkscape-stroke:hairline"
       inkscape:transform-center-x="2.6383995"
       inkscape:transform-center-y="14.391016"
       d="M 44.858498,19.999999 50.140346,51.247187 60.000209,49.580622 54.999998,20 Z" />
  </g>
</svg>
