<?xml version="1.0" encoding="UTF-8" standalone="no"?>
<!-- Created with Inkscape (http://www.inkscape.org/) -->

<svg
   width="110mm"
   height="130mm"
   viewBox="0 0 110 130"
   version="1.1"
   id="svg1"
   inkscape:version="1.3.2 (091e20ef0f, 2023-11-25, custom)"
   sodipodi:docname="kili.svg"
   xmlns:inkscape="http://www.inkscape.org/namespaces/inkscape"
   xmlns:sodipodi="http://sodipodi.sourceforge.net/DTD/sodipodi-0.dtd"
   xmlns="http://www.w3.org/2000/svg"
   xmlns:svg="http://www.w3.org/2000/svg">
  <sodipodi:namedview
     id="namedview1"
     pagecolor="#505050"
     bordercolor="#eeeeee"
     borderopacity="1"
     inkscape:showpageshadow="0"
     inkscape:pageopacity="0"
     inkscape:pagecheckerboard="0"
     inkscape:deskcolor="#505050"
     inkscape:document-units="mm"
     showgrid="true"
     inkscape:zoom="1.591924"
     inkscape:cx="278.59371"
     inkscape:cy="223.31468"
     inkscape:window-width="1354"
     inkscape:window-height="733"
     inkscape:window-x="5"
     inkscape:window-y="5"
     inkscape:window-maximized="1"
     inkscape:current-layer="layer1">
    <inkscape:grid
       id="grid1"
       units="mm"
       originx="0"
       originy="0"
       spacingx="2.5000001"
       spacingy="2.5000001"
       empcolor="#ffffff"
       empopacity="0.30196078"
       color="#ffffff"
       opacity="0.14901961"
       empspacing="4"
       dotted="false"
       gridanglex="30"
       gridanglez="30"
       visible="true" />
  </sodipodi:namedview>
  <defs
     id="defs1">
    <inkscape:path-effect
       effect="spiro"
       id="path-effect8"
       is_visible="true"
       lpeversion="1" />
    <inkscape:path-effect
       effect="spiro"
       id="path-effect10"
       is_visible="true"
       lpeversion="1" />
    <inkscape:path-effect
       effect="spiro"
       id="path-effect7"
       is_visible="true"
       lpeversion="1" />
    <inkscape:path-effect
       effect="spiro"
       id="path-effect6"
       is_visible="true"
       lpeversion="1" />
    <inkscape:path-effect
       effect="spiro"
       id="path-effect5"
       is_visible="true"
       lpeversion="1" />
    <inkscape:path-effect
       effect="spiro"
       id="path-effect4"
       is_visible="true"
       lpeversion="1" />
    <inkscape:path-effect
       effect="spiro"
       id="path-effect3"
       is_visible="true"
       lpeversion="1" />
    <inkscape:path-effect
       effect="spiro"
       id="path-effect2"
       is_visible="true"
       lpeversion="1" />
    <inkscape:path-effect
       effect="spiro"
       id="path-effect26"
       is_visible="true"
       lpeversion="1" />
    <inkscape:path-effect
       effect="spiro"
       id="path-effect25"
       is_visible="true"
       lpeversion="1" />
    <inkscape:path-effect
       effect="spiro"
       id="path-effect22"
       is_visible="true"
       lpeversion="1" />
    <inkscape:path-effect
       effect="spiro"
       id="path-effect11"
       is_visible="true"
       lpeversion="1" />
    <inkscape:path-effect
       effect="spiro"
       id="path-effect11-1"
       is_visible="true"
       lpeversion="1" />
    <inkscape:path-effect
       effect="spiro"
       id="path-effect2-7"
       is_visible="true"
       lpeversion="1" />
    <inkscape:path-effect
       effect="spiro"
       id="path-effect2-0"
       is_visible="true"
       lpeversion="1" />
  </defs>
  <g
     inkscape:label="Layer 1"
     inkscape:groupmode="layer"
     id="layer1">
    <path
       id="path2"
       style="color:#000000;fill:#000000;stroke-miterlimit:40;-inkscape-stroke:none;paint-order:stroke fill markers"
       d="m 56.077714,44.57609 -7.385079,1.307414 1.783354,10.073287 C 49.909168,55.872201 49.3332,55.82605 48.749996,55.82605 c -3.471556,0 -6.768737,1.42624 -9.144662,3.957381 -2.741276,2.920361 -3.812679,6.789664 -3.564123,10.482048 0.325328,4.832874 2.839551,9.133267 6.484359,12.017871 3.608595,2.855944 8.075533,4.185274 12.474174,4.185274 4.39864,0 8.866095,-1.32933 12.47469,-4.185274 3.644808,-2.884604 6.159031,-7.184997 6.484359,-12.017871 0.248556,-3.692384 -0.822847,-7.561687 -3.564123,-10.482048 -2.375925,-2.531141 -5.673106,-3.957381 -9.144662,-3.957381 -1.063782,0 -2.103297,0.150882 -3.105753,0.422713 z m -7.327718,19.18746 c 1.744939,0 3.750002,1.236451 6.250002,3.736451 2.5,-2.5 4.470704,-3.736451 6.25001,-3.736451 1.197485,0 2.535795,0.580044 3.355351,1.453141 0.969305,1.032629 1.551155,2.800506 1.435571,4.517554 -0.156009,2.317566 -1.517487,4.763311 -3.492293,6.326229 -2.011018,1.591576 -4.780911,2.47065 -7.548893,2.47065 -2.767983,0 -5.537359,-0.879074 -7.548377,-2.47065 -1.974806,-1.562918 -3.336284,-4.008663 -3.492293,-6.326229 -0.115584,-1.717048 0.466266,-3.484925 1.435571,-4.517554 0.819556,-0.873097 2.157866,-1.453141 3.355351,-1.453141 z"
       sodipodi:nodetypes="cccsssssssssccscsssssssss" />
  </g>
</svg>
