<?xml version="1.0" encoding="UTF-8" standalone="no"?>
<!-- Created with Inkscape (http://www.inkscape.org/) -->

<svg
   width="110mm"
   height="130mm"
   viewBox="0 0 110 130"
   version="1.1"
   id="svg1"
   inkscape:version="1.3.2 (091e20ef0f, 2023-11-25, custom)"
   sodipodi:docname="laso.svg"
   xmlns:inkscape="http://www.inkscape.org/namespaces/inkscape"
   xmlns:sodipodi="http://sodipodi.sourceforge.net/DTD/sodipodi-0.dtd"
   xmlns="http://www.w3.org/2000/svg"
   xmlns:svg="http://www.w3.org/2000/svg">
  <sodipodi:namedview
     id="namedview1"
     pagecolor="#505050"
     bordercolor="#eeeeee"
     borderopacity="1"
     inkscape:showpageshadow="0"
     inkscape:pageopacity="0"
     inkscape:pagecheckerboard="0"
     inkscape:deskcolor="#505050"
     inkscape:document-units="mm"
     showgrid="true"
     inkscape:zoom="0.61103017"
     inkscape:cx="351.86479"
     inkscape:cy="211.11887"
     inkscape:window-width="1366"
     inkscape:window-height="768"
     inkscape:window-x="0"
     inkscape:window-y="0"
     inkscape:window-maximized="1"
     inkscape:current-layer="layer1">
    <inkscape:grid
       id="grid1"
       units="mm"
       originx="0"
       originy="0"
       spacingx="2.5000001"
       spacingy="2.5000001"
       empcolor="#ffffff"
       empopacity="0.30196078"
       color="#ffffff"
       opacity="0.14901961"
       empspacing="4"
       dotted="false"
       gridanglex="30"
       gridanglez="30"
       visible="true" />
  </sodipodi:namedview>
  <defs
     id="defs1">
    <inkscape:path-effect
       effect="spiro"
       id="path-effect11"
       is_visible="true"
       lpeversion="1" />
    <inkscape:path-effect
       effect="spiro"
       id="path-effect11-1"
       is_visible="true"
       lpeversion="1" />
  </defs>
  <g
     inkscape:label="Layer 1"
     inkscape:groupmode="layer"
     id="layer1">
    <path
       id="rect3"
       style="fill:#020202;fill-opacity:1;stroke:none;stroke-width:0.264583;stroke-miterlimit:100;stroke-opacity:1"
       d="M 54.99974,54.999648 19.999809,109.99991 H 31.852832 78.147164 90.000187 Z M 55.000256,73.625385 71.783728,100 h -33.56746 z"
       sodipodi:nodetypes="cccccccccc" />
    <path
       id="path5-8"
       style="fill:#020202;fill-opacity:1;stroke:none;stroke-width:0.132292;stroke-miterlimit:100;stroke-opacity:1"
       d="M 25.000024 19.999813 L 25.000024 29.999719 A 25 25 0 0 0 50.000049 54.999744 L 50.000049 67.574687 L 59.999955 67.574687 L 59.999955 54.999744 A 25 25 0 0 0 84.99998 29.999719 L 84.99998 19.999813 L 75.000073 19.999813 A 25 25 0 0 0 55.008012 30.016772 A 25 25 0 0 0 34.999931 19.999813 L 25.000024 19.999813 z M 34.999931 29.999719 A 15.000001 15.000001 0 0 1 50.000049 44.999837 A 15.000001 15.000001 0 0 1 34.999931 29.999719 z M 75.000073 29.999719 A 15.000001 15.000001 0 0 1 59.999955 44.999837 A 15.000001 15.000001 0 0 1 75.000073 29.999719 z " />
  </g>
</svg>
