<?xml version="1.0" encoding="UTF-8" standalone="no"?>
<!-- Created with Inkscape (http://www.inkscape.org/) -->

<svg
   width="110mm"
   height="130mm"
   viewBox="0 0 110 130"
   version="1.1"
   id="svg1"
   inkscape:version="1.3.2 (091e20ef0f, 2023-11-25, custom)"
   sodipodi:docname="ma.svg"
   xmlns:inkscape="http://www.inkscape.org/namespaces/inkscape"
   xmlns:sodipodi="http://sodipodi.sourceforge.net/DTD/sodipodi-0.dtd"
   xmlns="http://www.w3.org/2000/svg"
   xmlns:svg="http://www.w3.org/2000/svg">
  <sodipodi:namedview
     id="namedview1"
     pagecolor="#505050"
     bordercolor="#eeeeee"
     borderopacity="1"
     inkscape:showpageshadow="0"
     inkscape:pageopacity="0"
     inkscape:pagecheckerboard="0"
     inkscape:deskcolor="#505050"
     inkscape:document-units="mm"
     showgrid="true"
     inkscape:zoom="0.80285795"
     inkscape:cx="146.35217"
     inkscape:cy="284.60826"
     inkscape:window-width="1354"
     inkscape:window-height="733"
     inkscape:window-x="5"
     inkscape:window-y="5"
     inkscape:window-maximized="1"
     inkscape:current-layer="layer1">
    <inkscape:grid
       id="grid1"
       units="mm"
       originx="0"
       originy="0"
       spacingx="2.5000001"
       spacingy="2.5000001"
       empcolor="#ffffff"
       empopacity="0.30196078"
       color="#ffffff"
       opacity="0.14901961"
       empspacing="4"
       dotted="false"
       gridanglex="30"
       gridanglez="30"
       visible="true" />
  </sodipodi:namedview>
  <defs
     id="defs1" />
  <g
     inkscape:label="Layer 1"
     inkscape:groupmode="layer"
     id="layer1">
    <path
       id="path1"
       style="vector-effect:non-scaling-stroke;fill:#000000;stroke-width:0.264583;stroke-miterlimit:100;-inkscape-stroke:hairline"
       d="M 54.999744 19.999813 A 45 45 0 0 0 9.9999064 64.99965 A 45 45 0 0 0 54.999744 110 A 45 45 0 0 0 100.0001 64.99965 A 45 45 0 0 0 54.999744 19.999813 z M 50.000049 30.393494 L 50.000049 59.999955 L 20.393587 59.999955 A 35 35 0 0 1 50.000049 30.393494 z M 59.999955 30.393494 A 35 35 0 0 1 89.606417 59.999955 L 59.999955 59.999955 L 59.999955 30.393494 z M 20.393587 69.999862 L 50.000049 69.999862 L 50.000049 99.606323 A 35 35 0 0 1 20.393587 69.999862 z M 59.999955 69.999862 L 89.627604 69.999862 A 35 35 0 0 1 59.999955 99.627511 L 59.999955 69.999862 z " />
  </g>
</svg>
