<?xml version="1.0" encoding="UTF-8" standalone="no"?>
<!-- Created with Inkscape (http://www.inkscape.org/) -->

<svg
   width="110mm"
   height="130mm"
   viewBox="0 0 110 130"
   version="1.1"
   id="svg1"
   inkscape:version="1.3.2 (091e20ef0f, 2023-11-25, custom)"
   sodipodi:docname="meli.svg"
   xmlns:inkscape="http://www.inkscape.org/namespaces/inkscape"
   xmlns:sodipodi="http://sodipodi.sourceforge.net/DTD/sodipodi-0.dtd"
   xmlns="http://www.w3.org/2000/svg"
   xmlns:svg="http://www.w3.org/2000/svg">
  <sodipodi:namedview
     id="namedview1"
     pagecolor="#505050"
     bordercolor="#eeeeee"
     borderopacity="1"
     inkscape:showpageshadow="0"
     inkscape:pageopacity="0"
     inkscape:pagecheckerboard="0"
     inkscape:deskcolor="#505050"
     inkscape:document-units="mm"
     showgrid="true"
     inkscape:zoom="0.77212274"
     inkscape:cx="108.14343"
     inkscape:cy="285.57636"
     inkscape:window-width="1354"
     inkscape:window-height="733"
     inkscape:window-x="5"
     inkscape:window-y="5"
     inkscape:window-maximized="1"
     inkscape:current-layer="layer1">
    <inkscape:grid
       id="grid1"
       units="mm"
       originx="0"
       originy="0"
       spacingx="2.5000001"
       spacingy="2.5000001"
       empcolor="#ffffff"
       empopacity="0.30196078"
       color="#ffffff"
       opacity="0.14901961"
       empspacing="4"
       dotted="false"
       gridanglex="30"
       gridanglez="30"
       visible="true" />
  </sodipodi:namedview>
  <defs
     id="defs1" />
  <g
     inkscape:label="Layer 1"
     inkscape:groupmode="layer"
     id="layer1">
    <path
       id="path1"
       style="vector-effect:non-scaling-stroke;fill:#000000;fill-rule:evenodd;stroke-width:0.264583;stroke-miterlimit:100;-inkscape-stroke:hairline"
       d="M 54.999741,19.999913 A 45,45 0 0 0 9.9999038,64.99975 H 19.99981 A 35,35 0 0 1 54.999741,29.999819 35,35 0 0 1 90.000188,64.99975 H 100.0001 A 45,45 0 0 0 54.999741,19.999913 Z" />
    <path
       id="rect2"
       style="vector-effect:non-scaling-stroke;fill-rule:evenodd;stroke-width:0.264583;stroke-miterlimit:100;-inkscape-stroke:hairline"
       d="M 9.9999964,65.000002 H 19.999995 V 110 H 9.9999964 Z" />
    <path
       id="rect3"
       style="vector-effect:non-scaling-stroke;fill-rule:evenodd;stroke-width:0.264583;stroke-miterlimit:100;-inkscape-stroke:hairline"
       d="m 89.999997,65.000002 h 9.999999 V 110 h -9.999999 z" />
    <path
       id="path3"
       style="vector-effect:non-scaling-stroke;fill:#000000;fill-rule:evenodd;stroke-width:0.242534;stroke-miterlimit:100;-inkscape-stroke:hairline"
       d="M 54.999741,37.500136 A 27.5,27.5 0 0 0 27.500127,64.99975 27.5,27.5 0 0 0 54.999741,92.49988 27.5,27.5 0 0 0 82.499871,64.99975 27.5,27.5 0 0 0 54.999741,37.500136 Z m 0,9.999907 A 17.499998,17.499998 0 0 1 72.499964,64.99975 17.499998,17.499998 0 0 1 54.999741,82.499973 17.499998,17.499998 0 0 1 37.500034,64.99975 17.499998,17.499998 0 0 1 54.999741,47.500043 Z" />
  </g>
</svg>
