<?xml version="1.0" encoding="UTF-8" standalone="no"?>
<!-- Created with Inkscape (http://www.inkscape.org/) -->

<svg
   width="110mm"
   height="130mm"
   viewBox="0 0 110 130"
   version="1.1"
   id="svg1"
   inkscape:version="1.3.2 (091e20ef0f, 2023-11-25, custom)"
   sodipodi:docname="oko.svg"
   xmlns:inkscape="http://www.inkscape.org/namespaces/inkscape"
   xmlns:sodipodi="http://sodipodi.sourceforge.net/DTD/sodipodi-0.dtd"
   xmlns="http://www.w3.org/2000/svg"
   xmlns:svg="http://www.w3.org/2000/svg">
  <sodipodi:namedview
     id="namedview1"
     pagecolor="#505050"
     bordercolor="#eeeeee"
     borderopacity="1"
     inkscape:showpageshadow="0"
     inkscape:pageopacity="0"
     inkscape:pagecheckerboard="0"
     inkscape:deskcolor="#505050"
     inkscape:document-units="mm"
     showgrid="true"
     inkscape:zoom="0.93065223"
     inkscape:cx="315.90748"
     inkscape:cy="213.29128"
     inkscape:window-width="1354"
     inkscape:window-height="733"
     inkscape:window-x="5"
     inkscape:window-y="5"
     inkscape:window-maximized="1"
     inkscape:current-layer="layer1">
    <inkscape:grid
       id="grid1"
       units="mm"
       originx="0"
       originy="0"
       spacingx="2.5"
       spacingy="2.5"
       empcolor="#ffffff"
       empopacity="0.30196078"
       color="#ffffff"
       opacity="0.14901961"
       empspacing="4"
       dotted="false"
       gridanglex="30"
       gridanglez="30"
       visible="true" />
  </sodipodi:namedview>
  <defs
     id="defs1" />
  <g
     inkscape:label="Layer 1"
     inkscape:groupmode="layer"
     id="layer1">
    <path
       id="path10"
       style="vector-effect:non-scaling-stroke;fill:#000000;stroke:none;stroke-width:0.264583;stroke-opacity:1;-inkscape-stroke:hairline"
       d="m 82.517961,43.403552 c -7.725145,4.45147 -12.494909,12.680218 -12.518099,21.596098 0.02322,8.916278 4.79343,17.145315 12.519132,21.596615 2.067614,-2.632691 3.738561,-5.533649 4.970756,-8.613428 -4.634737,-2.680881 -7.48907,-7.628945 -7.489465,-12.983187 6.57e-4,-5.353766 2.85473,-10.301326 7.488948,-12.982153 -1.232338,-3.080166 -2.903309,-5.980994 -4.971272,-8.613945 z"
       sodipodi:nodetypes="ccccccc" />
    <path
       id="path9"
       style="vector-effect:non-scaling-stroke;fill:#000000;stroke:none;stroke-width:0.264583;stroke-opacity:1;-inkscape-stroke:hairline"
       d="M 95.395211,21.210075 9.9999064,65.000167 95.395211,108.78974 100.0001,100.0001 89.071566,94.384937 C 96.11897,86.216685 99.997363,75.788412 100.0001,65.000167 99.995307,54.212151 96.11509,43.784821 89.066398,35.617981 L 100.0001,30.000236 Z M 79.840088,40.358777 c 6.504109,6.552288 10.155921,15.409061 10.160103,24.64139 -0.0042,9.232329 -3.655994,18.089101 -10.160103,24.64139 l -47.95883,-24.64139 z"
       sodipodi:nodetypes="cccccccccccccc" />
  </g>
</svg>
