<?xml version="1.0" encoding="UTF-8" standalone="no"?>
<!-- Created with Inkscape (http://www.inkscape.org/) -->

<svg
   width="110mm"
   height="130mm"
   viewBox="0 0 110 130"
   version="1.1"
   id="svg1"
   inkscape:version="1.3.2 (091e20ef0f, 2023-11-25, custom)"
   sodipodi:docname="pali.svg"
   xmlns:inkscape="http://www.inkscape.org/namespaces/inkscape"
   xmlns:sodipodi="http://sodipodi.sourceforge.net/DTD/sodipodi-0.dtd"
   xmlns="http://www.w3.org/2000/svg"
   xmlns:svg="http://www.w3.org/2000/svg">
  <sodipodi:namedview
     id="namedview1"
     pagecolor="#505050"
     bordercolor="#eeeeee"
     borderopacity="1"
     inkscape:showpageshadow="0"
     inkscape:pageopacity="0"
     inkscape:pagecheckerboard="0"
     inkscape:deskcolor="#505050"
     inkscape:document-units="mm"
     showgrid="true"
     inkscape:zoom="0.88872302"
     inkscape:cx="268.36258"
     inkscape:cy="291.42938"
     inkscape:window-width="1366"
     inkscape:window-height="768"
     inkscape:window-x="0"
     inkscape:window-y="0"
     inkscape:window-maximized="1"
     inkscape:current-layer="layer1">
    <inkscape:grid
       id="grid1"
       units="mm"
       originx="0"
       originy="0"
       spacingx="1.25"
       spacingy="1.25"
       empcolor="#ffffff"
       empopacity="0.30196078"
       color="#ffffff"
       opacity="0.14901961"
       empspacing="8"
       dotted="false"
       gridanglex="30"
       gridanglez="30"
       visible="true" />
  </sodipodi:namedview>
  <defs
     id="defs1" />
  <g
     inkscape:label="Layer 1"
     inkscape:groupmode="layer"
     id="layer1">
    <text
       xml:space="preserve"
       style="font-size:31.75px;line-height:31.75px;font-family:'linja lipamanka';-inkscape-font-specification:'linja lipamanka';letter-spacing:0px;vector-effect:non-scaling-stroke;fill:#020202;stroke-width:0.264583;stroke-miterlimit:100;-inkscape-stroke:hairline"
       x="-78.749992"
       y="45.000008"
       id="text1"><tspan
         sodipodi:role="line"
         id="tspan1"
         style="stroke-width:0.264583"
         x="-78.749992"
         y="45.000008" /></text>
    <path
       id="path3-9"
       style="vector-effect:non-scaling-stroke;fill:#020202;stroke-width:0.220484;stroke-miterlimit:100;-inkscape-stroke:hairline"
       d="M 56.249737,50.000008 A 24.999771,24.999771 0 0 0 31.250222,75.000032 h 9.999901 a 15,15 0 0 1 14.999614,-14.999601 15,15 0 0 1 15.00011,14.999601 h 9.99991 A 24.999771,24.999771 0 0 0 56.249737,50.000008 Z" />
    <path
       id="rect4-7"
       style="vector-effect:non-scaling-stroke;fill:#020202;stroke-width:0.350011;stroke-miterlimit:100;-inkscape-stroke:hairline"
       d="M 31.249992,75.000032 H 41.249993 V 110 H 31.249992 Z" />
    <path
       id="rect5-5"
       style="vector-effect:non-scaling-stroke;fill:#020202;stroke-width:0.350011;stroke-miterlimit:100;-inkscape-stroke:hairline"
       d="m 71.249997,75.000032 h 10 V 110 h -10 z" />
    <path
       id="rect6-9"
       style="vector-effect:non-scaling-stroke;fill:#020202;stroke-width:0.216031;stroke-miterlimit:100;-inkscape-stroke:hairline"
       inkscape:transform-center-x="3.1698703"
       inkscape:transform-center-y="-15.490376"
       d="m 16.24999,84.019249 8.660253,-5 15,25.980761 -8.660249,5.00001 z" />
    <path
       id="path1"
       style="vector-effect:non-scaling-stroke;fill:#000000;fill-rule:evenodd;stroke:none;stroke-width:0.264583;stroke-miterlimit:100;-inkscape-stroke:hairline"
       d="M 56.249744,19.999917 A 19.999998,19.999998 0 0 0 36.249931,40.000246 19.999998,19.999998 0 0 0 56.249744,60.000059 19.999998,19.999998 0 0 0 76.250073,40.000246 19.999998,19.999998 0 0 0 56.249744,19.999917 Z m 0,9.999906 a 9.999999,9.999999 0 0 1 10.000423,10.000423 9.999999,9.999999 0 0 1 -10.000423,9.999906 9.999999,9.999999 0 0 1 -9.999907,-9.999906 9.999999,9.999999 0 0 1 9.999907,-10.000423 z" />
  </g>
</svg>
